<svg xmlns="http://www.w3.org/2000/svg" width="800" height="450" viewBox="0 0 800 450">
  <defs>
    <linearGradient id="bg" x1="0%" y1="0%" x2="100%" y2="100%">
      <stop offset="0%" style="stop-color:#0d0a18"/>
      <stop offset="100%" style="stop-color:#160d28"/>
    </linearGradient>
    <linearGradient id="accent" x1="0%" y1="0%" x2="100%" y2="0%">
      <stop offset="0%" style="stop-color:#a855f7"/>
      <stop offset="100%" style="stop-color:#7c3aed"/>
    </linearGradient>
  </defs>
  <rect width="800" height="450" fill="url(#bg)"/>
  <rect x="1" y="1" width="798" height="448" rx="10" fill="none" stroke="#2a1a4e" stroke-width="1"/>
  <line x1="0" y1="112" x2="800" y2="112" stroke="#1e1235" stroke-width="1"/>
  <line x1="0" y1="225" x2="800" y2="225" stroke="#1e1235" stroke-width="1"/>
  <line x1="0" y1="337" x2="800" y2="337" stroke="#1e1235" stroke-width="1"/>
  <line x1="200" y1="0" x2="200" y2="450" stroke="#1e1235" stroke-width="1"/>
  <line x1="400" y1="0" x2="400" y2="450" stroke="#1e1235" stroke-width="1"/>
  <line x1="600" y1="0" x2="600" y2="450" stroke="#1e1235" stroke-width="1"/>
  <circle cx="400" cy="175" r="56" fill="#1a0f30" stroke="url(#accent)" stroke-width="1.5"/>
  <text x="400" y="191" text-anchor="middle" font-family="monospace" font-size="36" fill="#a855f7">🛡</text>
  <rect x="340" y="40" width="120" height="28" rx="14" fill="#1a0f30" stroke="#a855f7" stroke-width="1"/>
  <text x="400" y="59" text-anchor="middle" font-family="'Segoe UI', sans-serif" font-size="12" fill="#a855f7">🔒 PRIVATE</text>
  <text x="400" y="280" text-anchor="middle" font-family="'Segoe UI', sans-serif" font-size="22" font-weight="700" fill="#f0e6ff">afk-client</text>
  <rect x="356" y="298" width="88" height="24" rx="12" fill="#2a1a4e"/>
  <text x="400" y="315" text-anchor="middle" font-family="'Segoe UI', sans-serif" font-size="12" fill="#a855f7">JavaScript</text>
  <rect x="0" y="446" width="800" height="4" rx="0" fill="url(#accent)" opacity="0.7"/>
</svg>
