<svg xmlns="http://www.w3.org/2000/svg" width="800" height="450" viewBox="0 0 800 450">
  <defs>
    <linearGradient id="bg" x1="0%" y1="0%" x2="100%" y2="100%">
      <stop offset="0%" style="stop-color:#180a0a"/>
      <stop offset="100%" style="stop-color:#2a1010"/>
    </linearGradient>
    <linearGradient id="accent" x1="0%" y1="0%" x2="100%" y2="0%">
      <stop offset="0%" style="stop-color:#f97316"/>
      <stop offset="100%" style="stop-color:#ef4444"/>
    </linearGradient>
  </defs>
  <rect width="800" height="450" fill="url(#bg)"/>
  <rect x="1" y="1" width="798" height="448" rx="10" fill="none" stroke="#3a1a1a" stroke-width="1"/>
  <line x1="0" y1="112" x2="800" y2="112" stroke="#251010" stroke-width="1"/>
  <line x1="0" y1="225" x2="800" y2="225" stroke="#251010" stroke-width="1"/>
  <line x1="0" y1="337" x2="800" y2="337" stroke="#251010" stroke-width="1"/>
  <line x1="200" y1="0" x2="200" y2="450" stroke="#251010" stroke-width="1"/>
  <line x1="400" y1="0" x2="400" y2="450" stroke="#251010" stroke-width="1"/>
  <line x1="600" y1="0" x2="600" y2="450" stroke="#251010" stroke-width="1"/>
  <circle cx="400" cy="175" r="56" fill="#2a1010" stroke="url(#accent)" stroke-width="1.5"/>
  <text x="400" y="191" text-anchor="middle" font-family="monospace" font-size="36" fill="#f97316">☕</text>
  <rect x="340" y="40" width="120" height="28" rx="14" fill="#2a1010" stroke="#f97316" stroke-width="1"/>
  <text x="400" y="59" text-anchor="middle" font-family="'Segoe UI', sans-serif" font-size="12" fill="#f97316">🔒 PRIVATE</text>
  <text x="400" y="280" text-anchor="middle" font-family="'Segoe UI', sans-serif" font-size="22" font-weight="700" fill="#ffe6e6">FakeScoreboard-Meteor-1.21</text>
  <rect x="368" y="298" width="64" height="24" rx="12" fill="#2a1010"/>
  <text x="400" y="315" text-anchor="middle" font-family="'Segoe UI', sans-serif" font-size="12" fill="#f97316">Java</text>
  <rect x="0" y="446" width="800" height="4" fill="url(#accent)" opacity="0.7"/>
</svg>
