<svg xmlns="http://www.w3.org/2000/svg" width="800" height="450" viewBox="0 0 800 450">
  <defs>
    <linearGradient id="bg" x1="0%" y1="0%" x2="100%" y2="100%">
      <stop offset="0%" style="stop-color:#181208"/>
      <stop offset="100%" style="stop-color:#241a08"/>
    </linearGradient>
    <linearGradient id="accent" x1="0%" y1="0%" x2="100%" y2="0%">
      <stop offset="0%" style="stop-color:#f59e0b"/>
      <stop offset="100%" style="stop-color:#fb923c"/>
    </linearGradient>
  </defs>
  <rect width="800" height="450" fill="url(#bg)"/>
  <rect x="1" y="1" width="798" height="448" rx="10" fill="none" stroke="#3a2a10" stroke-width="1"/>
  <line x1="0" y1="112" x2="800" y2="112" stroke="#251a08" stroke-width="1"/>
  <line x1="0" y1="225" x2="800" y2="225" stroke="#251a08" stroke-width="1"/>
  <line x1="0" y1="337" x2="800" y2="337" stroke="#251a08" stroke-width="1"/>
  <line x1="200" y1="0" x2="200" y2="450" stroke="#251a08" stroke-width="1"/>
  <line x1="400" y1="0" x2="400" y2="450" stroke="#251a08" stroke-width="1"/>
  <line x1="600" y1="0" x2="600" y2="450" stroke="#251a08" stroke-width="1"/>
  <circle cx="400" cy="175" r="56" fill="#241a08" stroke="url(#accent)" stroke-width="1.5"/>
  <text x="400" y="191" text-anchor="middle" font-family="monospace" font-size="36" fill="#f59e0b">🍽</text>
  <rect x="348" y="40" width="104" height="28" rx="14" fill="#241a08" stroke="#f59e0b" stroke-width="1"/>
  <text x="400" y="59" text-anchor="middle" font-family="'Segoe UI', sans-serif" font-size="12" fill="#f59e0b">✦ PUBLIC</text>
  <text x="400" y="280" text-anchor="middle" font-family="'Segoe UI', sans-serif" font-size="22" font-weight="700" fill="#fff7e6">Omnifood</text>
  <rect x="368" y="298" width="64" height="24" rx="12" fill="#241a08"/>
  <text x="400" y="315" text-anchor="middle" font-family="'Segoe UI', sans-serif" font-size="12" fill="#f59e0b">HTML</text>
  <rect x="0" y="446" width="800" height="4" fill="url(#accent)" opacity="0.7"/>
</svg>
