<?xml version="1.0" encoding="UTF-8"?>
<svg version="1.1" xmlns="http://www.w3.org/2000/svg" width="480" height="470">
<path d="M0 0 C1.00080579 -0.00523668 2.00161158 -0.01047336 3.03274482 -0.01586872 C6.37253303 -0.03082099 9.71216737 -0.03157284 13.05198669 -0.03224182 C15.45244605 -0.03986662 17.85290298 -0.04829467 20.25335693 -0.0574646 C26.76608033 -0.07938756 33.27876966 -0.08822821 39.79152417 -0.09329104 C43.86485541 -0.09655637 47.93817729 -0.10308392 52.01150322 -0.11029243 C63.30863546 -0.12985089 74.60575902 -0.1462591 85.90290928 -0.14916897 C86.98587623 -0.14945032 86.98587623 -0.14945032 88.09072131 -0.14973736 C89.55409714 -0.15010359 91.01747297 -0.15046729 92.4808488 -0.15082847 C93.20718563 -0.15101128 93.93352247 -0.1511941 94.68186951 -0.15138245 C95.40910207 -0.151563 96.13633464 -0.15174354 96.88560455 -0.15192956 C108.65705596 -0.1554677 120.42832404 -0.1824708 132.19971193 -0.21988034 C144.31039028 -0.25805732 156.4209779 -0.27732714 168.53171772 -0.27762848 C175.32129147 -0.278211 182.11064656 -0.28656922 188.90016365 -0.31562614 C195.29183174 -0.34188951 201.68306852 -0.34396543 208.07476616 -0.3279705 C210.4115277 -0.32616249 212.74831452 -0.33278767 215.08502197 -0.34878922 C232.38741892 -0.45998392 247.02592325 0.60055886 260.79978943 12.27415466 C261.8593988 13.16747498 261.8593988 13.16747498 262.94041443 14.07884216 C271.11058617 21.59415281 277.80901128 32.5295899 279.07872474 43.73602557 C279.18654993 46.43192934 279.20466645 49.1133423 279.18746948 51.81135559 C279.19554779 53.34870595 279.19554779 53.34870595 279.20378929 54.9171139 C279.21803315 58.33231281 279.21097381 61.74712218 279.20384216 65.16233826 C279.2095476 67.61869619 279.21651252 70.07505147 279.22463989 72.53140259 C279.24070756 78.49964326 279.24267568 84.46773237 279.23742699 90.43597983 C279.23337687 95.28980066 279.23483882 100.14359046 279.24017525 104.99740982 C279.24092367 105.68963013 279.24167209 106.38185044 279.24244319 107.09504712 C279.24397476 108.50153728 279.2455131 109.90802743 279.24705816 111.31451757 C279.2607698 124.48908016 279.25535505 137.66358328 279.24387295 150.8381445 C279.23394315 162.8741058 279.24687917 174.90991331 279.27080714 186.94585089 C279.29522731 199.32323074 279.30479878 211.70053905 279.29815441 224.07794249 C279.29466851 231.01935208 279.29685249 237.96064346 279.31440544 244.90203476 C279.33071085 251.43071806 279.32590046 257.95915616 279.3071003 264.48784828 C279.30341893 266.87949506 279.3065096 269.27116364 279.31698608 271.6627903 C279.3302282 274.93652465 279.31861896 278.20929291 279.30099487 281.48298645 C279.31059988 282.42143414 279.32020489 283.35988183 279.33010095 284.32676733 C279.18222551 297.74701662 272.77375573 309.30245158 263.79978943 318.96165466 C253.44339435 328.95019964 240.86857741 333.58501342 226.59921265 333.54830933 C225.58630506 333.553546 224.57339747 333.55878268 223.52979571 333.56417805 C220.14310953 333.57915335 216.75657477 333.57988267 213.36985779 333.58055115 C210.93836717 333.58817441 208.50687895 333.5966022 206.07539368 333.60577393 C199.47383639 333.62771242 192.87231484 333.6365395 186.27072978 333.64160037 C182.14297113 333.6448638 178.01522174 333.65139025 173.88746834 333.65860176 C162.4428268 333.67816288 150.99819384 333.6945694 139.55353451 333.69747829 C138.45603328 333.69775965 138.45603328 333.69775965 137.33636031 333.69804669 C135.85329473 333.69841292 134.37022915 333.69877662 132.88716357 333.6991378 C132.15103762 333.69932061 131.41491168 333.69950342 130.65647888 333.69969177 C129.91944666 333.69987232 129.18241444 333.70005287 128.42304791 333.70023889 C116.49242856 333.70377717 104.56199009 333.73077995 92.63143342 333.76818966 C80.36145992 333.8063534 68.09157597 333.82563637 55.82154185 333.82593781 C48.94088345 333.82652064 42.06044074 333.83489937 35.17983818 333.86393547 C28.7028685 333.89114383 22.22621235 333.8922858 15.74920273 333.87627983 C13.37977098 333.87447021 11.0103144 333.88111171 8.6409359 333.89709854 C-10.68271331 334.01946875 -24.62029196 331.78722505 -39.41114807 318.25071716 C-49.85523582 307.48650412 -54.52157594 293.86887794 -54.46090698 279.12295532 C-54.46473253 278.12749437 -54.46855808 277.13203342 -54.47249955 276.10640699 C-54.4827833 272.78490848 -54.47884615 269.46358433 -54.47486877 266.14207458 C-54.47921783 263.75483033 -54.48440162 261.36758747 -54.49035645 258.98034668 C-54.50234877 253.17710499 -54.50490023 247.37391719 -54.50255618 241.57066461 C-54.50076986 236.85078811 -54.5025294 232.13092562 -54.50678062 227.4110508 C-54.50737581 226.73812253 -54.507971 226.06519425 -54.50858423 225.37187422 C-54.50979604 224.00460153 -54.51101017 222.63732885 -54.5122266 221.27005617 C-54.52309274 208.45937935 -54.52094419 195.64872888 -54.51484176 182.83805058 C-54.50967488 171.13507773 -54.52092363 159.43218818 -54.53993998 147.7292318 C-54.5593431 135.69541549 -54.56756995 123.66163853 -54.56381673 111.62780648 C-54.56190824 104.87866589 -54.56435759 98.12959615 -54.57853127 91.38046837 C-54.59112414 85.03157071 -54.58915149 78.68283948 -54.57612038 72.33394432 C-54.57375817 70.0084121 -54.57647649 67.68286812 -54.5847435 65.3573494 C-54.59524266 62.17347637 -54.58708452 58.9901585 -54.57443237 55.80630493 C-54.58180666 54.89441176 -54.58918094 53.98251859 -54.59677869 53.04299229 C-54.47213762 38.04920219 -48.3084135 25.15700492 -38.20021057 14.27415466 C-27.55686105 4.31962317 -14.29294639 -0.03737248 0 0 Z " fill="#5748E8" transform="translate(128.20021057128906,67.72584533691406)"/>
<path d="M0 0 C1.00080579 -0.00523668 2.00161158 -0.01047336 3.03274482 -0.01586872 C6.37253303 -0.03082099 9.71216737 -0.03157284 13.05198669 -0.03224182 C15.45244605 -0.03986662 17.85290298 -0.04829467 20.25335693 -0.0574646 C26.76608033 -0.07938756 33.27876966 -0.08822821 39.79152417 -0.09329104 C43.86485541 -0.09655637 47.93817729 -0.10308392 52.01150322 -0.11029243 C63.30863546 -0.12985089 74.60575902 -0.1462591 85.90290928 -0.14916897 C86.98587623 -0.14945032 86.98587623 -0.14945032 88.09072131 -0.14973736 C89.55409714 -0.15010359 91.01747297 -0.15046729 92.4808488 -0.15082847 C93.20718563 -0.15101128 93.93352247 -0.1511941 94.68186951 -0.15138245 C95.40910207 -0.151563 96.13633464 -0.15174354 96.88560455 -0.15192956 C108.65705596 -0.1554677 120.42832404 -0.1824708 132.19971193 -0.21988034 C144.31039028 -0.25805732 156.4209779 -0.27732714 168.53171772 -0.27762848 C175.32129147 -0.278211 182.11064656 -0.28656922 188.90016365 -0.31562614 C195.29183174 -0.34188951 201.68306852 -0.34396543 208.07476616 -0.3279705 C210.4115277 -0.32616249 212.74831452 -0.33278767 215.08502197 -0.34878922 C235.07716191 -0.47726969 249.92380903 1.95767862 265.04978943 16.08665466 C269.94716026 21.19305962 274.79978943 27.0165483 274.79978943 34.27415466 C249.44119508 45.25669563 224.05651807 56.17338865 198.61372375 66.95944214 C189.17326651 70.9621485 179.73876113 74.97882572 170.30412292 78.995224 C153.03171403 86.34800737 135.75722466 93.69588803 118.47947693 101.03611755 C116.85838085 101.72483279 115.2372871 102.41355348 113.61619568 103.10227966 C112.81642303 103.44206345 112.01665039 103.78184723 111.19264221 104.13192749 C105.21558648 106.6716575 99.23995148 109.21471512 93.26463318 111.75852966 C75.47105837 119.33206022 57.67205474 126.88765647 39.79978943 134.27415466 C39.3847113 133.50587341 38.96963318 132.73759216 38.54197693 131.94602966 C35.65825153 127.52345528 31.32556165 125.11607874 26.36228943 123.46165466 C25.09385193 123.36884216 25.09385193 123.36884216 23.79978943 123.27415466 C23.15525818 123.22388123 22.51072693 123.17360779 21.84666443 123.12181091 C10.71870191 122.63544892 1.07687066 127.08048425 -7.39552307 134.09056091 C-15.85911929 142.05535203 -23.51205672 154.46189036 -24.34547424 166.34544373 C-24.37023539 168.7384884 -24.38586683 171.13097246 -24.38771057 173.52415466 C-24.40607971 174.75585388 -24.40607971 174.75585388 -24.42481995 176.01243591 C-24.44748469 185.54673801 -22.3317725 195.87695894 -15.54005432 203.02024841 C-13.76255499 204.54385324 -13.76255499 204.54385324 -11.20021057 206.27415466 C-15.08833633 208.31241766 -19.13526185 209.97601287 -23.17677307 211.68040466 C-24.74978099 212.34815848 -26.32269488 213.01613387 -27.89552307 213.68431091 C-30.36789271 214.73326965 -32.84084913 215.78075046 -35.31544495 216.82444763 C-37.70860046 217.83456422 -40.09911307 218.8507242 -42.48927307 219.86790466 C-43.23198456 220.17941467 -43.97469604 220.49092468 -44.73991394 220.81187439 C-48.79535037 222.53465673 -48.79535037 222.53465673 -52.20021057 225.27415466 C-52.57228412 227.99031331 -52.57228412 227.99031331 -52.61427307 231.15696716 C-52.65294495 232.32356873 -52.69161682 233.49017029 -52.73146057 234.69212341 C-52.76239807 235.91544373 -52.79333557 237.13876404 -52.82521057 238.39915466 C-52.86388245 239.63020935 -52.90255432 240.86126404 -52.94239807 242.12962341 C-53.03691047 245.17764842 -53.12246551 248.22566329 -53.20021057 251.27415466 C-53.53021057 251.27415466 -53.86021057 251.27415466 -54.20021057 251.27415466 C-54.2703466 224.60508784 -54.3232213 197.93603487 -54.35564709 171.26689434 C-54.3711043 158.88345948 -54.39217198 146.50008199 -54.42652893 134.11668396 C-54.45646628 123.32109453 -54.4757939 112.52554666 -54.48247606 101.72991687 C-54.48638094 96.0157407 -54.49553425 90.3016834 -54.51740074 84.58754539 C-54.53783432 79.20399836 -54.54403047 73.82061864 -54.53953362 68.43703651 C-54.54035574 66.466265 -54.54628025 64.49548762 -54.557827 62.52474976 C-54.66359566 43.53363968 -51.55445022 28.65180333 -38.20021057 14.27415466 C-27.55686105 4.31962317 -14.29294639 -0.03737248 0 0 Z " fill="#1C9BD5" transform="translate(128.20021057128906,67.72584533691406)"/>
<path d="M0 0 C3.21787181 4.82680772 4.25107492 9.16416984 4.24050903 14.9225769 C4.24463303 16.66405754 4.24463303 16.66405754 4.24884033 18.4407196 C4.24164978 19.70019913 4.23445923 20.95967865 4.22705078 22.25732422 C4.22648614 23.60794567 4.22680426 24.95856774 4.22793579 26.30918884 C4.22850824 29.96372986 4.21677146 33.61813887 4.20278788 37.27264929 C4.1902625 41.09632029 4.18910859 44.91999451 4.18673706 48.74368286 C4.1805276 55.97899426 4.16412401 63.21424503 4.14403808 70.44952977 C4.12166246 78.68892319 4.11068147 86.92831956 4.10064721 95.16773582 C4.0797573 112.11185891 4.04459172 129.05592304 4 146 C3.18321777 146.31638428 2.36643555 146.63276855 1.52490234 146.95874023 C-1.53772457 148.16087457 -4.58782963 149.38792703 -7.63330078 150.63256836 C-8.94630749 151.16321106 -10.26335364 151.68398118 -11.58447266 152.1940918 C-19.10648155 155.10666375 -24.99411381 157.58501276 -28.91210938 165.01782227 C-30.64495627 168.17513464 -32.80608513 169.46692086 -36 171 C-39.85205226 172.08647628 -42.9851628 172.38338294 -46.8125 170.9375 C-49.46756901 168.58586745 -50.62993435 166.24489233 -52 163 C-52.79664063 163.72316406 -52.79664063 163.72316406 -53.609375 164.4609375 C-54.66898437 165.40839844 -54.66898437 165.40839844 -55.75 166.375 C-56.44609375 167.00148438 -57.1421875 167.62796875 -57.859375 168.2734375 C-61.38008375 171.11313324 -63.87440717 172.37959871 -68.4375 172 C-72.16055825 171.47338321 -72.97771592 171.01991344 -75.9375 168.375 C-80.12008264 161.53077386 -81.05231434 154.46114856 -79.546875 146.6484375 C-79.07813963 144.75340737 -78.54529048 142.87443601 -78 141 C-78.70125 141.33 -79.4025 141.66 -80.125 142 C-83.26003116 143.09044562 -85.70563182 143.15322643 -89 143 C-89.185625 143.78375 -89.37125 144.5675 -89.5625 145.375 C-93.35892152 154.94858471 -101.42653325 165.2843555 -110 171 C-113.4375 171.5 -113.4375 171.5 -117 171 C-120.38038518 166.82684156 -121.88890437 162.77771918 -123.25 157.625 C-123.58515625 156.37976563 -123.9203125 155.13453125 -124.265625 153.8515625 C-124.50796875 152.91054687 -124.7503125 151.96953125 -125 151 C-125.41958984 151.94359375 -125.41958984 151.94359375 -125.84765625 152.90625 C-129.18399658 160.02949751 -133.27543401 167.97734374 -141 171 C-144.07117008 171.51366401 -146.93304374 171.56377872 -150 171 C-153.32707778 167.92245305 -154.82774244 165.08696658 -155.203125 160.5390625 C-155.31409263 153.64057473 -154.44009514 147.57479991 -152.65625 140.91015625 C-152.03561001 138.15791343 -151.87590148 135.80772898 -152 133 C-161.03699476 136.94763797 -165.39131565 148.36006429 -169 157 C-170.20630504 160.49537787 -171.28505017 163.98828954 -172.2734375 167.55078125 C-173 170 -173 170 -174 171 C-179.8410596 171.37086093 -179.8410596 171.37086093 -182 171 C-184.29013653 167.5647952 -184.17842973 166.014669 -184 162 C-184.66 162 -185.32 162 -186 162 C-186.226875 162.5775 -186.45375 163.155 -186.6875 163.75 C-188.66629537 167.14222063 -191.50986942 169.25493471 -195 171 C-198.3840711 171.4126916 -201.62304895 171.49725331 -205 171 C-207.5 168.6875 -207.5 168.6875 -209 166 C-209.66 165.01 -210.32 164.02 -211 163 C-212.0828125 164.3921875 -212.0828125 164.3921875 -213.1875 165.8125 C-216.73468749 170.00372991 -219.35879988 171.79159364 -224.9375 172.5 C-228.58894602 172.32776198 -231.0209813 171.28011709 -233.74609375 168.7109375 C-236.09283879 165.50883679 -237.05307799 161.81260704 -238 158 C-238.53367188 158.78503906 -239.06734375 159.57007813 -239.6171875 160.37890625 C-245.38140268 168.50664911 -251.02425822 174.50105344 -260.4375 178.4375 C-270.69759577 180.05751512 -279.5574126 179.27545248 -288.25 173.3125 C-295.28850617 167.67608669 -298.79904584 159.78698125 -300 151 C-300.59246253 141.24698135 -301.14622594 131.04631115 -297 122 C-296.5978125 121.113125 -296.195625 120.22625 -295.78125 119.3125 C-289.19756484 106.14512968 -278.82798156 96.10859667 -265 91 C-257.35703396 88.70711019 -249.1273762 89.48814737 -242 93 C-238.81211795 95.23868122 -235.76339703 97.47320595 -234 101 C-233.45214844 100.75580322 -232.90429688 100.51160645 -232.33984375 100.26000977 C-213.0589394 91.68353432 -193.64091472 83.43986526 -174.2109375 75.20849609 C-166.76638333 72.05417939 -159.3255752 68.89105328 -151.88479614 65.72784424 C-149.42188535 64.68086222 -146.95887885 63.63410566 -144.49584961 62.58740234 C-129.50558605 56.21673905 -114.5185163 49.8385745 -99.53173828 43.4597168 C-90.06017584 39.42851602 -80.58792414 35.39895612 -71.11328125 31.375 C-70.24587311 31.00658997 -69.37846497 30.63817993 -68.48477173 30.25860596 C-67.2011525 29.71342316 -67.2011525 29.71342316 -65.89160156 29.15722656 C-64.19856663 28.43815357 -62.50553277 27.71907808 -60.8125 27 C-59.98987671 26.65062378 -59.16725342 26.30124756 -58.31970215 25.94128418 C-46.52656508 20.93193963 -34.74203324 15.90308587 -22.97192383 10.83984375 C-19.98317875 9.55540089 -16.99227201 8.27620303 -14 7 C-12.89333984 6.52626953 -11.78667969 6.05253906 -10.64648438 5.56445312 C-9.56173828 5.10490234 -8.47699219 4.64535156 -7.359375 4.171875 C-6.37936523 3.75518555 -5.39935547 3.33849609 -4.38964844 2.90917969 C-2 2 -2 2 0 2 C0 1.34 0 0.68 0 0 Z " fill="#2D84DA" transform="translate(403,100)"/>
<path d="M0 0 C0.99 0.33 1.98 0.66 3 1 C2.56668305 5.54982799 2.08051097 9.8863724 0.9375 14.3125 C-0.63766776 21.11436077 -1.11942563 28.12842991 1.4375 34.6875 C2.80305021 36.86639085 2.80305021 36.86639085 4 38 C8.41013087 38.56635365 12.03742946 38.42353104 16.125 36.625 C21.76283273 31.47741359 25.89147898 24.94845876 29 18 C31.43136921 22.41771102 32.59985072 27.18542378 34 32.00390625 C34.89824208 35.13199821 34.89824208 35.13199821 37 38 C40.63909651 38.81694003 42.94283191 38.65856373 46.14453125 36.6640625 C53.4335142 30.61331308 59.62681637 22.33024577 63.4765625 13.68359375 C65 11 65 11 67.15625 10.01171875 C68.31640625 9.85123047 68.31640625 9.85123047 69.5 9.6875 C70.2734375 9.56761719 71.046875 9.44773438 71.84375 9.32421875 C72.5553125 9.21722656 73.266875 9.11023438 74 9 C74.99 8.67 75.98 8.34 77 8 C76.855625 8.54527344 76.71125 9.09054688 76.5625 9.65234375 C74.37851773 18.52477171 73.88903544 26.57506028 78 35 C80.13432474 37.69272366 81.8026071 38.52072313 85.1875 39 C90.62837272 39.45192917 93.88677316 37.36114699 98 34 C100.39915598 31.85619782 100.39915598 31.85619782 102 30 C103.485 33.465 103.485 33.465 105 37 C104.25991699 37.31001953 103.51983398 37.62003906 102.75732422 37.93945312 C81.35258887 46.90731602 59.95894453 55.90132219 38.5736084 64.91534424 C35.97919626 66.00876781 33.38463285 67.10183177 30.79003906 68.19482422 C2.96781589 79.91630932 -24.81865698 91.72050169 -52.58987427 103.56228638 C-60.71099289 107.02497302 -68.83362382 110.48409287 -76.95703125 113.94140625 C-79.26855751 114.92536771 -81.58008096 115.90933578 -83.89160156 116.89331055 C-87.30416737 118.34595353 -90.71682162 119.79838688 -94.12976074 121.25015259 C-105.97221231 126.28765037 -117.80756617 131.34030574 -129.62109375 136.4453125 C-131.59860833 137.29847798 -133.57614677 138.15158814 -135.55371094 139.00463867 C-139.22236835 140.58733299 -142.88789647 142.17699179 -146.55175781 143.77075195 C-148.1737145 144.47112908 -149.7957781 145.17125869 -151.41796875 145.87109375 C-152.51533607 146.35202988 -152.51533607 146.35202988 -153.63487244 146.84268188 C-156.59217194 148.11253641 -158.74546474 149 -162 149 C-162.495 149.99 -162.495 149.99 -163 151 C-167.84637856 143.96186035 -171.52888042 137.19720849 -174 129 C-174.17724609 128.45093994 -174.35449219 127.90187988 -174.53710938 127.33618164 C-175.2041088 123.96987495 -175.14205288 120.62824881 -175.1328125 117.2109375 C-175.13426773 116.44265121 -175.13572296 115.67436493 -175.13722229 114.88279724 C-175.13946916 112.38014849 -175.13319266 109.8776352 -175.125 107.375 C-175.12311676 106.52618256 -175.12123352 105.67736511 -175.11929321 104.80282593 C-175.09060109 93.80439494 -175.01071708 82.80665723 -174.6875 71.8125 C-174.66510254 70.74628418 -174.64270508 69.68006836 -174.61962891 68.58154297 C-174.58401855 67.6123291 -174.5484082 66.64311523 -174.51171875 65.64453125 C-174.48553467 64.81284424 -174.45935059 63.98115723 -174.43237305 63.12426758 C-173.89343461 60.47643962 -173.01395743 59.7581602 -171 58 C-168.43359248 56.72540226 -165.89232516 55.55037378 -163.26171875 54.42578125 C-162.50333206 54.09708542 -161.74494537 53.76838959 -160.96357727 53.42973328 C-159.36052541 52.73779533 -157.75583981 52.04963178 -156.1496582 51.36499023 C-153.70125337 50.31837911 -151.26174297 49.25277205 -148.82226562 48.18554688 C-147.260921 47.51445043 -145.69908717 46.84449076 -144.13671875 46.17578125 C-143.41151535 45.85708572 -142.68631195 45.5383902 -141.93913269 45.21003723 C-137.11470112 43.17972146 -133.02928874 42.08302611 -127.83203125 43.65625 C-127.16558594 43.9346875 -126.49914062 44.213125 -125.8125 44.5 C-118.47743311 47.09320546 -110.93079567 47.03992913 -103.7734375 43.9140625 C-95.79983104 39.8043182 -90.74589098 33.84615472 -85.453125 26.79296875 C-84.97359375 26.20128906 -84.4940625 25.60960937 -84 25 C-83.67 25 -83.34 25 -83 25 C-82.84144531 25.67546875 -82.68289062 26.3509375 -82.51953125 27.046875 C-81.43883777 31.17858709 -80.57412939 34.31104473 -77.8125 37.625 C-74.08494277 39.44736131 -71.00239951 39.99324253 -67 39 C-62.79520883 36.60477074 -59.36473778 33.4475621 -56 30 C-55.75507813 30.5775 -55.51015625 31.155 -55.2578125 31.75 C-54.03092892 34.18684463 -52.91029422 36.0429057 -51 38 C-46.03619358 39.42059019 -42.08583242 38.55278742 -37.5625 36.25 C-35.31816514 34.27936451 -33.722529 32.4115406 -32 30 C-31.34 30 -30.68 30 -30 30 C-29.01 33.96 -29.01 33.96 -28 38 C-25.36 38 -22.72 38 -20 38 C-19.8040625 37.2471875 -19.608125 36.494375 -19.40625 35.71875 C-15.63500566 22.32433045 -10.19109545 9.75743181 0 0 Z " fill="#4464E2" transform="translate(249,232)"/>
<path d="M0 0 C1.48792606 -0.00107463 2.9758517 -0.00301599 4.46377563 -0.00575256 C8.49669091 -0.01058744 12.52949491 -0.00295225 16.56239676 0.00720048 C20.8251911 0.01605203 25.08798265 0.01422184 29.3507843 0.01383972 C36.53905055 0.0147763 43.72727461 0.0234422 50.91552734 0.03710938 C59.12310704 0.05266119 67.33064007 0.05811339 75.53823346 0.05737382 C84.37605066 0.05668599 93.21385078 0.0637135 102.05166268 0.07282043 C104.54230777 0.07491026 107.03294993 0.0756559 109.52359581 0.07605934 C132.78634319 0.08325335 156.015769 0.50240737 179.2668457 1.24291992 C176.53863843 3.06172477 174.06155417 4.2840354 171.0637207 5.57885742 C169.96302246 6.05548828 168.86232422 6.53211914 167.72827148 7.02319336 C166.4911939 7.5549186 165.25404935 8.08648807 164.0168457 8.61791992 C162.7002301 9.18584577 161.38366268 9.75388333 160.06713867 10.32202148 C140.79258525 18.62849044 121.46615804 26.81472308 102.14801025 35.019104 C97.68594078 36.91443194 93.22442405 38.81105947 88.76293945 40.70776367 C81.3712705 43.85003822 73.97926216 46.99151303 66.58703613 50.13247681 C60.82264173 52.58178768 55.05837208 55.03139195 49.29418945 57.48120117 C48.46723572 57.83265701 47.64028198 58.18411285 46.78826904 58.54621887 C42.61751487 60.31880716 38.4467945 62.09147491 34.27612305 63.86425781 C26.7309957 67.07129232 19.18564115 70.27778662 11.63909912 73.48149109 C8.24953465 74.92049505 4.86013658 76.35989069 1.47076416 77.79934692 C-0.19668836 78.50741467 -1.8642087 79.21532274 -3.53179932 79.92306519 C-12.68320448 83.80730615 -21.82712008 87.70790296 -30.95581055 91.64526367 C-32.59667687 92.35213871 -34.23754596 93.05900732 -35.87841797 93.76586914 C-38.97022237 95.09802111 -42.05989014 96.43497509 -45.1484375 97.7746582 C-46.52816914 98.36970937 -47.90796669 98.96460777 -49.2878418 99.55932617 C-50.48908691 100.07954346 -51.69033203 100.59976074 -52.92797852 101.13574219 C-55.7331543 102.24291992 -55.7331543 102.24291992 -57.7331543 102.24291992 C-58.49099912 94.97880132 -58.90235947 87.79516697 -58.9362793 80.49291992 C-58.94197937 79.51355469 -58.94767944 78.53418945 -58.95355225 77.52514648 C-58.96292221 75.47144628 -58.96950396 73.41773158 -58.97338867 71.36401367 C-58.98313069 68.2504643 -59.01424551 65.13756616 -59.0456543 62.02416992 C-59.05218317 60.01375711 -59.0574341 58.00333966 -59.0612793 55.99291992 C-59.0736261 55.07800781 -59.0859729 54.1630957 -59.09869385 53.22045898 C-59.04750257 38.13105591 -52.90875384 25.19833177 -42.7331543 14.24291992 C-30.4321099 2.73797652 -16.20898728 -0.06811786 0 0 Z " fill="#0FAFD0" transform="translate(132.733154296875,67.757080078125)"/>
<path d="M0 0 C3.74602974 3.07327337 5.58360781 4.98105363 6.22265625 9.98828125 C6.52349324 16.45171831 5.70967303 20.03527875 1.51953125 25.01171875 C-0.85649299 27.31837001 -2.41669789 28.53918508 -5.7734375 28.6953125 C-6.5365625 28.6540625 -7.2996875 28.6128125 -8.0859375 28.5703125 C-8.7734375 27.0078125 -8.7734375 27.0078125 -9.0859375 24.5703125 C-8.32853636 22.92378828 -7.56992324 21.27779129 -6.80078125 19.63671875 C-5.45965214 15.75990291 -5.39840684 11.59438903 -6.0859375 7.5703125 C-7.21089548 5.24380097 -7.21089548 5.24380097 -9.0859375 3.5703125 C-14.0846659 2.26198106 -19.07471714 3.18658593 -23.6484375 5.4453125 C-33.56267448 11.71615497 -38.97725559 20.8320286 -43.0859375 31.5703125 C-43.35277344 32.24449219 -43.61960937 32.91867188 -43.89453125 33.61328125 C-47.00818658 43.34076998 -46.00225768 55.66508729 -42.43359375 65.06640625 C-40.02035251 69.55013852 -36.58788885 72.31933682 -32.0859375 74.5703125 C-23.88193038 75.46622591 -17.62129035 74.78637917 -11.0859375 69.5703125 C-3.53009277 62.62672775 1.36146561 54.13530943 4.7265625 44.5078125 C7.39812012 37.51034358 12.49026595 31.53735995 18.98046875 27.80859375 C22.57835592 26.28991168 25.04034364 26.14772499 28.9140625 26.5703125 C32.4527619 28.22170555 33.72476403 29.28636479 35.9140625 32.5703125 C36.9659375 31.36375 36.9659375 31.36375 38.0390625 30.1328125 C41.20306353 27.31272462 42.72809565 26.66131178 46.9140625 26.5703125 C47.9040625 27.2303125 48.8940625 27.8903125 49.9140625 28.5703125 C49.31574 34.53314015 48.09903777 40.01445395 46.4140625 45.7578125 C43.68455913 54.91262428 43.68455913 54.91262428 42.8515625 64.3828125 C42.86058594 65.17300781 42.86960937 65.96320313 42.87890625 66.77734375 C42.89050781 67.36902344 42.90210938 67.96070313 42.9140625 68.5703125 C45.7157992 68.86202158 45.7157992 68.86202158 48.9140625 67.5703125 C57.05448714 57.65415797 60.79158615 44.24830552 61.5703125 31.671875 C61.9140625 29.5703125 61.9140625 29.5703125 63.9140625 27.5703125 C65.7890625 27.3046875 65.7890625 27.3046875 67.9140625 27.3203125 C68.9659375 27.31257813 68.9659375 27.31257813 70.0390625 27.3046875 C71.9140625 27.5703125 71.9140625 27.5703125 73.9140625 29.5703125 C74.109375 32.828125 74.109375 32.828125 74.0390625 36.6953125 C74.02101562 37.97664063 74.00296875 39.25796875 73.984375 40.578125 C73.96117187 41.56554687 73.93796875 42.55296875 73.9140625 43.5703125 C74.3265625 43.00183594 74.7390625 42.43335938 75.1640625 41.84765625 C79.49929887 36.05121297 84.30332107 29.87568321 90.9140625 26.5703125 C93.7890625 26.2578125 93.7890625 26.2578125 96.9140625 26.5703125 C99.21681806 28.4374116 100.59230121 29.92678991 101.9140625 32.5703125 C102.27392208 38.0581711 101.7724285 42.5518667 100.4140625 47.8828125 C98.8247473 54.210227 98.59816238 60.07681013 98.9140625 66.5703125 C105.46848248 64.17314407 108.11051063 59.85136405 111.03515625 53.73828125 C113.11552636 48.60670165 113.87456863 43.37255359 114.2890625 37.8828125 C114.71832651 33.42627159 116.07544877 31.01105642 118.9140625 27.5703125 C121.87070769 26.0919899 124.65635987 26.50998467 127.9140625 26.5703125 C127.93388184 27.46226318 127.95370117 28.35421387 127.97412109 29.27319336 C128.05280704 32.62256282 128.1395158 35.9715343 128.23144531 39.32055664 C128.26943021 40.7625343 128.30433274 42.20459692 128.3359375 43.64672852 C128.51000196 51.49322818 128.81973689 58.95071322 130.9140625 66.5703125 C139.13518337 62.94334741 142.75276925 53.43635393 145.9140625 45.5703125 C145.3159375 45.3434375 144.7178125 45.1165625 144.1015625 44.8828125 C141.21885197 43.15318618 140.3121054 41.62136054 138.9140625 38.5703125 C138.07613154 33.07504437 137.77106771 27.30657276 139.9453125 22.1015625 C142.03289081 19.27173412 143.73294928 17.85794111 147.17578125 17.01953125 C150.78830456 16.8105423 153.2495508 17.22995285 156.4765625 18.8828125 C159.33800557 24.23246694 158.63936535 30.03800515 157.0078125 35.734375 C156.04910024 38.38452959 155.03430358 40.98475608 153.9140625 43.5703125 C159.98284165 41.94403835 163.65394792 40.3629414 167.9140625 35.5703125 C169.43863272 34.1352633 170.98181412 32.71983315 172.5390625 31.3203125 C173.29445313 30.63453125 174.04984375 29.94875 174.828125 29.2421875 C178.27656564 26.47826878 181.56190437 26.2373046 185.91015625 26.27734375 C189.05913472 26.73772072 190.7486835 28.33931596 192.9140625 30.5703125 C193.2440625 31.2303125 193.5740625 31.8903125 193.9140625 32.5703125 C194.5946875 31.7659375 195.2753125 30.9615625 195.9765625 30.1328125 C199.42166151 27.12751336 201.39381863 26.65560012 205.9140625 26.5703125 C206.5740625 27.2303125 207.2340625 27.8903125 207.9140625 28.5703125 C207.55844656 33.52307262 206.29047776 38.19963488 205.04760742 42.99536133 C202.71224002 52.05422773 201.1293947 60.17173595 201.9140625 69.5703125 C205.30878677 68.6103053 206.67499062 67.91569617 208.71484375 64.96875 C209.21371094 63.97101563 209.71257812 62.97328125 210.2265625 61.9453125 C210.73832031 60.94242187 211.25007813 59.93953125 211.77734375 58.90625 C212.15246094 58.13539063 212.52757812 57.36453125 212.9140625 56.5703125 C213.9040625 56.9003125 214.8940625 57.2303125 215.9140625 57.5703125 C216.76301371 63.08849534 214.72885686 66.19709323 211.6171875 70.515625 C208.29042808 74.52910081 204.93345326 76.58296559 199.8515625 77.5078125 C195.58577172 77.57552346 194.07506271 77.37005554 190.9140625 74.5703125 C189.1015625 71.3828125 189.1015625 71.3828125 187.9140625 68.5703125 C187.38296875 69.05242187 186.851875 69.53453125 186.3046875 70.03125 C185.59828125 70.66289062 184.891875 71.29453125 184.1640625 71.9453125 C183.46796875 72.57179688 182.771875 73.19828125 182.0546875 73.84375 C178.53397875 76.68344574 176.03965533 77.94991121 171.4765625 77.5703125 C167.75350425 77.04369571 166.93634658 76.59022594 163.9765625 73.9453125 C159.79397986 67.10108636 158.86174816 60.03146106 160.3671875 52.21875 C160.83592287 50.32371987 161.36877202 48.44474851 161.9140625 46.5703125 C161.2128125 46.9003125 160.5115625 47.2303125 159.7890625 47.5703125 C156.65403134 48.66075812 154.20843068 48.72353893 150.9140625 48.5703125 C150.7284375 49.3540625 150.5428125 50.1378125 150.3515625 50.9453125 C146.55514098 60.51889721 138.48752925 70.854668 129.9140625 76.5703125 C126.4765625 77.0703125 126.4765625 77.0703125 122.9140625 76.5703125 C119.53367732 72.39715406 118.02515813 68.34803168 116.6640625 63.1953125 C116.32890625 61.95007813 115.99375 60.70484375 115.6484375 59.421875 C115.40609375 58.48085937 115.16375 57.53984375 114.9140625 56.5703125 C114.49447266 57.51390625 114.49447266 57.51390625 114.06640625 58.4765625 C110.73006592 65.59981001 106.63862849 73.54765624 98.9140625 76.5703125 C95.84289242 77.08397651 92.98101876 77.13409122 89.9140625 76.5703125 C86.58698472 73.49276555 85.08632006 70.65727908 84.7109375 66.109375 C84.59996987 59.21088723 85.47396736 53.14511241 87.2578125 46.48046875 C87.87845249 43.72822593 88.03816102 41.37804148 87.9140625 38.5703125 C78.87706774 42.51795047 74.52274685 53.93037679 70.9140625 62.5703125 C69.70775746 66.06569037 68.62901233 69.55860204 67.640625 73.12109375 C66.9140625 75.5703125 66.9140625 75.5703125 65.9140625 76.5703125 C60.0730029 76.94117343 60.0730029 76.94117343 57.9140625 76.5703125 C55.62392597 73.1351077 55.73563277 71.5849815 55.9140625 67.5703125 C55.2540625 67.5703125 54.5940625 67.5703125 53.9140625 67.5703125 C53.6871875 68.1478125 53.4603125 68.7253125 53.2265625 69.3203125 C51.24776713 72.71253313 48.40419308 74.82524721 44.9140625 76.5703125 C41.5299914 76.9830041 38.29101355 77.06756581 34.9140625 76.5703125 C32.4140625 74.2578125 32.4140625 74.2578125 30.9140625 71.5703125 C30.2540625 70.5803125 29.5940625 69.5903125 28.9140625 68.5703125 C28.1921875 69.4984375 27.4703125 70.4265625 26.7265625 71.3828125 C23.17937501 75.57404241 20.55526262 77.36190614 14.9765625 78.0703125 C11.32511648 77.89807448 8.8930812 76.85042959 6.16796875 74.28125 C3.82122371 71.07914929 2.86098451 67.38291954 1.9140625 63.5703125 C1.11355469 64.74787109 1.11355469 64.74787109 0.296875 65.94921875 C-5.46734018 74.07696161 -11.11019572 80.07136594 -20.5234375 84.0078125 C-30.78353327 85.62782762 -39.6433501 84.84576498 -48.3359375 78.8828125 C-55.37444367 73.24639919 -58.88498334 65.35729375 -60.0859375 56.5703125 C-60.67840003 46.81729385 -61.23216344 36.61662365 -57.0859375 27.5703125 C-56.68375 26.6834375 -56.2815625 25.7965625 -55.8671875 24.8828125 C-49.28350234 11.71544218 -38.91391906 1.67890917 -25.0859375 -3.4296875 C-16.72302173 -5.93856223 -7.2491601 -4.96852546 0 0 Z " fill="#F8FAFE" transform="translate(163.0859375,194.4296875)"/>
<path d="M0 0 C0 31.35 0 62.7 0 95 C-25 106 -25 106 -28 106 C-28.33 104.35 -28.66 102.7 -29 101 C-29.66 101 -30.32 101 -31 101 C-31.31453125 101.68707031 -31.6290625 102.37414062 -31.953125 103.08203125 C-32.38109375 103.98308594 -32.8090625 104.88414062 -33.25 105.8125 C-33.87648438 107.15248047 -33.87648438 107.15248047 -34.515625 108.51953125 C-36.09083088 111.15178318 -37.32051402 112.52005135 -40 114 C-40.99 113.67 -41.98 113.34 -43 113 C-43.86089447 102.68839735 -41.76142833 93.73697275 -39.19140625 83.8203125 C-38.18327691 79.87909158 -37.38364228 76.05255928 -37 72 C-37.33 71.67 -37.66 71.34 -38 71 C-41.49734228 71.38859359 -44.65788261 71.88596087 -48 73 C-49.20882096 75.00016466 -49.20882096 75.00016466 -50 77 C-50.61875 76.195625 -51.2375 75.39125 -51.875 74.5625 C-53.74164041 71.96125481 -53.74164041 71.96125481 -56 71 C-61.99887828 70.49162048 -66.20680978 71.06936565 -71 75 C-72.81435597 76.98077341 -74.52425154 79.02914534 -76.2421875 81.09375 C-78.91103679 83.98796878 -81.39939304 85.39973024 -85 87 C-87.7109375 87.09375 -87.7109375 87.09375 -90 87 C-89.7834375 86.33355469 -89.566875 85.66710937 -89.34375 84.98046875 C-87.36671037 78.43610144 -85.81998452 71.84871731 -87 65 C-88.54491932 62.80331784 -89.47315982 62.12727038 -92.0859375 61.49609375 C-96.37332048 61.38634845 -98.454389 61.62141278 -102.0625 64.125 C-105.58273676 69.23423252 -104.76977583 76.13999483 -104 82 C-102.74932933 85.28664619 -101.22203722 87.38898139 -98 89 C-98.59231856 93.28838637 -100.12025161 96.34929127 -102.3125 100.0625 C-102.90675781 101.08472656 -103.50101562 102.10695313 -104.11328125 103.16015625 C-105.89183911 105.83719882 -107.53211569 107.9458927 -110 110 C-110.99 110 -111.98 110 -113 110 C-116.54190672 101.67977292 -116.3482124 93.79285413 -116.1875 84.9375 C-116.17242256 83.48503995 -116.15873958 82.03256473 -116.14648438 80.58007812 C-116.11372861 77.05306543 -116.06211664 73.52663215 -116 70 C-122.15872726 70.73622463 -122.15872726 70.73622463 -127.00390625 74.20703125 C-128.14581657 77.40885823 -128.60033919 80.30452698 -128.9375 83.6875 C-130.19095848 93.58049873 -133.17917545 102.41433763 -140.5625 109.4375 C-141.7690625 110.2109375 -141.7690625 110.2109375 -143 111 C-144.485 110.505 -144.485 110.505 -146 110 C-146.37729316 102.2445294 -145.57715567 95.57007264 -143.67578125 88.0546875 C-142.43859782 82.46233236 -141.91778385 77.06441877 -145 72 C-147.86608129 70.56695936 -149.81300783 70.69355845 -153 71 C-160.6227707 74.7266879 -166.0121683 82.34955773 -171 89 C-170.67 83.39 -170.34 77.78 -170 72 C-156.92717073 65.76790368 -143.64512881 60.08850459 -130.3125 54.4375 C-127.93148177 53.42612638 -125.55054244 52.414567 -123.16967773 51.40283203 C-117.00459723 48.7840696 -110.83799568 46.16891377 -104.6706543 43.55548096 C-101.08169864 42.03462072 -97.492977 40.51320946 -93.90429688 38.99169922 C-68.62497724 28.27559121 -43.34280007 17.56533306 -18 7 C-17.04561035 6.60200195 -16.0912207 6.20400391 -15.10791016 5.79394531 C-12.61471976 4.75575158 -10.12032338 3.72055479 -7.625 2.6875 C-6.93962158 2.40269775 -6.25424316 2.11789551 -5.5480957 1.82446289 C-1.11844467 0 -1.11844467 0 0 0 Z " fill="#3E6DE0" transform="translate(407,151)"/>
<path d="M0 0 C0.09970521 5.63756289 0.17185967 11.2746 0.21972656 16.9128418 C0.23970419 18.82634434 0.26689599 20.73978692 0.30175781 22.65307617 C0.66328985 43.02115305 0.66328985 43.02115305 -4 52 C-4.43473633 52.86689453 -4.86947266 53.73378906 -5.31738281 54.62695312 C-12.43421295 68.1907941 -24.01895277 76.44276923 -38.29906559 81.06870842 C-41.89872373 81.97451516 -44.8754423 82.24666871 -48.57432556 82.24050903 C-49.85448547 82.24325836 -51.13464539 82.24600769 -52.45359802 82.24884033 C-53.85440159 82.24176389 -55.25520419 82.2344943 -56.65600586 82.22705078 C-58.14470411 82.22648608 -59.63340291 82.22680438 -61.12210083 82.22793579 C-65.14846664 82.22850799 -69.17471251 82.21677521 -73.20105052 82.20278788 C-77.41442804 82.19025837 -81.62780851 82.18910827 -85.84120178 82.18673706 C-93.81312933 82.18052881 -101.78500181 82.16412687 -109.75690514 82.14403808 C-118.83548433 82.12165868 -127.9140662 82.11068052 -136.99266613 82.10064721 C-155.6618086 82.07976005 -174.33089987 82.04459682 -193 82 C-190.12487022 79.12487022 -186.56188868 77.989859 -182.859375 76.45703125 C-182.01112152 76.10106873 -181.16286804 75.7451062 -180.28890991 75.37835693 C-178.42967479 74.59869183 -176.56951131 73.82123782 -174.70855713 73.04568481 C-169.58537098 70.91024004 -164.46913151 68.75823738 -159.3515625 66.609375 C-157.72630142 65.92779076 -157.72630142 65.92779076 -156.06820679 65.23243713 C-143.73347806 60.05683416 -131.4289842 54.81066953 -119.125 49.5625 C-116.83978761 48.58823832 -114.55454992 47.61403597 -112.26928711 46.63989258 C-108.8541797 45.18412668 -105.43908596 43.72832892 -102.02409363 42.27229309 C-94.46946189 39.05151447 -86.91312086 35.83477822 -79.35546875 32.62109375 C-78.34363525 32.19082886 -77.33180176 31.76056396 -76.28930664 31.31726074 C-74.28196269 30.46368265 -72.27461813 29.61010597 -70.26727295 28.75653076 C-51.25153955 20.67000284 -32.2491562 12.55289097 -13.26171875 4.40014648 C-12.18535156 3.93809814 -11.10898437 3.4760498 -10 3 C-9.38463379 2.72125031 -8.76926758 2.44250061 -8.13525391 2.15530396 C-5.23998203 0.85992363 -3.21041456 0 0 0 Z " fill="#6632EE" transform="translate(407,319)"/>
<path d="M0 0 C1.5479583 0.00056482 3.09591713 0.00024618 4.64387512 -0.00088501 C8.82719973 -0.00145677 13.01040869 0.01026881 17.19370651 0.02426291 C21.5725724 0.03679983 25.9514412 0.0379431 30.33032227 0.04031372 C38.61387605 0.0465198 46.89737678 0.06291879 55.18090725 0.0830127 C64.61500497 0.10539888 74.04910528 0.11637196 83.48322296 0.12640357 C102.8820745 0.14728581 122.28087673 0.18244479 141.6796875 0.22705078 C141.6796875 0.55705078 141.6796875 0.88705078 141.6796875 1.22705078 C140.60638184 1.17355469 139.53307617 1.12005859 138.42724609 1.06494141 C112.54250195 -0.04505147 92.85434104 3.13897022 69.61427307 14.4432373 C59.48284012 19.35987498 49.08953106 23.65358868 38.71066284 28.01580811 C32.93951402 30.44714986 27.18124882 32.90860358 21.421875 35.36767578 C19.12081831 36.34891302 16.81971167 37.33003313 14.51855469 38.31103516 C13.3865564 38.7937085 12.25455811 39.27638184 11.08825684 39.77368164 C2.35451604 43.49763387 -6.37952464 47.22087787 -15.11477661 50.94128418 C-18.02990027 52.18320733 -20.94452441 53.42629723 -23.85913086 54.66943359 C-28.19157778 56.51603848 -32.52662745 58.35635609 -36.86480713 60.18945312 C-38.52054645 60.88910187 -40.1757687 61.58997537 -41.83050537 62.29199219 C-44.20364596 63.29692458 -46.57977716 64.29439515 -48.95703125 65.28955078 C-49.6614888 65.58893555 -50.36594635 65.88832031 -51.0917511 66.19677734 C-54.00363112 67.40716345 -56.13286405 68.22705078 -59.3203125 68.22705078 C-59.40890209 64.62304451 -59.46122772 61.01932533 -59.5078125 57.41455078 C-59.53294922 56.40972656 -59.55808594 55.40490234 -59.58398438 54.36962891 C-59.7349506 38.7194635 -53.91949905 25.63851144 -43.3203125 14.22705078 C-30.82799224 2.54321054 -16.39848634 -0.08396229 0 0 Z " fill="#05BCCC" transform="translate(133.3203125,67.77294921875)"/>
<path d="M0 0 C0.90511253 11.99274097 -4.84283273 22.77523883 -12.33984375 31.82421875 C-21.05205217 41.20167656 -32.51554866 48.36866721 -45.61314392 49.24050903 C-46.8944368 49.23606781 -48.17572968 49.23162659 -49.49584961 49.22705078 C-50.56539886 49.22748886 -50.56539886 49.22748886 -51.65655518 49.22793579 C-53.9886131 49.22655419 -56.32034237 49.21104896 -58.65234375 49.1953125 C-60.27901536 49.1915782 -61.90568922 49.1887332 -63.53236389 49.18673706 C-67.79519966 49.17913346 -72.05789721 49.15951339 -76.32067871 49.1373291 C-80.6779595 49.11679986 -85.03526282 49.10772026 -89.39257812 49.09765625 C-97.92844855 49.07626415 -106.46420704 49.04216812 -115 49 C-112.67557834 47.45038556 -110.74728082 46.37131377 -108.22338867 45.28271484 C-107.46390427 44.9535054 -106.70441986 44.62429596 -105.92192078 44.28511047 C-105.09561661 43.93063339 -104.26931244 43.57615631 -103.41796875 43.2109375 C-102.54876297 42.83547287 -101.67955719 42.46000824 -100.78401184 42.07316589 C-97.91987018 40.83725582 -95.05376853 39.60596864 -92.1875 38.375 C-90.19202653 37.51561505 -88.19658415 36.65615789 -86.20117188 35.79663086 C-71.94074913 29.66116275 -57.64774348 23.60494155 -43.32983398 17.60498047 C-36.03464722 14.54702316 -28.74717239 11.4740854 -21.484375 8.33984375 C-20.81925903 8.05307266 -20.15414307 7.76630157 -19.46887207 7.47084045 C-16.37539722 6.13618369 -13.28405481 4.79701303 -10.1953125 3.45141602 C-9.13570313 2.99307373 -8.07609375 2.53473145 -6.984375 2.0625 C-6.06366211 1.66160156 -5.14294922 1.26070313 -4.19433594 0.84765625 C-2 0 -2 0 0 0 Z " fill="#6D28EF" transform="translate(407,352)"/>
<path d="M0 0 C-0.01047363 0.62455078 -0.02094727 1.24910156 -0.03173828 1.89257812 C-0.07368106 4.76167671 -0.09944653 7.63071048 -0.125 10.5 C-0.14175781 11.48226562 -0.15851563 12.46453125 -0.17578125 13.4765625 C-0.24260733 23.50047444 1.45059384 34.16333046 8.66015625 41.74609375 C10.43765558 43.26969857 10.43765558 43.26969857 13 45 C9.11187424 47.038263 5.06494872 48.70185821 1.0234375 50.40625 C-0.54957042 51.07400382 -2.12248431 51.7419792 -3.6953125 52.41015625 C-6.16768214 53.45911499 -8.64063856 54.50659579 -11.11523438 55.55029297 C-13.50838989 56.56040956 -15.8989025 57.57656954 -18.2890625 58.59375 C-19.03177399 58.90526001 -19.77448547 59.21677002 -20.53970337 59.53771973 C-24.59513979 61.26050207 -24.59513979 61.26050207 -28 64 C-28.37207354 66.71615864 -28.37207354 66.71615864 -28.4140625 69.8828125 C-28.45273438 71.04941406 -28.49140625 72.21601563 -28.53125 73.41796875 C-28.5621875 74.64128906 -28.593125 75.86460937 -28.625 77.125 C-28.66367188 78.35605469 -28.70234375 79.58710938 -28.7421875 80.85546875 C-28.8366999 83.90349376 -28.92225494 86.95150862 -29 90 C-29.33 90 -29.66 90 -30 90 C-30.02319818 80.71599429 -30.04095318 71.4319986 -30.05181217 62.1479702 C-30.05702465 57.83675485 -30.06409257 53.52555938 -30.07543945 49.21435547 C-30.08632649 45.05169098 -30.09228916 40.88904558 -30.09487724 36.72636795 C-30.09672101 35.14040451 -30.10032141 33.55444208 -30.10573006 31.96848679 C-30.11301771 29.74247757 -30.11398769 27.51654662 -30.11352539 25.29052734 C-30.115746 24.02477875 -30.11796661 22.75903015 -30.12025452 21.45492554 C-30.00614936 18.1766717 -29.78336907 15.18634773 -29 12 C-26.43969727 10.21728516 -26.43969727 10.21728516 -23.06640625 8.7890625 C-21.86048828 8.26699219 -20.65457031 7.74492187 -19.41210938 7.20703125 C-18.12898196 6.6795033 -16.84577792 6.1521617 -15.5625 5.625 C-14.28231727 5.07628089 -13.00300716 4.52552115 -11.72460938 3.97265625 C-2.4003172 0 -2.4003172 0 0 0 Z " fill="#2E83DB" transform="translate(104,229)"/>
<path d="M0 0 C2 0.6875 2 0.6875 4 2.6875 C5.5557777 12.83036242 2.26305282 23.22715757 -2.71875 31.9453125 C-4 33.6875 -4 33.6875 -7 35.6875 C-9.5625 35.5625 -9.5625 35.5625 -12 34.6875 C-14.83198544 30.23863706 -14.55824334 25.78147044 -14 20.6875 C-12.26843988 13.03321718 -9.48023168 6.40259875 -4 0.6875 C-2 -0.3125 -2 -0.3125 0 0 Z " fill="#3B7DDE" transform="translate(192,228.3125)"/>
<path d="M0 0 C2.97696163 5.95392325 1.22331762 14.19394093 -0.6875 20.25 C-2.51797224 25.15489217 -4.45993465 30.06421737 -8 34 C-10.625 35.1875 -10.625 35.1875 -13 35 C-15.53844009 33.18682851 -15.99489025 32.01532925 -17 29 C-17.4895787 18.64235067 -14.49856797 10.60802017 -9 2 C-5.5647952 -0.29013653 -4.014669 -0.17842973 0 0 Z " fill="#4B64E3" transform="translate(353,229)"/>
<path d="M0 0 C-0.52441253 11.85172313 -4.26152467 23.17867221 -11 33 C-13.015625 34.828125 -13.015625 34.828125 -15 36 C-17.75 35.6875 -17.75 35.6875 -20 35 C-20.21862659 28.10268361 -19.52334562 21.86297198 -18.0625 15.125 C-17.89943359 14.18914062 -17.73636719 13.25328125 -17.56835938 12.2890625 C-16.97193551 9.56702308 -16.40043801 7.41243544 -15 5 C-12.10918855 3.26611974 -9.28208005 2.63424532 -6 2 C-0.94736842 0 -0.94736842 0 0 0 Z " fill="#3D78DF" transform="translate(225,228)"/>
<path d="M0 0 C2.6875 2.1875 2.6875 2.1875 4 5 C4.00097656 7.47412109 4.00097656 7.47412109 3 10 C0.71230118 11.36106056 -1.24520417 12.29483342 -3.703125 13.2265625 C-4.37792908 13.50092133 -5.05273315 13.77528015 -5.74798584 14.05795288 C-7.90836848 14.93231036 -10.07822761 15.77937966 -12.25 16.625 C-14.40504312 17.48296841 -16.55775411 18.34644276 -18.70916748 19.21347046 C-20.0477792 19.75087382 -21.38887173 20.28215174 -22.73272705 20.80630493 C-26.38042198 22.24817736 -29.69898811 23.88039461 -33 26 C-30.16796752 14.95507333 -22.23072786 7.24219769 -13.0625 1 C-8.66158499 -0.43703347 -4.57400539 -0.83661295 0 0 Z " fill="#2891D8" transform="translate(154,197)"/>
<path d="M0 0 C-2.43378591 5.52373959 -6.84303503 8.49514072 -11.6875 11.875 C-16.73926077 13.59069234 -21.71489181 13.23090279 -27 13 C-27.33 12.34 -27.66 11.68 -28 11 C-24.3357646 9.42885366 -20.66956379 7.86239884 -17.00146484 6.30029297 C-15.75351727 5.76805615 -14.5061174 5.23453322 -13.25927734 4.69970703 C-11.46856372 3.93185131 -9.67571657 3.16897715 -7.8828125 2.40625 C-6.80402832 1.94541016 -5.72524414 1.48457031 -4.61376953 1.00976562 C-2 0 -2 0 0 0 Z " fill="#3A7ADE" transform="translate(158,257)"/>
<path d="M0 0 C0.99 0 1.98 0 3 0 C3.02725341 1.7290774 3.04650987 3.45828176 3.0625 5.1875 C3.07410156 6.15042969 3.08570313 7.11335937 3.09765625 8.10546875 C3.00486622 10.85576513 2.62111685 13.32479591 2 16 C1.34 16 0.68 16 0 16 C-2.25980539 11.48038922 -2.31983581 7.95745506 -2 3 C-1.34 2.01 -0.68 1.02 0 0 Z " fill="#4E7AE3" transform="translate(311,218)"/>
<path d="M0 0 C2 1 2 1 3.125 4.0625 C3.41375 5.031875 3.7025 6.00125 4 7 C2.06767179 7.86580287 0.12892806 8.71729941 -1.8125 9.5625 C-2.89144531 10.03816406 -3.97039062 10.51382812 -5.08203125 11.00390625 C-8 12 -8 12 -11 11 C-8.71552977 8.62766553 -6.36609958 6.44864593 -3.8125 4.375 C-0.98963873 2.30830705 -0.98963873 2.30830705 0 0 Z " fill="#5463E6" transform="translate(350,262)"/>
<path d="M0 0 C0.66 0.33 1.32 0.66 2 1 C-2.29 5.29 -6.58 9.58 -11 14 C-11 9.40845608 -8.09282279 7.18698368 -5 4 C-3.3719908 2.61973133 -1.71956118 1.26438322 0 0 Z " fill="#10AED0" transform="translate(96,77)"/>
<path d="" fill="#3780DB" transform="translate(0,0)"/>
</svg>
