<?xml version="1.0" encoding="UTF-8"?>
<svg version="1.1" xmlns="http://www.w3.org/2000/svg" width="288" height="282">
<path d="M0 0 C63.36 0 126.72 0 192 0 C190.8512151 19.52934333 190.8512151 19.52934333 190.15551758 27.47363281 C190.07711388 28.39068339 189.99871017 29.30773397 189.9179306 30.25257397 C189.66229184 33.23628126 189.40344429 36.21970021 189.14453125 39.203125 C188.96018901 41.34699362 188.77604587 43.49087936 188.59208679 45.63478088 C188.10256503 51.33277813 187.61020231 57.03052625 187.11709595 62.72821426 C186.60670036 68.62948744 186.09842691 74.53094345 185.58984375 80.43237305 C184.87666547 88.70490016 184.16240557 96.97733281 183.44695091 105.24966335 C182.47442323 116.49483813 181.50680115 127.74041608 180.54533386 138.98654175 C180.05678099 144.70085988 179.56600733 150.41498623 179.07430363 156.12903404 C178.7567539 159.82006871 178.44019825 163.51118204 178.12612915 167.20251465 C177.78555953 171.20433185 177.43993681 175.2056961 177.09375 179.20703125 C176.99623947 180.36231827 176.89872894 181.51760529 176.79826355 182.707901 C176.70692642 183.75409103 176.61558929 184.80028107 176.52148438 185.87817383 C176.44426147 186.77836746 176.36703857 187.6785611 176.28747559 188.60603333 C176.02253519 190.81233716 175.59493746 192.86176384 175 195 C172.9519083 195.58883871 170.90370559 196.17729135 168.85546875 196.765625 C168.19531769 196.95540924 167.53516663 197.14519348 166.85501099 197.34072876 C163.07464506 198.42621165 159.29232066 199.50416284 155.5065918 200.57080078 C147.48826688 202.83428993 139.489552 205.13801961 131.52842712 207.59631348 C127.72750368 208.76437676 123.91733564 209.9003086 120.10562134 211.03259277 C118.26300108 211.58832825 116.42455621 212.15812723 114.59091187 212.74279785 C103.22437489 216.35787985 94.93859324 217.80111692 83.4225769 213.80065918 C79.48519632 212.49935894 75.47891257 211.45969587 71.47633362 210.37921143 C67.9415316 209.42412861 64.41354471 208.44699207 60.88671875 207.46289062 C56.02283394 206.1061919 51.15832432 204.75180604 46.29296875 203.40039062 C43.93744566 202.74498692 41.58197505 202.08939458 39.2265625 201.43359375 C38.14718414 201.13351913 37.06780579 200.83344452 35.95571899 200.52427673 C29.61458969 198.75411283 23.29927579 196.91357957 17 195 C15.52082731 183.81748522 14.35990228 172.63574141 13.39599609 161.39794922 C13.24817137 159.70089054 13.10008716 158.00385444 12.95176697 156.30683899 C12.55446506 151.75198397 12.16092999 147.19681114 11.76827574 142.6415534 C11.35510811 137.85430623 10.93886608 133.06732618 10.52310181 128.28030396 C9.82672642 120.2567159 9.13283337 112.23291609 8.44042969 104.20898438 C7.64058742 94.94037713 6.83669672 85.67212763 6.03069055 76.40405452 C5.25303415 67.46081972 4.47829076 58.51733484 3.70485306 49.57373428 C3.37647102 45.7771486 3.04705875 41.98065441 2.71680832 38.1842308 C2.3286644 33.72082206 1.94306908 29.25720027 1.55943489 24.79340172 C1.41842602 23.15747254 1.27654251 21.52161847 1.13371468 19.88584709 C0.93875123 17.65129996 0.74697818 15.41650085 0.55599976 13.18161011 C0.44798223 11.93216047 0.33996471 10.68271084 0.22867393 9.39539909 C0.01816734 6.26975252 0 3.13272717 0 0 Z M37 41 C37.45882205 52.5687974 37.45882205 52.5687974 39 64 C54.84 64 70.68 64 87 64 C87 64.66 87 65.32 87 66 C86.26211243 66.12511963 85.52422485 66.25023926 84.76397705 66.37915039 C82.15091682 66.96610079 80.15787534 67.7366068 77.77636719 68.93359375 C76.97914246 69.33070557 76.18191772 69.72781738 75.36053467 70.13696289 C74.51452698 70.56614014 73.66851929 70.99531738 72.796875 71.4375 C71.91847961 71.87763428 71.04008423 72.31776855 70.1350708 72.77124023 C68.28459956 73.69982987 66.43556682 74.63129095 64.58789062 75.56542969 C61.74919926 77.00040478 58.90628957 78.4267218 56.0625 79.8515625 C54.26537377 80.75470859 52.46849014 81.65833763 50.671875 82.5625 C49.81777039 82.99167725 48.96366577 83.42085449 48.0836792 83.86303711 C47.29906311 84.26014893 46.51444702 84.65726074 45.70605469 85.06640625 C45.01276062 85.41646729 44.31946655 85.76652832 43.60516357 86.12719727 C42.00825666 86.89726681 42.00825666 86.89726681 41 88 C41.06553143 90.72253295 41.19337962 93.40977534 41.375 96.125 C41.41882813 96.87265625 41.46265625 97.6203125 41.5078125 98.390625 C41.79701097 103.00173391 42.34200445 107.39403116 43 112 C70.06 112 97.12 112 125 112 C124.34 119.59 123.68 127.18 123 135 C123 137.97 123 140.94 123 144 C121.659375 144.2475 120.31875 144.495 118.9375 144.75 C113.08427422 145.89067131 107.41414677 147.57227768 101.7109375 149.29296875 C94.34965211 150.69548734 87.71492737 148.51603486 80.6875 146.4375 C79.10910927 145.97431824 77.52971699 145.51453227 75.94921875 145.05859375 C75.26174561 144.85548584 74.57427246 144.65237793 73.8659668 144.44311523 C71.83317185 143.88447659 71.83317185 143.88447659 69 144 C69.03255208 141.98177083 69.06510417 139.96354167 69.09765625 137.9453125 C68.95414796 133.61710254 68.43090965 129.30909654 68 125 C60.08 125 52.16 125 44 125 C44.99 136.55 45.98 148.1 47 160 C55.20606726 163.07727522 63.4058774 165.70348758 71.81445312 168.14575195 C73.59510624 168.67072087 75.37133342 169.21095895 77.14257812 169.7668457 C88.8844128 173.44217984 97.30748449 174.80846991 109.00250244 170.67721558 C112.52935653 169.48149921 116.14267012 168.60831558 119.74609375 167.67578125 C121.19398951 167.28553357 122.64126121 166.89296295 124.08789062 166.49804688 C127.04502237 165.69143504 130.00346645 164.88995527 132.96289062 164.09179688 C134.39071446 163.70345378 135.81845242 163.31479476 137.24609375 162.92578125 C137.91257431 162.74662674 138.57905487 162.56747223 139.26573181 162.38288879 C142.39424421 161.69515223 142.39424421 161.69515223 145 160 C145.27199391 157.93923082 145.48054584 155.87006345 145.66430664 153.79956055 C145.72297409 153.15235046 145.78164154 152.50514038 145.84208679 151.83831787 C146.03583546 149.68815264 146.2230754 147.5374736 146.41015625 145.38671875 C146.54290562 143.89554337 146.67600236 142.40439888 146.80943298 140.9132843 C147.08869211 137.78202675 147.36495732 134.6505245 147.63891602 131.51879883 C147.98994633 127.50676281 148.3464199 123.49523527 148.7049036 119.48385906 C148.98007207 116.40162843 149.25330015 113.31922842 149.52584648 110.23676491 C149.65664881 108.75797032 149.78782755 107.27920898 149.91938972 105.8004818 C150.10311112 103.73001747 150.28445623 101.65935893 150.46508789 99.58862305 C150.56866104 98.4102739 150.67223419 97.23192474 150.77894592 96.01786804 C150.9499221 93.68367199 151 91.34044955 151 89 C144.77035385 88.97470049 138.54072088 88.95715451 132.31103516 88.94506836 C130.19058741 88.94003128 128.07014315 88.93320141 125.94970703 88.92456055 C122.90656678 88.91246766 119.86347234 88.90676553 116.8203125 88.90234375 C115.86818878 88.89718246 114.91606506 88.89202118 113.93508911 88.88670349 C112.61394608 88.88659019 112.61394608 88.88659019 111.26611328 88.88647461 C110.48889923 88.884254 109.71168518 88.88203339 108.91091919 88.87974548 C106.91348428 88.88069314 106.91348428 88.88069314 105 90 C106.32552215 87.3489557 107.61111078 87.06172855 110.28515625 85.8203125 C111.1975708 85.39298828 112.10998535 84.96566406 113.05004883 84.52539062 C114.04415771 84.06326172 115.0382666 83.60113281 116.0625 83.125 C117.07787842 82.63451172 118.09325684 82.14402344 119.1394043 81.63867188 C124.63000986 78.9919486 130.12966126 76.51909136 135.796875 74.2734375 C146.49840754 70.40061644 146.49840754 70.40061644 154.23193359 62.69580078 C155.62045199 57.84780157 155.69401415 53.11609791 155.19726562 48.12133789 C154.97738914 45.75684931 155 43.37468985 155 41 C116.06 41 77.12 41 37 41 Z " fill="#006DBA" transform="translate(48,32)"/>
<path d="M0 0 C25.08 0 50.16 0 76 0 C76 12.3751352 76 12.3751352 75.51319885 17.81169128 C75.40526001 19.0437178 75.29732117 20.27574432 75.18611145 21.54510498 C75.06612289 22.85819641 74.94613434 24.17128784 74.82250977 25.52416992 C74.69564225 26.95118101 74.56919982 28.37822994 74.44314575 29.80531311 C74.10244672 33.64845442 73.75575976 37.49103361 73.40785336 41.33352828 C73.04329292 45.37067928 72.68408116 49.40830645 72.32420349 53.44587708 C71.7196212 60.22031517 71.11142826 66.99442096 70.50073242 73.76831055 C69.71835062 82.44673177 68.94177902 91.12566248 68.16709995 99.80477428 C67.49877785 107.29199712 66.82798175 114.778998 66.15669131 122.26595521 C65.94201209 124.66120914 65.7276318 127.0564897 65.51327705 129.45177269 C65.17571127 133.22189524 64.83660291 136.99187616 64.49632645 140.76175499 C64.37209905 142.14032238 64.2483359 143.51893171 64.12508583 144.89758682 C63.52420427 151.61516097 62.89730956 158.31500287 62 165 C50.80946228 168.27606555 39.60903775 171.40811923 28.27832031 174.16357422 C21.91236865 175.72778673 15.63377582 177.51843603 9.37792969 179.47680664 C6.04421082 180.50012129 3.53314909 181 0 181 C0 172.75 0 164.5 0 156 C9 152.625 9 152.625 12.58007812 151.6496582 C13.38030396 151.42965652 14.18052979 151.20965485 15.00500488 150.98298645 C15.83866577 150.75785873 16.67232666 150.53273102 17.53125 150.30078125 C18.84603333 149.94091377 18.84603333 149.94091377 20.18737793 149.57377625 C22.95730244 148.8164861 25.72861088 148.06441046 28.5 147.3125 C30.39071932 146.79656948 32.28134529 146.28029673 34.171875 145.76367188 C38.78018056 144.50515673 43.38973375 143.25131262 48 142 C48.07294785 141.16950134 48.14589569 140.33900269 48.22105408 139.4833374 C48.90921003 131.65530831 49.60043209 123.82755732 50.2950964 116.000103 C50.65211832 111.9759644 51.00795534 107.95172836 51.36108398 103.92724609 C51.7019386 100.04314744 52.04590628 96.1593359 52.39203072 92.27570343 C52.52351262 90.79425093 52.65387403 89.31269854 52.78309441 87.83104706 C52.96432537 85.7552529 53.14954304 83.67985017 53.33569336 81.60449219 C53.4400621 80.42312683 53.54443085 79.24176147 53.65196228 78.02459717 C54 75 54 75 55 71 C39.82 71.33 24.64 71.66 9 72 C10 69 10 69 11.87573242 67.82421875 C12.69404541 67.44910156 13.5123584 67.07398437 14.35546875 66.6875 C15.2781958 66.25671143 16.20092285 65.82592285 17.15161133 65.38208008 C18.15345459 64.92599365 19.15529785 64.46990723 20.1875 64 C22.27956768 63.02671865 24.37068892 62.05140074 26.4609375 61.07421875 C27.53827148 60.57196777 28.61560547 60.0697168 29.72558594 59.55224609 C35.93369786 56.60927147 42.04964341 53.48034971 48.16674805 50.35351562 C49.035979 49.91330078 49.90520996 49.47308594 50.80078125 49.01953125 C51.56559814 48.62870361 52.33041504 48.23787598 53.1184082 47.83520508 C55 47 55 47 57 47 C57.09087891 45.02966797 57.09087891 45.02966797 57.18359375 43.01953125 C57.26803256 41.28384459 57.35267888 39.54816802 57.4375 37.8125 C57.47681641 36.94818359 57.51613281 36.08386719 57.55664062 35.19335938 C57.61948242 33.93168945 57.61948242 33.93168945 57.68359375 32.64453125 C57.72025146 31.87471924 57.75690918 31.10490723 57.79467773 30.31176758 C58.01320665 27.85130346 58.51556383 25.42218086 59 23 C39.53 23 20.06 23 0 23 C0 15.41 0 7.82 0 0 Z " fill="#0097D8" transform="translate(144,50)"/>
<path d="M0 0 C9.57 0 19.14 0 29 0 C29 11.25 29 11.25 28.5625 15.7890625 C28.47226563 16.74941406 28.38203125 17.70976562 28.2890625 18.69921875 C28.14597656 20.14748047 28.14597656 20.14748047 28 21.625 C27.85691406 23.13126953 27.85691406 23.13126953 27.7109375 24.66796875 C27.47813335 27.11241236 27.2410936 29.5563625 27 32 C22.87617911 33.17086263 18.75075687 34.33597927 14.625 35.5 C13.449375 35.83386719 12.27375 36.16773438 11.0625 36.51171875 C9.94101563 36.82753906 8.81953125 37.14335937 7.6640625 37.46875 C6.62717285 37.76201172 5.5902832 38.05527344 4.52197266 38.35742188 C2 39 2 39 0 39 C0 26.13 0 13.26 0 0 Z " fill="#0097D8" transform="translate(144,144)"/>
</svg>
