<?xml version="1.0" encoding="UTF-8"?>
<svg version="1.1" xmlns="http://www.w3.org/2000/svg" width="480" height="470">
<path d="M0 0 C1.74727157 -0.00599339 3.49454051 -0.01280079 5.24180603 -0.02035522 C9.96535947 -0.03794386 14.68884034 -0.04270769 19.41242337 -0.0439868 C22.37184406 -0.04541346 25.3312466 -0.04969287 28.29066277 -0.05498123 C38.63909948 -0.07346071 48.98748484 -0.0816548 59.3359375 -0.08007812 C68.94254766 -0.07887858 78.54893249 -0.09994961 88.15548569 -0.13156545 C96.43445141 -0.15782927 104.71334401 -0.16844114 112.992351 -0.16716731 C117.92300125 -0.16666047 122.85345122 -0.17218795 127.78405952 -0.19352341 C132.42913983 -0.21307595 137.07383234 -0.21291565 141.71892738 -0.19849014 C143.40982387 -0.19642157 145.10074573 -0.2009842 146.79159927 -0.21321106 C173.66759966 -0.39474109 197.3408192 8.66347224 216.79858398 27.45458984 C229.39905644 40.16006624 238.05865751 54.9949633 242.61108398 72.29052734 C242.78343378 72.93188094 242.95578358 73.57323454 243.13335609 74.23402309 C245.09832468 82.58738496 244.90753697 90.97220554 244.90161133 99.49584961 C244.90760489 101.22341703 244.91441233 102.95098179 244.92196655 104.67854309 C244.93955345 109.34837941 244.94431895 114.01814231 244.94559813 118.68800855 C244.94702489 121.61392738 244.9513045 124.53982786 244.95659256 127.46574211 C244.97507151 137.69746956 244.9832662 147.92914508 244.98168945 158.16088867 C244.98048994 167.65843677 245.00156043 177.15575693 245.03317678 186.65324742 C245.05944264 194.83879577 245.07005239 203.02427017 245.06877863 211.20986027 C245.06827185 216.0846201 245.07379611 220.95917734 245.09513474 225.83389473 C245.11469076 230.42644678 245.11452469 235.01860665 245.10010147 239.61117363 C245.09803332 241.2827195 245.10259295 242.95429105 245.11482239 244.62579346 C245.29801312 271.4321847 236.17962116 295.08085651 217.44702148 314.47802734 C204.74154509 327.0784998 189.90664803 335.73810087 172.61108398 340.29052734 C171.97186036 340.46287714 171.33263674 340.63522694 170.6740427 340.81279945 C162.26331495 342.79576235 153.805311 342.5869528 145.22216797 342.58105469 C143.4748964 342.58704808 141.72762746 342.59385547 139.98036194 342.60140991 C135.25680849 342.61899854 130.53332763 342.62376238 125.8097446 342.62504148 C122.85032391 342.62646815 119.89092136 342.63074756 116.9315052 342.63603592 C106.58306849 342.6545154 96.23468313 342.66270949 85.88623047 342.66113281 C76.27962031 342.65993327 66.67323548 342.6810043 57.06668228 342.71262014 C48.78771656 342.73888395 40.50882396 342.74949583 32.22981697 342.74822199 C27.29916672 342.74771515 22.36871675 342.75324264 17.43810844 342.77457809 C12.79302814 342.79413064 8.14833562 342.79397033 3.50324059 342.77954483 C1.8123441 342.77747626 0.12142224 342.78203889 -1.5694313 342.79426575 C-28.44543169 342.97579577 -52.11865123 333.91758244 -71.57641602 315.12646484 C-84.17688847 302.42098845 -92.83648954 287.58609139 -97.38891602 270.29052734 C-97.64744071 269.32849695 -97.64744071 269.32849695 -97.91118813 268.34703159 C-99.87615671 259.99366973 -99.685369 251.60884915 -99.67944336 243.08520508 C-99.68543693 241.35763766 -99.69224436 239.6300729 -99.69979858 237.9025116 C-99.71738548 233.23267528 -99.72215098 228.56291238 -99.72343016 223.89304614 C-99.72485693 220.96712731 -99.72913653 218.04122683 -99.73442459 215.11531258 C-99.75290354 204.88358512 -99.76109824 194.6519096 -99.75952148 184.42016602 C-99.75832197 174.92261792 -99.77939246 165.42529776 -99.81100881 155.92780727 C-99.83727467 147.74225892 -99.84788442 139.55678452 -99.84661067 131.37119442 C-99.84610388 126.49643459 -99.85162814 121.62187735 -99.87296677 116.74715996 C-99.89252279 112.1546079 -99.89235672 107.56244804 -99.8779335 102.96988106 C-99.87586535 101.29833519 -99.88042498 99.62676364 -99.89265442 97.95526123 C-100.07584515 71.14886999 -90.95745319 47.50019818 -72.22485352 28.10302734 C-59.51937712 15.50255489 -44.68448006 6.84295382 -27.38891602 2.29052734 C-26.74969239 2.11817755 -26.11046877 1.94582775 -25.45187473 1.76825523 C-17.04114698 -0.21470766 -8.58314303 -0.00589811 0 0 Z " fill="#1E1E1E" transform="translate(167.388916015625,63.70947265625)"/>
<path d="M0 0 C0.85715607 0.00141495 1.71431213 0.0028299 2.59744263 0.00428772 C5.3176024 0.00985603 8.03767788 0.02240261 10.7578125 0.03515625 C12.60937381 0.04017535 14.46093641 0.04473754 16.3125 0.04882812 C20.83599559 0.0589614 25.35931041 0.07854286 29.8828125 0.09765625 C30.2128125 9.00765625 30.5428125 17.91765625 30.8828125 27.09765625 C32.2028125 23.79765625 33.5228125 20.49765625 34.8828125 17.09765625 C39.85285759 9.50151747 47.28137698 3.96480142 55.8828125 1.09765625 C67.60212913 -0.13406049 77.95519523 0.18141622 87.8828125 7.09765625 C88.49125 7.49210938 89.0996875 7.8865625 89.7265625 8.29296875 C96.56506108 13.28228149 101.33262023 21.87266919 102.8828125 30.09765625 C104.00485137 40.98558894 102.11847493 50.02019791 95.6328125 58.91015625 C88.96351201 66.83968549 80.75123163 72.36442632 70.296875 73.48046875 C58.82072659 73.82964162 50.78237506 71.93288122 42.0078125 64.41015625 C36.43408438 59.01956491 32.69403031 53.64734697 30.8828125 46.09765625 C30.87916687 46.95019485 30.87552124 47.80273346 30.87176514 48.68110657 C30.83373229 56.75707148 30.77670774 64.83263881 30.69890976 72.90832233 C30.65957764 77.05909506 30.62731991 81.20966016 30.61181641 85.3605957 C30.59655488 89.37442827 30.56194421 93.38768951 30.51450348 97.4012661 C30.49978671 98.92443025 30.49177712 100.44767602 30.49092865 101.97091103 C30.47545589 115.83367813 28.16663025 126.69689049 18.22265625 136.78125 C9.00261824 145.20319816 0.06093335 146.61465195 -12.1171875 146.09765625 C-21.20364006 145.35938198 -28.32788677 140.38761755 -34.4296875 133.78515625 C-41.51869541 124.86347868 -44.11759674 115.34863548 -43.1171875 104.09765625 C-41.34674217 95.3469201 -37.51750114 88.35943497 -31.1171875 82.09765625 C-30.4571875 82.09765625 -29.7971875 82.09765625 -29.1171875 82.09765625 C-29.1171875 81.43765625 -29.1171875 80.77765625 -29.1171875 80.09765625 C-24.4971875 77.78765625 -19.8771875 75.47765625 -15.1171875 73.09765625 C-17.2828125 72.08703125 -19.4484375 71.07640625 -21.6796875 70.03515625 C-32.38275243 64.78814591 -37.96841276 57.89462227 -42.4296875 46.84765625 C-44.64673061 34.75469386 -42.71797261 25.66393256 -36.3046875 15.34765625 C-30.16149081 6.68299823 -22.91103319 2.71975907 -12.51538086 0.55615234 C-8.31674282 -0.01034254 -4.230718 -0.02656086 0 0 Z " fill="#A158FD" transform="translate(210.1171875,199.90234375)"/>
<path d="M0 0 C1.14042 -0.0098568 1.14042 -0.0098568 2.30387878 -0.01991272 C4.80602135 -0.03952995 7.30810412 -0.05128474 9.81030273 -0.0612793 C11.10161763 -0.06739259 11.10161763 -0.06739259 12.4190197 -0.07362938 C16.97921376 -0.09444473 21.53937818 -0.10876382 26.09960938 -0.11816406 C30.77743825 -0.12919596 35.45478723 -0.16357155 40.13244724 -0.20333576 C43.75732728 -0.22965495 47.38209577 -0.23786955 51.00706291 -0.24144554 C52.72961593 -0.24627507 54.45216521 -0.2577834 56.17462349 -0.27648354 C69.87458931 -0.41593127 82.58288745 0.46170201 93.18139648 10.17700195 C94.08889648 11.00200195 94.99639648 11.82700195 95.93139648 12.67700195 C103.07360163 20.61278545 105.79544492 28.52675707 105.45874023 39.1262207 C104.43174054 50.4232174 100.04372357 57.89240622 91.74389648 65.48950195 C84.30679481 71.51958439 77.25513998 73.32195123 67.82373047 73.35400391 C66.98250137 73.3605751 66.14127228 73.3671463 65.27455139 73.37391663 C62.49219669 73.39361482 59.70989598 73.40530699 56.92749023 73.4152832 C55.49728892 73.42139649 55.49728892 73.42139649 54.03819466 73.42763329 C48.98754215 73.44848325 43.93691668 73.46278734 38.88623047 73.47216797 C33.69026544 73.48320576 28.49473179 73.51757839 23.29891872 73.55733967 C19.28637441 73.58359375 15.2739313 73.59186779 11.26130867 73.59544945 C9.34731204 73.60029587 7.43331933 73.61185383 5.51940727 73.63048744 C-8.88456504 73.76196096 -19.82828098 73.05369405 -30.65844727 62.5324707 C-38.34342941 54.15264387 -41.48073054 44.5507019 -41.17407227 33.2043457 C-40.3138052 25.87789538 -37.46661751 18.90955255 -32.81860352 13.17700195 C-32.15860352 13.17700195 -31.49860352 13.17700195 -30.81860352 13.17700195 C-30.58786133 12.58145508 -30.35711914 11.9859082 -30.11938477 11.37231445 C-28.47726371 8.60092696 -26.78845649 7.64549346 -24.00610352 6.05200195 C-23.1540332 5.55442383 -22.30196289 5.0568457 -21.42407227 4.54418945 C-14.38216266 0.84903449 -7.8955723 0.03006872 0 0 Z " fill="#F14D1D" transform="translate(207.818603515625,126.822998046875)"/>
<path d="M0 0 C10.5496875 -0.12375 10.5496875 -0.12375 21.3125 -0.25 C24.607948 -0.30462402 24.607948 -0.30462402 27.9699707 -0.36035156 C41.79903583 -0.49596934 51.98818733 0.55940467 62.83984375 9.86328125 C69.72751536 16.67622225 73.08908028 25.25317981 73.375 34.875 C73.00163811 46.62843239 69.49553526 54.4311517 61.26953125 62.75 C55.09211515 68.40438544 47.97611847 72.13786241 39.50683594 72.11352539 C38.61399902 72.11340454 37.72116211 72.11328369 36.80126953 72.11315918 C35.40690674 72.10548523 35.40690674 72.10548523 33.984375 72.09765625 C33.12344238 72.09664917 32.26250977 72.09564209 31.37548828 72.09460449 C28.16697859 72.08938212 24.95848792 72.07542085 21.75 72.0625 C14.5725 72.041875 7.395 72.02125 0 72 C0 48.24 0 24.48 0 0 Z " fill="#FE7161" transform="translate(240,128)"/>
<path d="M0 0 C0.92515915 0.00141495 1.8503183 0.0028299 2.80351257 0.00428772 C5.74794802 0.0098691 8.69230642 0.0224182 11.63671875 0.03515625 C13.63736869 0.04017366 15.63801983 0.04473614 17.63867188 0.04882812 C22.53388369 0.05983244 27.42903817 0.07708427 32.32421875 0.09765625 C32.42386432 6.02005226 32.49605139 11.94194919 32.54394531 17.86499023 C32.56393268 19.87549349 32.59113201 21.88593958 32.62597656 23.89624023 C32.87266406 38.50521875 32.70829688 50.76730721 22.32421875 62.09765625 C16.31885749 68.18779908 9.09809461 72.76529124 0.40625 73.265625 C-12.61290946 73.34339776 -20.70110539 71.51514952 -30.46484375 62.43359375 C-37.91090591 54.37657264 -41.10539332 44.95619101 -40.9453125 34.12890625 C-40.06133624 24.18737619 -35.78544888 16.05343497 -28.67578125 9.09765625 C-28.01578125 9.09765625 -27.35578125 9.09765625 -26.67578125 9.09765625 C-26.67578125 8.43765625 -26.67578125 7.77765625 -26.67578125 7.09765625 C-24.7838565 6.11095866 -22.88706147 5.13359605 -20.98828125 4.16015625 C-19.93253906 3.61488281 -18.87679687 3.06960938 -17.7890625 2.5078125 C-11.89709412 -0.16094608 -6.35676183 -0.0367447 0 0 Z " fill="#03CF82" transform="translate(207.67578125,272.90234375)"/>
<path d="M0 0 C1.30831787 0.00930542 1.30831787 0.00930542 2.64306641 0.01879883 C10.23380127 0.26854034 15.92172949 2.25984655 22.1875 6.625 C22.7959375 7.01945313 23.404375 7.41390625 24.03125 7.8203125 C30.86974858 12.80962524 35.63730773 21.40001294 37.1875 29.625 C38.30953887 40.51293269 36.42316243 49.54754166 29.9375 58.4375 C23.26819951 66.36702924 15.05591913 71.89177007 4.6015625 73.0078125 C-6.87458591 73.35698537 -14.91293744 71.46022497 -23.6875 63.9375 C-32.06999344 55.78220681 -35.68920372 47.30873406 -36.125 35.6875 C-35.85578928 25.45749278 -31.91231154 17.06910261 -24.9609375 9.6484375 C-17.62995626 2.78476981 -10.00770774 -0.12905033 0 0 Z " fill="#1BBBFC" transform="translate(275.8125,200.375)"/>
<path d="M0 0 C0.33 1.32 0.66 2.64 1 4 C-2.3 3.34 -5.6 2.68 -9 2 C-5.23312136 0.11656068 -3.97041037 -0.22057835 0 0 Z " fill="#1B2D30" transform="translate(289,199)"/>
</svg>
