<?xml version="1.0" encoding="UTF-8"?>
<svg version="1.1" xmlns="http://www.w3.org/2000/svg" width="480" height="470">
<path d="M0 0 C6.83459046 4.43275412 12.33991508 10.59010772 18.04886818 16.34949493 C19.53870889 17.83419164 21.02961852 19.31781637 22.52150917 20.80045319 C26.55342154 24.81390615 30.56951284 28.84284729 34.58233857 32.87537289 C38.79223795 37.10170333 43.01477448 41.31537626 47.23543739 45.53095245 C54.31945078 52.61045015 61.39322368 59.70005604 68.46097755 66.795784 C76.62275199 74.98961384 84.80044668 83.16728497 92.9868806 91.33647227 C100.87492335 99.20863106 108.75159848 107.09207036 116.62316895 114.98069763 C119.96745716 118.33184353 123.31564244 121.67902228 126.66705704 125.02304077 C130.61531014 128.963612 134.55348315 132.91399311 138.48421097 136.87204361 C139.92511085 138.31980809 141.36938669 139.76422193 142.8173275 141.20494461 C144.79942855 143.17830344 146.76870298 145.16366402 148.73534584 147.15241241 C149.30538458 147.71421038 149.87542331 148.27600835 150.46273595 148.8548305 C155.25366398 153.74501263 159.33957125 159.38325735 160.66874123 166.1942215 C160.38940334 178.14002397 155.45675328 184.29040702 147.47733498 192.65906525 C145.09544766 194.91880449 142.60216031 196.92170498 140.03983498 198.97156525 C138.35220646 200.61700305 136.68580008 202.28445101 135.03983498 203.97156525 C132.52892701 206.48247321 130.01907473 208.99181914 127.47733498 211.47156525 C125.03086605 213.89920228 125.03086605 213.89920228 123.03983498 216.47156525 C119.48878173 220.91038181 115.46040311 224.43511074 111.03983498 227.97156525 C109.35220646 229.61700305 107.68580008 231.28445101 106.03983498 232.97156525 C103.52892701 235.48247321 101.01907473 237.99181914 98.47733498 240.47156525 C96.03086605 242.89920228 96.03086605 242.89920228 94.03983498 245.47156525 C90.48878173 249.91038181 86.46040311 253.43511074 82.03983498 256.97156525 C80.35220646 258.61700305 78.68580008 260.28445101 77.03983498 261.97156525 C74.52892701 264.48247321 72.01907473 266.99181914 69.47733498 269.47156525 C67.03086605 271.89920228 67.03086605 271.89920228 65.03983498 274.47156525 C61.48878173 278.91038181 57.46040311 282.43511074 53.03983498 285.97156525 C51.35220646 287.61700305 49.68580008 289.28445101 48.03983498 290.97156525 C47.19420998 291.79656525 46.34858498 292.62156525 45.47733498 293.47156525 C43.03086605 295.89920228 43.03086605 295.89920228 41.03983498 298.47156525 C37.48878173 302.91038181 33.46040311 306.43511074 29.03983498 309.97156525 C27.35220646 311.61700305 25.68580008 313.28445101 24.03983498 314.97156525 C21.52892701 317.48247321 19.01907473 319.99181914 16.47733498 322.47156525 C14.03086605 324.89920228 14.03086605 324.89920228 12.03983498 327.47156525 C6.92788543 333.86150218 0.18201331 340.2561701 -8.30782127 341.24500275 C-9.20371971 341.27851837 -10.09961815 341.312034 -11.02266502 341.34656525 C-11.90051659 341.39554962 -12.77836815 341.444534 -13.68282127 341.49500275 C-25.85644423 339.5507054 -33.71948148 329.91623208 -41.96919823 321.59363556 C-43.45903894 320.10893886 -44.94994857 318.62531413 -46.44183922 317.14267731 C-50.47375158 313.12922434 -54.48984289 309.10028321 -58.50266862 305.06775761 C-62.71256799 300.84142717 -66.93510453 296.62775423 -71.15576744 292.41217804 C-78.23978083 285.33268034 -85.31355373 278.24307445 -92.3813076 271.1473465 C-100.54308204 262.95351665 -108.72077673 254.77584552 -116.90721065 246.60665822 C-124.7952534 238.73449944 -132.67192852 230.85106013 -140.54349899 222.96243286 C-143.88778721 219.61128696 -147.23597249 216.26410822 -150.58738708 212.92008972 C-154.53564019 208.97951849 -158.4738132 205.02913738 -162.40454102 201.07108688 C-163.8454409 199.62332241 -165.28971673 198.17890856 -166.73765755 196.73818588 C-168.7197586 194.76482705 -170.68903303 192.77946647 -172.65567589 190.79071808 C-173.22571462 190.22892011 -173.79575336 189.66712214 -174.383066 189.08829999 C-179.17399402 184.19811786 -183.2599013 178.55987314 -184.58907127 171.748909 C-184.30973339 159.80310652 -179.37708333 153.65272347 -171.39766502 145.28406525 C-169.01577771 143.024326 -166.52249036 141.02142551 -163.96016502 138.97156525 C-162.27253651 137.32612745 -160.60613013 135.65867948 -158.96016502 133.97156525 C-156.44925706 131.46065728 -153.93940478 128.95131135 -151.39766502 126.47156525 C-148.95119609 124.04392821 -148.95119609 124.04392821 -146.96016502 121.47156525 C-143.40911178 117.03274869 -139.38073316 113.50801975 -134.96016502 109.97156525 C-133.27253651 108.32612745 -131.60613013 106.65867948 -129.96016502 104.97156525 C-127.44925706 102.46065728 -124.93940478 99.95131135 -122.39766502 97.47156525 C-119.95119609 95.04392821 -119.95119609 95.04392821 -117.96016502 92.47156525 C-114.40911178 88.03274869 -110.38073316 84.50801975 -105.96016502 80.97156525 C-104.27253651 79.32612745 -102.60613013 77.65867948 -100.96016502 75.97156525 C-100.11454002 75.14656525 -99.26891502 74.32156525 -98.39766502 73.47156525 C-95.96560255 71.07765556 -95.96560255 71.07765556 -94.14766502 68.59656525 C-91.6497125 65.59902221 -88.87774721 63.20426578 -85.92110252 60.670784 C-82.16727812 57.41796803 -78.8206888 54.03652009 -75.96016502 49.97156525 C-72.38491675 50.55627587 -70.66765052 51.86556901 -68.09370995 54.37049103 C-67.35001656 55.08858948 -66.60632317 55.80668793 -65.84009361 56.54654694 C-65.04827187 57.3287561 -64.25645012 58.11096527 -63.44063377 58.91687775 C-62.62266823 59.72011475 -61.80470268 60.52335175 -60.9619503 61.35092926 C-59.2356239 63.05330139 -57.51353094 64.75997561 -55.7953701 66.47058868 C-53.15924683 69.08507849 -50.49528196 71.66881973 -47.82930565 74.25281525 C-46.1562788 75.9098511 -44.48499445 77.56864851 -42.81563377 79.22937775 C-42.01369087 79.99944153 -41.21174797 80.76950531 -40.38550377 81.56290436 C-34.96154189 87.05451427 -34.96154189 87.05451427 -34.95430565 91.87415314 C-35.28623924 92.89629913 -35.61817284 93.91844513 -35.96016502 94.97156525 C-36.68246911 101.94594403 -35.57906879 107.89661876 -31.96016502 113.97156525 C-28.67167075 117.55781051 -24.99496624 120.28169777 -20.96016502 122.97156525 C-20.64229241 126.02884468 -20.51966601 128.88576856 -20.52437401 131.94763947 C-20.51429817 132.87784912 -20.50422234 133.80805878 -20.49384117 134.7664566 C-20.46525573 137.85317631 -20.45947913 140.93940878 -20.45625877 144.02625275 C-20.44662445 146.16615758 -20.4365325 148.3060604 -20.4260006 150.445961 C-20.4080123 154.93680147 -20.40248228 159.42746862 -20.40425682 163.91834259 C-20.40456169 169.67806159 -20.36361497 175.43667101 -20.31194019 181.19612694 C-20.27861064 185.6176236 -20.27249821 190.03885122 -20.274086 194.46046066 C-20.27054062 196.58400165 -20.25724149 198.70754922 -20.2340889 200.83096695 C-20.20474643 203.80033874 -20.21329383 206.76729262 -20.23140526 209.73670197 C-20.20611748 211.05692352 -20.20611748 211.05692352 -20.18031883 212.40381622 C-20.21669004 214.74609878 -20.30016959 216.72341418 -20.96016502 218.97156525 C-23.89365196 221.44620514 -23.89365196 221.44620514 -26.96016502 222.97156525 C-32.78321177 228.29984331 -35.59123915 234.09784361 -36.33516502 241.90906525 C-35.99763076 249.08166828 -33.59864007 255.20032714 -28.71016502 260.467659 C-22.97854441 265.39327046 -16.17235248 267.36058782 -8.73750877 267.33875275 C-4.66121782 266.79983383 -1.53210428 265.08216356 2.00858498 263.06531525 C4.03983498 261.97156525 4.03983498 261.97156525 6.03983498 261.97156525 C6.36983498 260.98156525 6.69983498 259.99156525 7.03983498 258.97156525 C7.69983498 258.97156525 8.35983498 258.97156525 9.03983498 258.97156525 C9.72330179 257.31171726 10.38571813 255.64319719 11.03983498 253.97156525 C11.41108498 253.12594025 11.78233498 252.28031525 12.16483498 251.40906525 C14.29708784 243.03235758 13.81270605 235.66932395 9.54374123 228.10437775 C6.97646553 224.46351404 4.05086895 221.97708223 0.03983498 219.97156525 C0.03983498 188.62156525 0.03983498 157.27156525 0.03983498 124.97156525 C3.28196662 126.59263107 5.01677355 127.66368147 7.55497169 130.03748322 C8.22180977 130.65928467 8.88864784 131.28108612 9.57569313 131.92173004 C12.58289045 134.78612091 15.57552558 137.66460804 18.55057716 140.56238556 C20.12342665 142.08196215 21.71042051 143.58703687 23.31131935 145.077034 C36.67261174 157.52407473 36.67261174 157.52407473 37.5796299 163.5692215 C37.04377062 166.59937539 36.15154385 169.116969 35.03983498 171.97156525 C35.40550903 179.08694182 39.41703111 185.41778254 44.41483498 190.28406525 C51.90185882 195.097152 58.146177 195.96097095 67.03983498 194.97156525 C73.87963846 192.93603973 78.17911837 188.55589386 82.28983498 182.84656525 C85.62044735 176.57957624 85.70778014 169.48884185 83.97733498 162.72156525 C81.77580377 156.44570706 78.14485998 152.05387897 72.47733498 148.59656525 C68.40480541 146.67136945 65.65221776 145.68074923 61.17020607 146.48914337 C56.04368542 147.30393408 52.21441555 147.31841135 47.78116798 144.57263947 C42.49643311 140.49929332 37.81497691 135.82509237 33.17557716 131.04236603 C30.67205185 128.47895475 28.09873163 126.0056582 25.50858498 123.530159 C12.22040094 110.39468079 12.22040094 110.39468079 11.94080544 102.1909256 C12.05592725 100.22952291 12.33067751 98.27935615 12.61551857 96.33533478 C13.19355097 91.7529813 11.97374288 88.92253483 9.66483498 85.02625275 C5.83797095 80.18747756 0.93585662 76.77993789 -4.96016502 74.97156525 C-7.31540131 75.30277309 -9.66804556 75.65261688 -12.01875877 76.014534 C-17.75648147 76.37362564 -21.33785572 75.07902172 -25.83955956 71.49744415 C-30.27185627 67.55455846 -34.39656465 63.33231742 -38.45747948 59.01087189 C-41.03669879 56.26914728 -43.67139781 53.59194283 -46.32149315 50.91883087 C-47.9871126 49.2067439 -49.64935135 47.49136001 -51.30782127 45.7723465 C-52.0939933 44.96694931 -52.88016533 44.16155212 -53.69016075 43.33174896 C-54.75399231 42.19113258 -54.75399231 42.19113258 -55.83931541 41.02747345 C-56.46834267 40.36351059 -57.09736992 39.69954773 -57.7454586 39.01546478 C-58.96016502 36.97156525 -58.96016502 36.97156525 -58.78803062 34.33135223 C-57.6375803 31.0520546 -55.72381616 30.07434329 -52.96016502 27.97156525 C-51.13838922 26.00005444 -49.40232655 23.96658702 -47.65547752 21.9285965 C-44.08187876 17.80331314 -40.20922718 14.37081497 -35.96016502 10.97156525 C-33.4392747 8.51369719 -31.00659662 6.02301647 -28.64766502 3.40906525 C-19.96639856 -4.46464155 -10.3531411 -5.31269569 0 0 Z " fill="#EF5032" transform="translate(251.9601650238037,66.02843475341797)"/>
</svg>
