<?xml version="1.0" encoding="UTF-8"?>
<svg version="1.1" xmlns="http://www.w3.org/2000/svg" width="292" height="286">
<path d="M0 0 C0.62874023 0.20367187 1.25748047 0.40734375 1.90527344 0.6171875 C28.44900456 9.46054882 48.13963263 28.51131918 60.70776367 53.11132812 C73.61584581 79.25880598 73.9325023 108.57541781 65.01171875 136.04296875 C55.93048305 161.66391208 36.96265973 181.83087106 12.93774414 194.08740234 C7.80187861 196.50618341 2.77927991 198.80641115 -3 198 C-4.64477539 196.99462891 -4.64477539 196.99462891 -6 195 C-6.28351157 192.16713584 -6.39324359 189.5433282 -6.37109375 186.7109375 C-6.38849131 185.02994604 -6.40607551 183.3489565 -6.42382812 181.66796875 C-6.43385411 179.02844442 -6.43750915 176.3890542 -6.43579102 173.74951172 C-6.19353415 160.30437371 -6.19353415 160.30437371 -11 148 C-11.67622851 146.6714906 -12.34541915 145.33930808 -13 144 C-12.00742188 143.86464844 -11.01484375 143.72929687 -9.9921875 143.58984375 C-1.00692125 142.21707929 6.22359388 139.8780397 14.20703125 135.5234375 C17 134 17 134 20 133 C21.05806603 131.16077134 21.05806603 131.16077134 22 129 C22.96492021 127.59428059 23.94504024 126.19891325 24.9375 124.8125 C32.85351155 113.07363409 33.68596332 97.59369081 31.50390625 83.8828125 C30.14364993 78.94900142 27.9078625 74.9821767 25.078125 70.74609375 C23.69289684 68.5026264 23.14605598 66.62900763 23 64 C23.15855469 63.39027344 23.31710938 62.78054687 23.48046875 62.15234375 C25.18219592 55.10233119 23.86020078 47.87609931 22 41 C13.8605668 40.27649483 6.46550465 43.10311744 -0.125 47.8125 C-3.81613117 50.28080244 -6.32668819 50.28919576 -10.62890625 49.4921875 C-11.41136719 49.32976562 -12.19382812 49.16734375 -13 49 C-18.60088657 48.04122755 -24.02296591 47.8087319 -29.6875 47.8125 C-30.56946045 47.81113037 -31.4514209 47.80976074 -32.36010742 47.80834961 C-38.26103542 47.85216436 -43.79885727 48.47921431 -49.59765625 49.6015625 C-55.98023364 50.66013631 -59.85090108 48.68273262 -64.96484375 45.2734375 C-70.62472638 41.73193704 -76.43037078 40.58657404 -83 40 C-83.84213286 43.76743648 -84.02909655 47.24764993 -83.88671875 51.08203125 C-83.85642578 52.01466797 -83.82613281 52.94730469 -83.79492188 53.90820312 C-83.72370964 55.83352295 -83.6327782 57.75822145 -83.52148438 59.68164062 C-83.35408224 66.25556755 -84.60246652 69.82678672 -88.55493164 75.07202148 C-94.96381159 83.62260857 -93.87705289 96.83520797 -92.4609375 106.7890625 C-90.05289233 119.14683279 -85.34296828 129.26506272 -74.61328125 136.640625 C-66.42292717 141.01936503 -57.17093666 142.95784811 -48 144 C-49.15057284 146.30114567 -50.30982161 148.59382475 -51.5 150.875 C-53.10149072 153.94287731 -53.10149072 153.94287731 -53.8125 157.25 C-55 160 -55 160 -57.4375 161.375 C-64.69147529 162.64762724 -71.64895489 163.17986948 -78.22265625 159.40234375 C-81.50958447 156.80892126 -83.71944916 153.47281451 -86 150 C-89.36752001 144.89065929 -93.2865457 142.86043085 -99 141 C-101.87911042 140.65797306 -101.87911042 140.65797306 -104 141 C-103.278125 141.721875 -102.55625 142.44375 -101.8125 143.1875 C-100.884375 144.115625 -99.95625 145.04375 -99 146 C-98.175 146.763125 -97.35 147.52625 -96.5 148.3125 C-92.37618821 152.74559768 -89.56753315 157.70127036 -87.0625 163.1875 C-84.65209594 168.11479183 -81.49783529 170.92308898 -76.390625 173.125 C-72.05788804 174.24312567 -68.0754752 174.21727461 -63.625 174.125 C-62.79355469 174.11597656 -61.96210937 174.10695312 -61.10546875 174.09765625 C-59.07018663 174.0742622 -57.03505436 174.03839725 -55 174 C-54.94212216 177.62493334 -54.9064458 181.24974857 -54.875 184.875 C-54.85824219 185.90753906 -54.84148437 186.94007813 -54.82421875 188.00390625 C-54.81777344 188.99003906 -54.81132813 189.97617188 -54.8046875 190.9921875 C-54.79421387 191.90339355 -54.78374023 192.81459961 -54.77294922 193.75341797 C-55 196 -55 196 -57 198 C-69.96282408 199.13681283 -83.12587653 189.68962797 -92.65234375 181.8046875 C-95.15754414 179.58899409 -97.58811204 177.31668186 -100 175 C-100.78375 174.2678125 -101.5675 173.535625 -102.375 172.78125 C-121.36427635 154.56180918 -131.00952584 128.99100616 -132.12890625 103.0078125 C-132.61868747 76.29841012 -124.33116835 52.80472271 -108 32 C-107.40445313 31.23171875 -106.80890625 30.4634375 -106.1953125 29.671875 C-81.52590815 -0.30912359 -36.42705914 -12.19882911 0 0 Z " fill="#FFFFFF" transform="translate(177,46)"/>
</svg>
