<?xml version="1.0" encoding="UTF-8"?>
<svg version="1.1" xmlns="http://www.w3.org/2000/svg" width="292" height="286">
<path d="M0 0 C64.35 0 128.7 0 195 0 C189.22987559 70.39551782 189.22987559 70.39551782 187.140625 94.421875 C186.90331713 97.16048248 186.66637183 99.89912131 186.42938232 102.63775635 C185.94657918 108.21448166 185.4626963 113.79111233 184.97802734 119.36767578 C184.42141967 125.77211951 183.86669903 132.17672482 183.31285691 138.58140826 C182.76764916 144.88577365 182.22120628 151.19003139 181.67418671 157.49423981 C181.44574787 160.12713537 181.21778787 162.76007105 180.9900589 165.39302826 C180.6757588 169.0248081 180.36004568 172.6564624 180.04394531 176.28808594 C179.90683388 177.87711479 179.90683388 177.87711479 179.76695251 179.49824524 C179.25652208 185.34295383 178.6724765 191.17165008 178 197 C165.587402 201.97694916 152.45623596 205.21082406 139.61132812 208.88110352 C136.28708533 209.83234186 132.96684403 210.79602508 129.64941406 211.77075195 C125.61923198 212.95479362 121.583227 214.11651497 117.54218674 215.26292992 C116.01311811 215.70062838 114.48620194 216.14592617 112.961689 216.59923744 C104.47297661 219.11639032 97.66384615 220.84875269 89 218 C86.95245849 217.4522863 84.90387548 216.90845729 82.85449219 216.36767578 C80.58420106 215.73074424 78.31504305 215.08976365 76.046875 214.4453125 C74.82905334 214.10249237 73.61123169 213.75967224 72.35650635 213.40646362 C69.13901204 212.49996147 65.92247472 211.59020778 62.70635986 210.67883301 C59.4730158 209.76349391 56.23839172 208.85270198 53.00390625 207.94140625 C47.13185278 206.28565184 41.25995401 204.62940052 35.39147949 202.96099854 C32.95644561 202.2710153 30.52020649 201.58677217 28.08215332 200.90765381 C26.79466853 200.54637882 25.50719271 200.18507187 24.21972656 199.82373047 C22.47057953 199.33596634 22.47057953 199.33596634 20.68609619 198.83834839 C18 198 18 198 17 197 C16.69495081 194.67044824 16.45216001 192.35978064 16.24487305 190.02075195 C16.17450396 189.26522978 16.10413486 188.5097076 16.03163338 187.73129082 C15.79101547 185.12987243 15.55749254 182.52786792 15.32421875 179.92578125 C15.15100403 178.02727406 14.97763333 176.12878109 14.80412292 174.2303009 C12.23389173 145.94375931 9.84060834 117.64092205 7.42384899 89.34094346 C6.87578605 82.92456609 6.32581194 76.50835363 5.7753647 70.09218043 C5.17107037 63.04800276 4.56790873 56.00372857 3.96530724 48.9594059 C3.71248137 46.0040229 3.45930126 43.04867059 3.20582008 40.09334373 C2.85324672 35.98184361 2.50234803 31.87020214 2.15161133 27.75854492 C2.04928192 26.56733032 1.94695251 25.37611572 1.84152222 24.14880371 C1.15695417 16.10187172 0.57552101 8.05729408 0 0 Z M38 41 C37.96344163 49.76287625 37.96344163 49.76287625 38.44311523 58.41772461 C38.5399913 59.54516586 38.63686737 60.67260712 38.73667908 61.83421326 C38.84291092 63.01169632 38.94914276 64.18917938 39.05859375 65.40234375 C39.1672023 66.64246719 39.27581085 67.88259064 39.38771057 69.16029358 C39.61660445 71.76144426 39.84783447 74.36239033 40.08129883 76.96313477 C40.31987087 79.62503623 40.55631803 82.28699502 40.78833008 84.94946289 C41.1247641 88.80908899 41.46579293 92.66827841 41.80859375 96.52734375 C41.91280136 97.71899643 42.01700897 98.91064911 42.12437439 100.13841248 C42.27441673 101.79647667 42.27441673 101.79647667 42.42749023 103.48803711 C42.51409409 104.45857529 42.60069794 105.42911346 42.68992615 106.42906189 C42.97760601 109.26353169 42.97760601 109.26353169 44 113 C71.39 113 98.78 113 127 113 C126.01 123.56 125.02 134.12 124 145 C120.08125 146.19625 116.1625 147.3925 112.125 148.625 C110.91086426 149.00865723 109.69672852 149.39231445 108.44580078 149.78759766 C101.21300512 151.90035082 96.18173573 152.20760375 89 150 C87.36218981 149.56951031 85.72416939 149.13981963 84.0859375 148.7109375 C82.51437212 148.27006696 80.94426236 147.82399912 79.375 147.375 C76.61125 146.59125 73.8475 145.8075 71 145 C70.34 138.73 69.68 132.46 69 126 C61.08 126 53.16 126 45 126 C45.57517105 138.07859208 46.53879276 149.99823956 48 162 C56.14552629 165.1512397 64.43454729 167.58033974 72.82666016 169.98095703 C74.61080167 170.49420322 76.39304851 171.01408138 78.17333984 171.54052734 C80.76775252 172.30752538 83.36726562 173.05426581 85.96875 173.796875 C86.75544067 174.03323669 87.54213135 174.26959839 88.35266113 174.51312256 C97.23485655 176.99299433 104.75931653 174.6928565 113.40625 172.27734375 C114.3715564 172.01240616 115.33686279 171.74746857 116.3314209 171.47450256 C119.38907216 170.63402638 122.44453674 169.78589195 125.5 168.9375 C127.58319319 168.36342352 129.66652523 167.78985059 131.75 167.21679688 C136.83495395 165.81701924 141.91813877 164.4109619 147 163 C148.34211708 148.66747894 149.67723488 134.33432101 151 120 C151.06699097 119.27443909 151.13398193 118.54887817 151.20300293 117.80133057 C151.55787782 113.95140026 151.90661813 110.10097146 152.25 106.25 C152.36964111 104.94470337 152.36964111 104.94470337 152.49169922 103.61303711 C152.56146973 102.81776611 152.63124023 102.02249512 152.703125 101.203125 C152.76145508 100.54989258 152.81978516 99.89666016 152.87988281 99.22363281 C153.04573719 96.15330418 153 93.07480497 153 90 C124.29 90 95.58 90 66 90 C66 86.37 66 82.74 66 79 C65.67 74.05 65.34 69.1 65 64 C109.55 64.495 109.55 64.495 155 65 C158.59010987 57.81978026 156.63547957 49.01944944 157 41 C117.73 41 78.46 41 38 41 Z " fill="#E02E00" transform="translate(49,33)"/>
<path d="M0 0 C25.41 0 50.82 0 77 0 C76.3642187 10.80828203 75.67279285 21.56620358 74.72485352 32.34472656 C74.59969149 33.78736314 74.47471785 35.23001606 74.34991455 36.67268372 C74.01553156 40.5295449 73.67799922 44.38612338 73.33939099 48.2426157 C73.12737837 50.65803179 72.91592771 53.07349648 72.70463371 55.48897552 C72.04163891 63.06621549 71.37666372 70.6432777 70.70877892 78.22008824 C69.94059791 86.93493852 69.17916791 95.65034479 68.42341858 104.36628175 C67.83604191 111.13570698 67.24274313 117.90459687 66.64493507 124.67310882 C66.28903765 128.70414509 65.93564034 132.73536287 65.58844185 136.76715851 C65.26278984 140.54687193 64.92979446 144.32586687 64.59114075 148.10443687 C64.46832919 149.48891273 64.34815517 150.87362551 64.23083305 152.25857735 C64.07015551 154.15048497 63.89898603 156.04149275 63.72731018 157.93243408 C63.63458611 158.98977375 63.54186205 160.04711342 63.44632816 161.13649368 C62.99165714 164.05352524 62.32973298 166.36587665 61 169 C58.53308105 170.20869446 58.53308105 170.20869446 55.38867188 171.03637695 C54.21405396 171.35633133 53.03943604 171.67628571 51.82922363 172.00593567 C50.55526733 172.33010971 49.28131104 172.65428375 47.96875 172.98828125 C46.65314052 173.33811638 45.33799998 173.68971938 44.02331543 174.04301453 C40.56327145 174.96739824 37.09706372 175.86621923 33.62908936 176.76031494 C30.79571451 177.49515834 27.96709237 178.24735723 25.13857269 179.00063801 C19.3008842 180.55528088 13.45955858 182.09606567 7.61132812 183.6105957 C6.5736731 183.87975296 5.53601807 184.14891022 4.46691895 184.42622375 C2 185 2 185 0 185 C0 176.42 0 167.84 0 159 C10.91861176 155.44711839 21.85588694 152.13326422 32.9375 149.125 C34.06849121 148.8148999 35.19948242 148.5047998 36.36474609 148.18530273 C37.42902832 147.89985596 38.49331055 147.61440918 39.58984375 147.3203125 C40.53722412 147.06523926 41.48460449 146.81016602 42.46069336 146.54736328 C45 146 45 146 49 146 C49.07347656 144.13287354 49.07347656 144.13287354 49.1484375 142.22802734 C49.67700997 129.64116543 50.57805179 117.1186385 51.72949219 104.57421875 C52.00426066 101.57854805 52.27213534 98.58231619 52.5390625 95.5859375 C52.71314997 93.6536105 52.88761467 91.72131745 53.0625 89.7890625 C53.18129517 88.46559311 53.18129517 88.46559311 53.30249023 87.11538696 C53.37927002 86.28276337 53.4560498 85.45013977 53.53515625 84.59228516 C53.63389038 83.51148178 53.63389038 83.51148178 53.73461914 82.40884399 C54.08115541 79.26335785 54.55246966 76.13271241 55 73 C26.29 73 -2.42 73 -32 73 C-32.60047389 66.39478719 -33.12251495 60.35412975 -33.0625 53.8125 C-33.05347656 52.51957031 -33.04445313 51.22664063 -33.03515625 49.89453125 C-33.02355469 48.93933594 -33.01195313 47.98414063 -33 47 C-31.33083275 47.00333092 -31.33083275 47.00333092 -29.62794495 47.00672913 C-19.1650787 47.02695955 -8.70221639 47.04197166 1.76066494 47.05181217 C7.14033762 47.05704125 12.51999458 47.06413935 17.8996582 47.07543945 C23.08674843 47.08626745 28.27382349 47.09227665 33.46092415 47.09487724 C35.4445628 47.09673165 37.42820058 47.10035256 39.41183281 47.10573006 C42.18009136 47.11293932 44.94828638 47.11399099 47.71655273 47.11352539 C48.54517319 47.11712067 49.37379364 47.12071594 50.2275238 47.12442017 C53.91502628 47.47118179 53.91502628 47.47118179 57 46 C57.66 38.74 58.32 31.48 59 24 C39.53 24 20.06 24 0 24 C0 16.08 0 8.16 0 0 Z " fill="#F23F00" transform="translate(147,50)"/>
<path d="M0 0 C-0.14111868 3.45854214 -0.28878309 6.91677691 -0.4375 10.375 C-0.47681641 11.34050781 -0.51613281 12.30601562 -0.55664062 13.30078125 C-0.82980822 19.56262312 -1.30323128 25.77097309 -2 32 C-10.6037704 35.44150816 -19.6788319 39 -29 39 C-29 26.46 -29 13.92 -29 1 C-24.400625 0.835 -19.80125 0.67 -15.0625 0.5 C-12.88346069 0.42168945 -12.88346069 0.42168945 -10.66040039 0.34179688 C-9.52594482 0.30119141 -8.39148926 0.26058594 -7.22265625 0.21875 C-5.47094116 0.1559082 -5.47094116 0.1559082 -3.68383789 0.09179688 C-1 0 -1 0 0 0 Z " fill="#F23E00" transform="translate(176,146)"/>
<path d="M0 0 C4.53897705 -0.02465392 9.07791543 -0.04283789 13.61694336 -0.05493164 C15.16219766 -0.0599714 16.70744716 -0.0668032 18.25268555 -0.07543945 C20.46925029 -0.08752076 22.68575218 -0.09323173 24.90234375 -0.09765625 C25.5971434 -0.10281754 26.29194305 -0.10797882 27.00779724 -0.11329651 C28.6722933 -0.11349277 30.33665499 -0.06189129 32 0 C33 1 33 1 33.11352539 3.40844727 C33.10828857 4.45057373 33.10305176 5.4927002 33.09765625 6.56640625 C33.09515869 7.57904541 33.09266113 8.59168457 33.09008789 9.63500977 C33.08098389 10.93108154 33.07187988 12.22715332 33.0625 13.5625 C33.041875 17.666875 33.02125 21.77125 33 26 C22.44 26 11.88 26 1 26 C0.39952611 19.39478719 -0.12251495 13.35412975 -0.0625 6.8125 C-0.05347656 5.51957031 -0.04445313 4.22664063 -0.03515625 2.89453125 C-0.02355469 1.93933594 -0.01195313 0.98414062 0 0 Z " fill="#E12E00" transform="translate(114,97)"/>
</svg>
