<?xml version="1.0" encoding="UTF-8"?>
<svg version="1.1" xmlns="http://www.w3.org/2000/svg" width="307" height="300">
<path d="M0 0 C67.32 0 134.64 0 204 0 C201.215625 32.13375 198.43125 64.2675 195.5625 97.375 C194.68408447 107.51653809 193.80566895 117.65807617 192.90063477 128.10693359 C191.8260498 140.50317383 191.8260498 140.50317383 191.32261658 146.30874634 C190.97150504 150.35827904 190.62076387 154.40784364 190.27024841 158.45742798 C189.82262267 163.62880732 189.37435946 168.80013104 188.92564189 173.97141576 C188.7613892 175.86560516 188.59735722 177.75981371 188.43357575 179.65404391 C187.67365911 188.44164283 186.91174419 197.22655143 186 206 C179.20943851 207.98450077 172.41778256 209.96521625 165.62536621 211.94335938 C163.22510633 212.64293342 160.82511837 213.34344113 158.42541504 214.04492188 C151.08473723 216.19041644 143.73862509 218.31564748 136.38574219 220.41894531 C133.85161721 221.14739931 131.31941412 221.88256857 128.7890625 222.62402344 C125.06453074 223.71415352 121.33402921 224.78115336 117.6015625 225.84375 C116.48165924 226.17693237 115.36175598 226.51011475 114.20791626 226.85339355 C103.8974279 229.74211597 95.89029209 228.54361964 85.77734375 225.59375 C84.92543457 225.35296722 84.07352539 225.11218445 83.19580078 224.86410522 C80.4407644 224.08381326 77.68916762 223.2920811 74.9375 222.5 C72.06243917 221.68149159 69.18661092 220.86572268 66.3106842 220.05026245 C64.37286387 219.50069499 62.43531296 218.9501766 60.49803162 218.39871216 C54.31338689 216.64154093 48.11742648 214.93428037 41.90625 213.2734375 C40.74785362 212.96282379 40.74785362 212.96282379 39.5660553 212.64593506 C36.6451789 211.86352068 33.72417193 211.08190722 30.79977417 210.31274414 C28.83243736 209.79499189 26.86732124 209.26882303 24.90234375 208.7421875 C23.80398193 208.4519873 22.70562012 208.16178711 21.57397461 207.86279297 C19 207 19 207 17 205 C16.60067215 202.40948898 16.32112384 199.89739341 16.11410522 197.28974915 C16.04297598 196.48443589 15.97184675 195.67912263 15.89856207 194.84940594 C15.66118661 192.13636155 15.43685626 189.42239369 15.21240234 186.70825195 C15.04539296 184.76853391 14.87759369 182.82888374 14.70906067 180.88929749 C14.25258359 175.60880431 13.8074412 170.32740947 13.36441755 165.04577279 C12.89943234 159.52317021 12.42466756 154.00140829 11.95108032 148.47953796 C11.15663008 139.19983929 10.36900531 129.9195818 9.5859375 120.63891602 C8.58121009 108.73162812 7.56537264 96.82531585 6.54594994 84.91927814 C5.66975647 74.68503861 4.79865707 64.45036642 3.92838717 54.21562171 C3.64848136 50.92629673 3.36788517 47.63703117 3.08720016 44.3477726 C2.64594539 39.1729781 2.20786968 33.9979236 1.77223778 28.82265282 C1.61200014 26.92429999 1.45076907 25.02603071 1.2884655 23.12785339 C1.06685881 20.53384947 0.84892403 17.93956214 0.63192749 15.34516907 C0.56714561 14.59651543 0.50236373 13.8478618 0.43561876 13.07652169 C0.07224729 8.67467648 0 4.44028681 0 0 Z M72 43 C71.67 79.96 71.34 116.92 71 155 C59.12 151.7 47.24 148.4 35 145 C34.34 145 33.68 145 33 145 C33 152.26 33 159.52 33 167 C40.11149873 169.38910411 40.11149873 169.38910411 47.27270508 171.53393555 C48.20008987 171.79397873 49.12747467 172.05402191 50.08296204 172.32194519 C51.05202988 172.59082047 52.02109772 172.85969574 53.01953125 173.13671875 C54.04052414 173.42102249 55.06151703 173.70532623 56.1134491 173.99824524 C58.25521653 174.59358881 60.39733755 175.1876617 62.53979492 175.78051758 C65.82168685 176.690046 69.10127605 177.60757759 72.38085938 178.52539062 C74.46861397 179.10465716 76.55650007 179.68345 78.64453125 180.26171875 C80.11331474 180.6741407 80.11331474 180.6741407 81.61177063 181.09489441 C82.52339462 181.34548111 83.43501862 181.59606781 84.37426758 181.85424805 C85.17318924 182.07614304 85.9721109 182.29803802 86.79524231 182.5266571 C89.27598125 183.13993898 89.27598125 183.13993898 93 183 C93 136.8 93 90.6 93 43 C86.07 43 79.14 43 72 43 Z M110 43 C110 71.05 110 99.1 110 128 C123.82161139 126.40157799 123.82161139 126.40157799 137.5625 124.375 C138.80676758 124.17390625 138.80676758 124.17390625 140.07617188 123.96875 C142.05130859 123.64907469 144.02574391 123.32506961 146 123 C145.90912109 123.76666992 145.81824219 124.53333984 145.72460938 125.32324219 C145.31401554 128.79855052 144.90696893 132.2742654 144.5 135.75 C144.35691406 136.9565625 144.21382812 138.163125 144.06640625 139.40625 C143.93105469 140.56640625 143.79570312 141.7265625 143.65625 142.921875 C143.53056641 143.99018555 143.40488281 145.05849609 143.27539062 146.15917969 C142.93567452 149.18786653 142.93567452 149.18786653 143 153 C141.948125 153.09152344 140.89625 153.18304688 139.8125 153.27734375 C133.71261767 154.03982904 127.89109754 155.85860294 122 157.5625 C120.84371094 157.89185547 119.68742187 158.22121094 118.49609375 158.56054688 C115.66256226 159.36845461 112.83107017 160.18350913 110 161 C110 168.26 110 175.52 110 183 C116.58016067 182.21791645 116.58016067 182.21791645 122.85546875 180.78491211 C124.14590088 180.42465187 124.14590088 180.42465187 125.46240234 180.05711365 C126.81132568 179.67112755 126.81132568 179.67112755 128.1875 179.27734375 C129.13061035 179.01240616 130.0737207 178.74746857 131.04541016 178.47450256 C134.03182675 177.63423224 137.01591297 176.7860019 140 175.9375 C142.03500707 175.36340323 144.07016195 174.78983013 146.10546875 174.21679688 C151.07204275 172.8172495 156.03654385 171.41056298 161 170 C163.04303345 155.21618225 164.30155761 140.36195208 165.625 125.5 C165.85651728 122.92315429 166.08828613 120.34633117 166.3203125 117.76953125 C166.88310813 111.51327824 167.44280065 105.25675379 168 99 C165.95315821 99.14993445 163.90647673 99.3020583 161.85986328 99.45507812 C160.7201004 99.539552 159.58033752 99.62402588 158.40603638 99.71105957 C153.53309094 100.12444064 148.71124624 100.78378172 143.875 101.5 C142.9571875 101.63019531 142.039375 101.76039063 141.09375 101.89453125 C137.59135908 102.40294284 134.36559327 102.87813558 131 104 C131 90.8 131 77.6 131 64 C143.87 64 156.74 64 170 64 C173.14466038 57.71067925 171.6304234 50.0219554 172 43 C151.54 43 131.08 43 110 43 Z " fill="#E4BD00" transform="translate(52,35)"/>
<path d="M0 0 C26.73 0 53.46 0 81 0 C78.70047592 31.04357507 78.70047592 31.04357507 77.59545898 43.52758789 C77.46856454 44.97657017 77.34182044 46.42556563 77.21520996 47.87457275 C76.88029309 51.70165803 76.54305522 55.52853479 76.20506549 59.35534978 C75.99323411 61.75505128 75.7819398 64.1547995 75.57081795 66.55456352 C74.83243736 74.94727372 74.09209799 83.33980839 73.34985352 91.73217773 C72.65996141 99.53323577 71.97460531 107.33468387 71.29122108 115.13631445 C70.70043753 121.87849231 70.10653405 128.62039057 69.51017624 135.36207765 C69.15558939 139.37122082 68.80227759 143.38046632 68.45214653 147.3900013 C68.12493528 151.13588945 67.79386066 154.88141576 67.45973969 158.62669373 C67.33778537 160.00126172 67.21723555 161.37595512 67.09816933 162.75077629 C66.935982 164.62101039 66.76831093 166.49076657 66.60032654 168.36048889 C66.5079795 169.40760575 66.41563246 170.45472261 66.32048702 171.53357029 C66 174 66 174 65 176 C62.5014801 176.88589478 62.5014801 176.88589478 59.13500977 177.78759766 C57.88023331 178.12779938 56.62545685 178.4680011 55.33265686 178.81851196 C53.95230487 179.18394065 52.57188636 179.54911811 51.19140625 179.9140625 C49.78498157 180.29171721 48.37872841 180.67001119 46.97264099 181.04891968 C44.02235381 181.84220379 41.07072307 182.63019621 38.11791992 183.4140625 C34.32830994 184.42014375 30.54122889 185.43536163 26.75499058 186.45405006 C23.15133449 187.42315002 19.54640135 188.38745806 15.94140625 189.3515625 C15.25066072 189.53677082 14.5599152 189.72197914 13.84823799 189.91279984 C11.89766335 190.43492253 9.9460481 190.95315302 7.99438477 191.47119141 C6.88265396 191.76716217 5.77092316 192.06313293 4.62550354 192.36807251 C2 193 2 193 0 193 C0 129.31 0 65.62 0 0 Z M8 25 C8 53.05 8 81.1 8 110 C21.82161139 108.40157799 21.82161139 108.40157799 35.5625 106.375 C36.80676758 106.17390625 36.80676758 106.17390625 38.07617188 105.96875 C40.05130859 105.64907469 42.02574391 105.32506961 44 105 C43.90912109 105.76666992 43.81824219 106.53333984 43.72460938 107.32324219 C43.31401554 110.79855052 42.90696893 114.2742654 42.5 117.75 C42.35691406 118.9565625 42.21382812 120.163125 42.06640625 121.40625 C41.93105469 122.56640625 41.79570312 123.7265625 41.65625 124.921875 C41.53056641 125.99018555 41.40488281 127.05849609 41.27539062 128.15917969 C40.93567452 131.18786653 40.93567452 131.18786653 41 135 C39.948125 135.09152344 38.89625 135.18304688 37.8125 135.27734375 C31.71261767 136.03982904 25.89109754 137.85860294 20 139.5625 C18.84371094 139.89185547 17.68742187 140.22121094 16.49609375 140.56054688 C13.66256226 141.36845461 10.83107017 142.18350913 8 143 C8 150.26 8 157.52 8 165 C14.58016067 164.21791645 14.58016067 164.21791645 20.85546875 162.78491211 C22.14590088 162.42465187 22.14590088 162.42465187 23.46240234 162.05711365 C24.81132568 161.67112755 24.81132568 161.67112755 26.1875 161.27734375 C27.13061035 161.01240616 28.0737207 160.74746857 29.04541016 160.47450256 C32.03182675 159.63423224 35.01591297 158.7860019 38 157.9375 C40.03500707 157.36340323 42.07016195 156.78983013 44.10546875 156.21679688 C49.07204275 154.8172495 54.03654385 153.41056298 59 152 C61.04303345 137.21618225 62.30155761 122.36195208 63.625 107.5 C63.85651728 104.92315429 64.08828613 102.34633117 64.3203125 99.76953125 C64.88310813 93.51327824 65.44280065 87.25675379 66 81 C63.95315821 81.14993445 61.90647673 81.3020583 59.85986328 81.45507812 C58.7201004 81.539552 57.58033752 81.62402588 56.40603638 81.71105957 C51.53309094 82.12444064 46.71124624 82.78378172 41.875 83.5 C40.9571875 83.63019531 40.039375 83.76039063 39.09375 83.89453125 C35.59135908 84.40294284 32.36559327 84.87813558 29 86 C29 72.8 29 59.6 29 46 C41.87 46 54.74 46 68 46 C71.14466038 39.71067925 69.6304234 32.0219554 70 25 C49.54 25 29.08 25 8 25 Z " fill="#FED800" transform="translate(154,53)"/>
</svg>
