<?xml version="1.0" encoding="UTF-8"?>
<svg version="1.1" xmlns="http://www.w3.org/2000/svg" width="559" height="447">
<path d="M0 0 C1.92102539 -0.02416992 1.92102539 -0.02416992 3.88085938 -0.04882812 C14.9657381 -0.05447503 24.68007094 1.66145568 34.5625 6.75 C35.7071875 7.32621094 36.851875 7.90242187 38.03125 8.49609375 C40.88001722 10.20315142 42.93588808 11.77411764 45.0625 14.3125 C45.0625 14.9725 45.0625 15.6325 45.0625 16.3125 C45.7225 16.3125 46.3825 16.3125 47.0625 16.3125 C47.0625 16.9725 47.0625 17.6325 47.0625 18.3125 C47.7225 18.3125 48.3825 18.3125 49.0625 18.3125 C49.0625 19.3025 49.0625 20.2925 49.0625 21.3125 C50.0525 21.6425 51.0425 21.9725 52.0625 22.3125 C66.92814635 44.1550897 67.82899175 70.70809013 68.296875 96.1640625 C68.32416435 97.59080544 68.32416435 97.59080544 68.352005 99.04637146 C68.4400861 103.82241605 68.50854679 108.59755222 68.5456543 113.37426758 C68.68855593 125.77665435 69.77575182 136.15846749 76 147.125 C76.33451172 147.74052734 76.66902344 148.35605469 77.01367188 148.99023438 C78.65507867 151.97259777 80.38673911 154.83186132 82.31640625 157.63671875 C84.0625 160.3125 84.0625 160.3125 84.0625 162.3125 C85.0525 162.6425 86.0425 162.9725 87.0625 163.3125 C87.0625 164.3025 87.0625 165.2925 87.0625 166.3125 C87.7225 166.3125 88.3825 166.3125 89.0625 166.3125 C90.70721231 168.25789098 92.23739412 170.20547327 93.75 172.25 C94.64674878 173.44299906 95.54388648 174.63570587 96.44140625 175.828125 C97.10487061 176.71467773 97.10487061 176.71467773 97.78173828 177.61914062 C100.08506957 180.66449058 102.48828843 183.63162434 104.8828125 186.60546875 C106.0625 188.3125 106.0625 188.3125 106.0625 190.3125 C106.7225 190.3125 107.3825 190.3125 108.0625 190.3125 C108.7225 191.9625 109.3825 193.6125 110.0625 195.3125 C110.7225 195.3125 111.3825 195.3125 112.0625 195.3125 C113.7890625 197.6484375 113.7890625 197.6484375 115.6875 200.6875 C116.63496094 202.18410156 116.63496094 202.18410156 117.6015625 203.7109375 C119.0625 206.3125 119.0625 206.3125 119.0625 208.3125 C119.7225 208.3125 120.3825 208.3125 121.0625 208.3125 C121.88002303 209.89324564 122.69131997 211.47721223 123.5 213.0625 C123.95246094 213.94421875 124.40492188 214.8259375 124.87109375 215.734375 C125.89705398 217.95448566 126.57758603 219.92694619 127.0625 222.3125 C127.7225 222.3125 128.3825 222.3125 129.0625 222.3125 C138.47868656 242.43191271 138.47868656 242.43191271 141.40625 252.9765625 C141.98244577 255.30958635 141.98244577 255.30958635 143.0625 257.3125 C145.41485292 269.61056701 146.84993628 281.87749073 145.0625 294.3125 C144.91296875 295.48683594 144.7634375 296.66117187 144.609375 297.87109375 C143.90121917 302.99380167 143.14913132 307.55428214 141.0625 312.3125 C141.784375 312.56 142.50625 312.8075 143.25 313.0625 C148.74060226 315.50276767 151.67804136 318.54403512 154.15625 323.91015625 C156.51096718 330.15218671 157.72611814 336.74357276 159.125 343.25 C159.8124461 346.42727191 160.71919918 349.33804817 162.0625 352.3125 C162.7225 352.3125 163.3825 352.3125 164.0625 352.3125 C164.3925 353.3025 164.7225 354.2925 165.0625 355.3125 C165.784375 355.951875 166.50625 356.59125 167.25 357.25 C172.12420551 361.99593694 175.58485065 368.71210534 176.4765625 375.43359375 C176.50787556 379.36338322 176.30886609 382.57340172 175.0625 386.3125 C174.4025 386.3125 173.7425 386.3125 173.0625 386.3125 C172.69125 387.5190625 172.69125 387.5190625 172.3125 388.75 C171.0625 391.3125 171.0625 391.3125 168.9375 392.125 C168.009375 392.2178125 168.009375 392.2178125 167.0625 392.3125 C167.0625 392.9725 167.0625 393.6325 167.0625 394.3125 C164.15701118 396.35419485 162.66107954 397.3125 159.0625 397.3125 C159.0625 397.9725 159.0625 398.6325 159.0625 399.3125 C158.093125 399.704375 157.12375 400.09625 156.125 400.5 C152.29869388 402.1298667 148.74089193 404.1339853 145.12890625 406.1875 C143.0625 407.3125 143.0625 407.3125 140.375 408.375 C137.81682967 409.32169002 137.81682967 409.32169002 134.875 411.4375 C132.0625 413.3125 132.0625 413.3125 130.0625 413.3125 C130.0625 413.9725 130.0625 414.6325 130.0625 415.3125 C129.32 415.745625 128.5775 416.17875 127.8125 416.625 C124.79187032 418.47856821 123.22877574 420.54863095 121.0625 423.3125 C120.4025 423.3125 119.7425 423.3125 119.0625 423.3125 C118.7221875 424.1478125 118.7221875 424.1478125 118.375 425 C115.01502253 430.9199603 108.72216168 435.63477977 103.0625 439.3125 C102.0725 439.3125 101.0825 439.3125 100.0625 439.3125 C100.0625 439.9725 100.0625 440.6325 100.0625 441.3125 C98.9075 441.93125 97.7525 442.55 96.5625 443.1875 C95.9128125 443.53554688 95.263125 443.88359375 94.59375 444.2421875 C87.94875197 447.05195518 81.68562784 447.65358398 74.5625 447.625 C73.35787109 447.64916992 73.35787109 447.64916992 72.12890625 447.67382812 C62.78314226 447.68140168 56.00142033 444.46127412 49.0625 438.3125 C44.1685305 433.40748317 40.0625 428.50714775 40.0625 421.3125 C39.49966309 421.32297363 38.93682617 421.33344727 38.35693359 421.34423828 C19.80169753 421.64296737 19.80169753 421.64296737 12.0625 420.3125 C-4.16892865 417.67106468 -19.60330966 419.50314533 -35.56591797 422.8515625 C-38.71320398 423.46326478 -41.87912034 423.81617017 -45.0625 424.1875 C-48.97632099 424.8248937 -49.61232801 424.93598506 -52.3125 428.0625 C-52.84875 429.135 -53.385 430.2075 -53.9375 431.3125 C-59.05852727 437.87129203 -65.86282251 440.90309368 -73.9375 442.3125 C-92.03257968 443.5290379 -107.68920012 441.1613337 -123.6875 432.25 C-133.62572899 427.2404862 -145.0974867 426.05981423 -156 424.8125 C-183.452164 421.66394168 -183.452164 421.66394168 -191.3125 412.5625 C-194.62966728 406.13635585 -193.90131162 396.31644883 -192.25390625 389.47265625 C-191.71450504 387.88026128 -191.16775364 386.29033506 -190.61328125 384.703125 C-188.66723751 377.81885464 -189.87918308 370.52968343 -190.8137207 363.55810547 C-192.1114549 353.67496892 -191.93887864 346.65187746 -186.4375 338 C-180.86721474 331.16436599 -171.45214244 328.99243727 -163.34765625 326.40234375 C-160.57404925 325.14815193 -159.03113004 323.48752386 -156.9375 321.3125 C-156.2775 321.3125 -155.6175 321.3125 -154.9375 321.3125 C-154.82277344 320.72984375 -154.70804688 320.1471875 -154.58984375 319.546875 C-153.88925938 317.14726865 -152.95557405 315.58389067 -151.5 313.5625 C-151.06816406 312.94890625 -150.63632813 312.3353125 -150.19140625 311.703125 C-149.77761719 311.24421875 -149.36382812 310.7853125 -148.9375 310.3125 C-148.2775 310.3125 -147.6175 310.3125 -146.9375 310.3125 C-145.04729635 307.10004784 -144.67798189 304.68680233 -144.62890625 300.98046875 C-144.59458496 299.42271729 -144.59458496 299.42271729 -144.55957031 297.83349609 C-144.53991211 296.73344238 -144.52025391 295.63338867 -144.5 294.5 C-143.9461006 276.02877391 -140.05564139 258.97326076 -131.9375 242.3125 C-131.41929687 241.21421875 -130.90109375 240.1159375 -130.3671875 238.984375 C-126.3148025 230.53870921 -121.79003763 222.39830502 -117.0625 214.3125 C-116.49088135 213.32612549 -115.9192627 212.33975098 -115.33032227 211.32348633 C-114.52099243 209.9567981 -114.52099243 209.9567981 -113.6953125 208.5625 C-113.2120752 207.74265625 -112.72883789 206.9228125 -112.23095703 206.078125 C-111.80411621 205.49546875 -111.37727539 204.9128125 -110.9375 204.3125 C-110.2775 204.3125 -109.6175 204.3125 -108.9375 204.3125 C-108.834375 203.714375 -108.73125 203.11625 -108.625 202.5 C-107.82614349 199.95818383 -106.83678455 199.13873514 -104.9375 197.3125 C-104.53402344 196.62671875 -104.13054687 195.9409375 -103.71484375 195.234375 C-101.3293677 191.31275722 -98.61851143 187.67663388 -95.875 184 C-95.06192383 182.88915039 -95.06192383 182.88915039 -94.23242188 181.75585938 C-93.71099609 181.05654297 -93.18957031 180.35722656 -92.65234375 179.63671875 C-92.17917725 178.99822998 -91.70601074 178.35974121 -91.21850586 177.7019043 C-90.79577393 177.24340088 -90.37304199 176.78489746 -89.9375 176.3125 C-89.2775 176.3125 -88.6175 176.3125 -87.9375 176.3125 C-87.68355469 175.61511719 -87.42960937 174.91773438 -87.16796875 174.19921875 C-85.79065427 170.96799525 -84.07508691 168.12617434 -82.25 165.125 C-79.08594286 159.70766241 -76.40904205 154.19324189 -74.0625 148.375 C-73.63384644 147.35853394 -73.63384644 147.35853394 -73.1965332 146.3215332 C-68.84696274 135.10243412 -68.64084204 122.65141544 -68.81773567 110.77690125 C-68.84871339 108.64603257 -68.86493382 106.51545079 -68.87779236 104.38439941 C-68.916895 98.33791379 -68.98229068 92.29178314 -69.05395508 86.24560547 C-69.09720233 82.51302268 -69.12495883 78.78055443 -69.14425468 75.04777527 C-69.1546498 73.64782522 -69.17084109 72.24790305 -69.19355965 70.84809875 C-69.46929479 53.84709911 -65.88899212 39.37848506 -57.9375 24.3125 C-57.2775 24.3125 -56.6175 24.3125 -55.9375 24.3125 C-55.5971875 23.4771875 -55.5971875 23.4771875 -55.25 22.625 C-52.7184888 18.16471836 -49.43478171 15.56114086 -44.9375 13.3125 C-44.6075 12.3225 -44.2775 11.3325 -43.9375 10.3125 C-41.33507586 8.66429805 -40.07501221 8.3125 -36.9375 8.3125 C-36.9375 7.6525 -36.9375 6.9925 -36.9375 6.3125 C-35.33816393 5.67524037 -33.73261868 5.05356646 -32.125 4.4375 C-31.23167969 4.08945313 -30.33835937 3.74140625 -29.41796875 3.3828125 C-19.66824329 0.38458043 -10.15266566 -0.02547081 0 0 Z M-6.9375 73.3125 C-10.43296567 80.43289304 -11.07164424 86.53213411 -10.9375 94.3125 C-9.45934338 94.9814032 -7.97994528 95.64756359 -6.5 96.3125 C-5.67628906 96.68375 -4.85257813 97.055 -4.00390625 97.4375 C-2.15803008 98.37748732 -2.15803008 98.37748732 -0.9375 98.3125 C-0.85113281 97.51585937 -0.76476562 96.71921875 -0.67578125 95.8984375 C0.20896835 89.22628917 0.85905958 84.78987897 6.0625 80.3125 C8.5625 79.25 8.5625 79.25 11.0625 79.3125 C14.74622264 80.97894595 17.04687165 82.81950769 19.0625 86.3125 C19.35665128 89.05502815 19.48235677 91.51622899 19.4375 94.25 C19.44910156 94.95318359 19.46070313 95.65636719 19.47265625 96.38085938 C19.44739651 100.87288258 18.73664326 103.69745448 16.0625 107.3125 C16.61679687 107.51746094 17.17109375 107.72242188 17.7421875 107.93359375 C18.46664062 108.20300781 19.19109375 108.47242188 19.9375 108.75 C20.65679687 109.01683594 21.37609375 109.28367188 22.1171875 109.55859375 C24.0625 110.3125 24.0625 110.3125 26.0625 111.3125 C26.88261312 109.75398245 27.69326213 108.19048284 28.5 106.625 C28.95246094 105.75488281 29.40492188 104.88476562 29.87109375 103.98828125 C33.59154828 95.63250632 32.85812404 86.03172322 29.9765625 77.53515625 C27.25392288 70.91472059 23.20417503 67.26732002 17.25 63.5625 C7.27393973 59.6503195 -1.3905533 64.56539175 -6.9375 73.3125 Z M-54.9375 73.3125 C-54.9375 73.9725 -54.9375 74.6325 -54.9375 75.3125 C-55.5975 75.3125 -56.2575 75.3125 -56.9375 75.3125 C-60.03106436 85.1732364 -60.48590565 95.83506899 -55.9375 105.3125 C-54.70828765 107.43608549 -53.40540449 109.33842155 -51.9375 111.3125 C-50.6175 110.3225 -49.2975 109.3325 -47.9375 108.3125 C-48.081875 107.735 -48.22625 107.1575 -48.375 106.5625 C-48.560625 105.82 -48.74625 105.0775 -48.9375 104.3125 C-49.11023438 103.72855469 -49.28296875 103.14460938 -49.4609375 102.54296875 C-50.05039091 99.7841335 -50.1072164 97.19547882 -50.125 94.375 C-50.13917969 93.35535156 -50.15335938 92.33570312 -50.16796875 91.28515625 C-49.93194914 88.24090333 -49.22002995 86.06512357 -47.9375 83.3125 C-45.6275 83.3125 -43.3175 83.3125 -40.9375 83.3125 C-37.59155342 88.49332051 -36.36923504 92.16027564 -35.9375 98.3125 C-31.85785719 97.01094994 -31.85785719 97.01094994 -27.9375 95.3125 C-27.53142889 85.36375775 -29.59976634 78.1361138 -35.9375 70.3125 C-39.4763132 67.12612958 -42.0213152 66.6856196 -46.67578125 66.81640625 C-50.74964425 67.70998242 -52.4217395 70.08716602 -54.9375 73.3125 Z M75.0625 201.3125 C76.0525 202.3025 77.0425 203.2925 78.0625 204.3125 C77.7325 203.3225 77.4025 202.3325 77.0625 201.3125 C76.4025 201.3125 75.7425 201.3125 75.0625 201.3125 Z M79.0625 205.3125 C79.7225 206.6325 80.3825 207.9525 81.0625 209.3125 C81.3925 208.6525 81.7225 207.9925 82.0625 207.3125 C81.7325 206.6525 81.4025 205.9925 81.0625 205.3125 C80.4025 205.3125 79.7425 205.3125 79.0625 205.3125 Z M82.0625 209.3125 C82.7225 210.9625 83.3825 212.6125 84.0625 214.3125 C84.7225 214.3125 85.3825 214.3125 86.0625 214.3125 C85.4025 212.6625 84.7425 211.0125 84.0625 209.3125 C83.4025 209.3125 82.7425 209.3125 82.0625 209.3125 Z M-93.9375 211.3125 C-93.9375 214.3125 -93.9375 214.3125 -93.9375 214.3125 Z M86.0625 214.3125 C86.3925 215.9625 86.7225 217.6125 87.0625 219.3125 C87.7225 219.3125 88.3825 219.3125 89.0625 219.3125 C89.0625 219.9725 89.0625 220.6325 89.0625 221.3125 C89.7225 221.3125 90.3825 221.3125 91.0625 221.3125 C89.81273244 217.65933329 89.39151247 216.53184164 86.0625 214.3125 Z M-96.9375 216.3125 C-97.9275 217.7975 -97.9275 217.7975 -98.9375 219.3125 C-98.6075 220.3025 -98.2775 221.2925 -97.9375 222.3125 C-97.2775 221.3225 -96.6175 220.3325 -95.9375 219.3125 C-96.2675 218.3225 -96.5975 217.3325 -96.9375 216.3125 Z M-99.9375 222.3125 C-102.62179577 225.31891127 -102.9375 226.06839918 -102.9375 230.3125 C-102.2775 230.3125 -101.6175 230.3125 -100.9375 230.3125 C-100.2775 227.6725 -99.6175 225.0325 -98.9375 222.3125 C-99.2675 222.3125 -99.5975 222.3125 -99.9375 222.3125 Z M-103.9375 230.3125 C-104.5975 231.6325 -105.2575 232.9525 -105.9375 234.3125 C-105.2775 234.3125 -104.6175 234.3125 -103.9375 234.3125 C-103.6075 232.9925 -103.2775 231.6725 -102.9375 230.3125 C-103.2675 230.3125 -103.5975 230.3125 -103.9375 230.3125 Z " fill="#070606" transform="translate(287.9375,-0.3125)"/>
<path d="M0 0 C1.02734375 2.37109375 1.02734375 2.37109375 1.9375 5.4375 C4.05475437 12.23372491 6.38765178 18.83731696 9.625 25.1875 C11 28 11 28 12 31.5625 C12.80889028 34.91444656 12.80889028 34.91444656 14.38671875 37.2421875 C16.31684872 40.54163485 17.5478674 43.97401388 18.8125 47.5625 C21.05355446 53.74823514 23.6627237 59.56470712 26.69921875 65.41015625 C28.07950412 68.15829199 29.13821786 70.90414623 30.15234375 73.80078125 C31.73883506 77.91688544 33.7033075 81.87005598 35.59765625 85.8515625 C36.94162107 88.86893198 37.99397494 91.85617168 39 95 C39.8072972 97.27268817 40.62003105 99.54345068 41.4375 101.8125 C44.62286446 110.72964123 44.62286446 110.72964123 45.75 114 C45.97171875 114.639375 46.1934375 115.27875 46.421875 115.9375 C46.61265625 116.618125 46.8034375 117.29875 47 118 C47.47373047 119.39412109 47.47373047 119.39412109 47.95703125 120.81640625 C48.0138328 125.02488483 46.60001318 126.23076568 43.75976562 129.16210938 C43.15841797 129.74798828 42.55707031 130.33386719 41.9375 130.9375 C40.77862768 132.11198002 39.62107121 133.28775988 38.46484375 134.46484375 C37.89032471 135.04274658 37.31580566 135.62064941 36.72387695 136.21606445 C32.59477656 140.48901964 28.91295721 144.80733715 26 150 C25.62101563 150.54914063 25.24203125 151.09828125 24.8515625 151.6640625 C18.54780096 160.94778404 16.69299933 170.66818392 15.72021484 181.63769531 C15.1599965 187.90568153 14.20430942 194.01755716 13.03271484 200.19775391 C12.32183291 203.99424283 11.80920911 207.70913865 11.5625 211.5625 C11.04442054 217.52549297 8.9158861 222.0841139 4.6875 226.3125 C1.56686421 228.27196898 -1.57822749 229.67974087 -5 231 C-5.98613281 231.40476562 -6.97226562 231.80953125 -7.98828125 232.2265625 C-9.08527344 232.66742188 -10.18226563 233.10828125 -11.3125 233.5625 C-12.33988281 233.97628906 -13.36726563 234.39007813 -14.42578125 234.81640625 C-23.1841449 237.71671684 -31.61811894 238.38774482 -40.8125 238.375 C-42.53182739 238.37367065 -42.53182739 238.37367065 -44.28588867 238.37231445 C-54.81148624 238.2248468 -62.94629272 236.5577213 -72 231 C-73.010625 230.525625 -74.02125 230.05125 -75.0625 229.5625 C-77.96634403 228.01790211 -79.81829192 226.43344363 -82 224 C-81.34 222.68 -80.68 221.36 -80 220 C-79.34 220 -78.68 220 -78 220 C-77.71125 219.4225 -77.4225 218.845 -77.125 218.25 C-76 216 -76 216 -74.9453125 214.28515625 C-72.09600877 207.39737658 -73.39033668 197.85036622 -76 191 C-76.66 191 -77.32 191 -78 191 C-78.24492187 190.28585937 -78.48984375 189.57171875 -78.7421875 188.8359375 C-82.47666129 180.41597485 -89.93539647 173.70306176 -97 168 C-97.83273438 167.30390625 -98.66546875 166.6078125 -99.5234375 165.890625 C-103.40506185 162.66520648 -107.30674346 159.48885955 -111.37109375 156.49609375 C-112.20108887 155.88483643 -112.20108887 155.88483643 -113.04785156 155.26123047 C-114.61396567 154.11626021 -116.18766892 152.98169215 -117.76171875 151.84765625 C-118.50035156 151.23792969 -119.23898438 150.62820313 -120 150 C-120 149.34 -120 148.68 -120 148 C-121.32 147.67 -122.64 147.34 -124 147 C-123.45276317 143.62537285 -122.9451 141.91765 -121 139 C-120.46184941 136.67813804 -120.46184941 136.67813804 -120.125 134 C-117.78488932 118.95381959 -114.84771556 104.69543112 -108 91 C-107.52503201 89.58882343 -107.06827463 88.17145049 -106.625 86.75 C-105.51587594 83.26418154 -104.12053083 80.12260788 -102.4375 76.875 C-100.99360525 74.0854637 -99.92253406 71.726287 -99.0625 68.6875 C-97.72955341 64.06139125 -95.7105171 59.90911552 -93.6328125 55.57421875 C-89.84516267 47.2830714 -86.80990119 38.76987602 -83.9375 30.125 C-83.59912109 29.12597656 -83.26074219 28.12695312 -82.91210938 27.09765625 C-80.59108159 20.13906231 -78.68139751 13.13939935 -77 6 C-74.54232527 7.20223915 -72.22725168 8.46364899 -69.875 9.875 C-68.58967725 10.59478074 -67.29745913 11.30233339 -66 12 C-65.30261719 12.37898437 -64.60523438 12.75796875 -63.88671875 13.1484375 C-55.65462177 17.0500364 -46.06914361 17.452812 -37.2421875 15.33984375 C-34.71972391 14.3783106 -32.39259352 13.25100546 -30 12 C-28.865625 11.44441406 -27.73125 10.88882813 -26.5625 10.31640625 C-23.02277818 8.58024127 -19.51030081 6.79489756 -16 5 C-3.7267658 -1.24225527 -3.7267658 -1.24225527 0 0 Z " fill="#FDFDFD" transform="translate(317,153)"/>
<path d="M0 0 C9.55334571 3.60503612 13.26861633 13.43500918 18.0390625 21.828125 C19.98506167 25.24476477 21.9672767 28.63434338 24 32 C24.47179687 32.80179687 24.94359375 33.60359375 25.4296875 34.4296875 C28.41154136 39.47466187 31.56006155 44.25846322 35 49 C36.95162856 51.99714386 38.34668374 54.47209221 39 58 C39.66 58 40.32 58 41 58 C42.21875 59.71484375 42.21875 59.71484375 43.5 61.9375 C45.18454879 65.05432026 45.18454879 65.05432026 48 67 C49.03013277 68.64821244 50.02065076 70.32111559 51 72 C51.97246696 73.46280945 52.95228164 74.92074821 53.9375 76.375 C56.48009552 80.17319825 58.81111823 83.9870501 61 88 C61.38542969 88.64839844 61.77085937 89.29679687 62.16796875 89.96484375 C64.05338501 93.31740987 64.99023704 95.47280042 65.0625 99.375 C63.04263912 106.26629007 60.45318791 113.24814656 54 117 C44.52055937 121.24740721 36.03223621 121.83009096 26 119.1875 C25.32710938 119.02185547 24.65421875 118.85621094 23.9609375 118.68554688 C19.40810376 117.52097068 15.29433257 115.90293884 11 114 C8.68357772 113.20062115 6.35627752 112.47038657 4.015625 111.74609375 C2 111 2 111 -1 109 C-3.66727387 108.2602144 -6.30113773 107.59805994 -9 107 C-9.74330566 106.835 -10.48661133 106.67 -11.25244141 106.5 C-13.60352197 105.98852634 -15.95713159 105.49133748 -18.3125 105 C-19.14845703 104.82557373 -19.98441406 104.65114746 -20.84570312 104.47143555 C-32.68289223 101.97387989 -32.68289223 101.97387989 -44.6875 100.625 C-49.71278049 100.22182563 -53.88860855 98.98822938 -58 96 C-60.67445663 91.98831505 -60.45898634 88.64307921 -60 84 C-59.29465466 80.69751602 -58.4827673 77.43033761 -57.671875 74.15234375 C-56.5926032 69.08855108 -56.55448315 64.42361168 -57.48828125 59.34375 C-58.14832532 55.0307903 -58.33976344 50.79520257 -58.4375 46.4375 C-58.48326172 45.60025391 -58.52902344 44.76300781 -58.57617188 43.90039062 C-58.68551992 37.89575677 -58.68551992 37.89575677 -56.75415039 35.37207031 C-55.1875 34.04296875 -55.1875 34.04296875 -52 32 C-51.07380859 31.37738281 -51.07380859 31.37738281 -50.12890625 30.7421875 C-47.32192524 29.18819801 -44.60699787 27.83988802 -41.625 26.625 C-36.47687396 24.31721936 -31.32230576 21.38865735 -27.359375 17.3125 C-26 16 -26 16 -24 16 C-23.34 14.35 -22.68 12.7 -22 11 C-21.34 11 -20.68 11 -20 11 C-19.731875 10.401875 -19.46375 9.80375 -19.1875 9.1875 C-18.00082594 7.00152146 -16.90400887 5.58667406 -15 4 C-14.34 4 -13.68 4 -13 4 C-12.71125 3.360625 -12.4225 2.72125 -12.125 2.0625 C-9.56499561 -2.63084139 -4.50698813 -0.85123553 0 0 Z " fill="#FDBC03" transform="translate(166,311)"/>
<path d="M0 0 C1.7829277 2.20743429 3.1073604 4.23005799 4.3125 6.8125 C7.09531891 12.06893571 10.18888432 16.56258661 15.8125 18.9375 C24.88423819 21.67613795 33.42532014 19.66575533 42 16 C44.51457125 14.31737334 46.7793218 12.50955232 49.08203125 10.55078125 C53.58991542 6.9059136 58.37854674 6.50689006 64 7 C68.32075981 7.96844616 70.09776777 8.5788057 72.48046875 12.33203125 C74.88637332 17.37666987 76.44983649 22.31780671 77.46484375 27.796875 C78.26511766 31.09143328 79.70558838 34.02086977 81.1953125 37.0546875 C82 39 82 39 82 42 C82.66 42 83.32 42 84 42 C85.47265625 44.08203125 85.47265625 44.08203125 87.0625 46.8125 C87.58972656 47.70582031 88.11695313 48.59914063 88.66015625 49.51953125 C90 52 90 52 91 55 C91.66 55 92.32 55 93 55 C95.23117064 59.33109594 95.33821718 62.31623988 94 67 C90.02188834 70.7774354 86.11173266 73.14546253 81.125 75.5 C76.49032218 77.73263597 72.0374771 80.06741904 67.73046875 82.88671875 C65.98345619 84.01064331 64.19897245 85.00690437 62.375 86 C59.83108973 87.50750238 57.93066488 88.8378899 55.75 90.75 C53 93 53 93 50 93 C49.60941406 93.89332031 49.60941406 93.89332031 49.2109375 94.8046875 C47.91233375 97.15893043 46.67520844 98.40351697 44.625 100.125 C43.91859375 100.72183594 43.2121875 101.31867188 42.484375 101.93359375 C41.66453125 102.61550781 40.8446875 103.29742187 40 104 C39.01515625 104.83660156 38.0303125 105.67320312 37.015625 106.53515625 C24.69005873 116.95506216 15.06791669 122.47384173 -1.3046875 122.42578125 C-6.38099865 121.84087859 -9.77487804 119.97730695 -13 116 C-13 115.34 -13 114.68 -13 114 C-13.66 114 -14.32 114 -15 114 C-22.15377149 103.65258053 -20.29020741 94.26406641 -18.27929688 82.48364258 C-17.4465453 77.92605461 -16.40061454 73.62951842 -14.7578125 69.2890625 C-13.32899277 64.97314311 -12.55011809 60.48929253 -11.6484375 56.0390625 C-11 53 -11 53 -10 50 C-9.67702126 47.37506367 -9.38907457 44.75587109 -9.125 42.125 C-8.36862793 35.00322928 -7.49280756 27.90523771 -6.5 20.8125 C-6.32235107 19.50466553 -6.32235107 19.50466553 -6.14111328 18.17041016 C-4.23858533 4.81657424 -4.23858533 4.81657424 0 0 Z " fill="#FDBC02" transform="translate(358,314)"/>
<path d="M0 0 C2.475 0.495 2.475 0.495 5 1 C4.01 1.33 3.02 1.66 2 2 C1.67 2.99 1.34 3.98 1 5 C2.85989649 5.92994824 4.72016176 6.85916452 6.58203125 7.78515625 C8.23154487 8.61391027 9.87458104 9.45565264 11.51171875 10.30859375 C15.18905477 12.20639197 18.56583912 13.87813028 22.5625 15 C28.30815448 16.67146312 35.69343203 19.82450231 39 25 C39.90146589 29.09249558 39.90426163 32.48922142 37.71875 36.140625 C36.2308303 37.93488111 34.81543712 39.53730325 33 41 C32.34 41 31.68 41 31 41 C31 41.66 31 42.32 31 43 C30.12859375 43.43570313 29.2571875 43.87140625 28.359375 44.3203125 C27.78920654 44.60543701 27.21903809 44.89056152 26.6315918 45.18432617 C25.36495732 45.81756123 24.09819046 46.45053155 22.83129883 47.08325195 C19.78937497 48.60288254 16.74972369 50.12647733 13.71484375 51.66015625 C-9.28097633 63.26191838 -9.28097633 63.26191838 -17.875 61.0625 C-23.72510892 59.02048085 -29.14063005 55.83391355 -34 52 C-34 51.34 -34 50.68 -34 50 C-34.556875 49.73703125 -35.11375 49.4740625 -35.6875 49.203125 C-42.11238615 45.86044775 -48.9567808 41.77807913 -52 35 C-52.61812813 31.96337056 -52.45704652 30.19932563 -52 27 C-49.05822001 23.13891376 -45.09029115 20.47805216 -41.19921875 17.6171875 C-38.80033833 15.85317952 -36.42600232 14.06114168 -34.0625 12.25 C-33.31097656 11.67765625 -32.55945313 11.1053125 -31.78515625 10.515625 C-29.89044946 9.10788908 -29.89044946 9.10788908 -29 7 C-22.52571464 2.95357165 -17.52635679 2.48008927 -10 2.75 C-8.55173828 2.77707031 -8.55173828 2.77707031 -7.07421875 2.8046875 C-4.71507967 2.85140313 -2.35808925 2.91687863 0 3 C0 2.01 0 1.02 0 0 Z " fill="#FC9329" transform="translate(281,96)"/>
<path d="M0 0 C0.33 0 0.66 0 1 0 C1.19491452 1.45736087 1.38069358 2.91594593 1.5625 4.375 C1.66691406 5.18710938 1.77132812 5.99921875 1.87890625 6.8359375 C2 9 2 9 1 11 C0.01 11 -0.98 11 -2 11 C-2.33 11.99 -2.66 12.98 -3 14 C-3.33 14 -3.66 14 -4 14 C-4.28037109 15.37671875 -4.28037109 15.37671875 -4.56640625 16.78125 C-6.43109348 20.9679047 -8.89288302 21.89616011 -12.9375 23.5 C-14.31132969 24.08649634 -15.68372213 24.67637028 -17.0546875 25.26953125 C-17.72983398 25.55779785 -18.40498047 25.84606445 -19.10058594 26.14306641 C-21.69646623 27.31421548 -24.11407444 28.7367165 -26.5625 30.1875 C-33.74826635 34.16055412 -42.51974039 38.0750901 -50.875 36.5625 C-55.26434741 35.18158171 -59.50228282 33.00696604 -63 30 C-63.33 29.01 -63.66 28.02 -64 27 C-62.68 26.34 -61.36 25.68 -60 25 C-59.67 25.33 -59.34 25.66 -59 26 C-57.43827255 26.08685603 -55.87270656 26.10702219 -54.30859375 26.09765625 C-53.36435547 26.09443359 -52.42011719 26.09121094 -51.44726562 26.08789062 C-49.95743164 26.07532227 -49.95743164 26.07532227 -48.4375 26.0625 C-47.44041016 26.05798828 -46.44332031 26.05347656 -45.41601562 26.04882812 C-42.94395151 26.03700007 -40.47200482 26.02051849 -38 26 C-38 25.01 -38 24.02 -38 23 C-37.16597656 22.62488281 -36.33195312 22.24976563 -35.47265625 21.86328125 C-29.46216451 19.12998775 -23.59969949 16.30697114 -17.8671875 13.03125 C-14.69786415 11.28082874 -11.42343939 10.14114646 -8 9 C-6.9790625 7.9790625 -6.9790625 7.9790625 -5.9375 6.9375 C-4.9784375 5.9784375 -4.9784375 5.9784375 -4 5 C-3.34 5 -2.68 5 -2 5 C-1.34 3.35 -0.68 1.7 0 0 Z M-5 7 C-4 9 -4 9 -4 9 Z " fill="#F7942C" transform="translate(315,121)"/>
<path d="M0 0 C3.58760119 3.47713253 4.83982617 4.93568708 5.59375 9.9453125 C5.58850115 11.33888221 5.55683348 12.73257979 5.5 14.125 C5.50386719 15.17880859 5.50386719 15.17880859 5.5078125 16.25390625 C5.42894938 20.42576513 4.94475233 22.97692979 2 26 C4.64 27.32 7.28 28.64 10 30 C8.515 30.495 8.515 30.495 7 31 C6.67 31.66 6.34 32.32 6 33 C-4.31834985 30.58715393 -12.91535156 26.33229365 -22 21 C-21.34 19.68 -20.68 18.36 -20 17 C-18.68 17.33 -17.36 17.66 -16 18 C-16.061875 16.453125 -16.061875 16.453125 -16.125 14.875 C-15.89917437 7.87440534 -13.71192086 3.94177065 -9 -1 C-5.09415641 -2.30194786 -3.71345493 -1.70818927 0 0 Z " fill="#171515" transform="translate(303,80)"/>
<path d="M0 0 C0.7425 0.2475 1.485 0.495 2.25 0.75 C-2.63770813 11.94285161 -17.3385102 17.85659979 -27.75 22.75 C-28.66265625 23.23339844 -28.66265625 23.23339844 -29.59375 23.7265625 C-36.65150127 27.03875279 -46.30889564 27.42225997 -53.76611328 25.13037109 C-60.46120704 22.47873301 -65.74816048 18.95261144 -70.75 13.75 C-71.45125 13.399375 -72.1525 13.04875 -72.875 12.6875 C-75.33595759 11.45702121 -76.36288919 10.10808838 -77.75 7.75 C-77.75 6.43 -77.75 5.11 -77.75 3.75 C-74.96895249 3.83179551 -73.25355998 4.24907646 -71.2578125 6.234375 C-70.23430512 7.4753114 -69.21891868 8.72298185 -68.2109375 9.9765625 C-64.10176588 14.96470131 -57.93274478 18.99568218 -51.51220703 20.15356445 C-49.16024583 20.32170573 -46.8574813 20.35660988 -44.5 20.3125 C-43.6651709 20.30154297 -42.8303418 20.29058594 -41.97021484 20.27929688 C-30.46405076 19.87877289 -21.88489524 14.49638093 -12.46484375 8.421875 C-9.75 6.75 -9.75 6.75 -6.75 5.75 C-6.75 5.09 -6.75 4.43 -6.75 3.75 C-3.60436893 -0.3276699 -3.60436893 -0.3276699 0 0 Z " fill="#200D01" transform="translate(309.75,120.25)"/>
<path d="M0 0 C3.1875 -0.5 3.1875 -0.5 7 0 C10.01245317 2.86332183 11.76167239 6.19115457 12.3046875 10.3125 C12.3125 12.5 12.3125 12.5 12 16 C13.423125 15.2575 13.423125 15.2575 14.875 14.5 C18 13 18 13 20 13 C19.67 13.99 19.34 14.98 19 16 C18.34 16 17.68 16 17 16 C16.01 18.475 16.01 18.475 15 21 C14.01 21 13.02 21 12 21 C11.67 21.99 11.34 22.98 11 24 C9.36735356 25.45961383 7.67087977 26.84906752 5.9375 28.1875 C5.01839844 28.90292969 4.09929687 29.61835937 3.15234375 30.35546875 C2.44207031 30.89816406 1.73179687 31.44085938 1 32 C0.34 31.01 -0.32 30.02 -1 29 C-1.66 28.67 -2.32 28.34 -3 28 C-2.34 27.34 -1.68 26.68 -1 26 C-1.27617533 24.05925139 -1.27617533 24.05925139 -2 22 C-3.80750986 15.94818921 -4.41633623 8.00013464 -1.5 2.25 C-0.7575 1.13625 -0.7575 1.13625 0 0 Z " fill="#0F0D0C" transform="translate(240,82)"/>
<path d="M0 0 C1.04449911 3.13349732 0.93423645 3.98968256 0 7 C-0.99 7 -1.98 7 -3 7 C-1.18405705 12.34586499 -1.18405705 12.34586499 2.875 15.9375 C5 17 5 17 6.75390625 18.83203125 C14.40746922 26.21938334 23.0328475 28.61980892 33.375 28.4375 C36.25848884 28.34685344 39.12068777 28.19338664 42 28 C42 28.66 42 29.32 42 30 C38.37503356 30.16740204 34.7500216 30.33379703 31.125 30.5 C30.09246094 30.54769531 29.05992187 30.59539062 27.99609375 30.64453125 C26.51689453 30.71220703 26.51689453 30.71220703 25.0078125 30.78125 C23.64100342 30.8440918 23.64100342 30.8440918 22.24658203 30.90820312 C20.83190448 30.96600782 19.41585803 31 18 31 C17.67 31.66 17.34 32.32 17 33 C15.35 32.34 13.7 31.68 12 31 C12 30.34 12 29.68 12 29 C11.443125 28.73703125 10.88625 28.4740625 10.3125 28.203125 C3.88761385 24.86044775 -2.9567808 20.77807913 -6 14 C-6.61812813 10.96337056 -6.45704652 9.19932563 -6 6 C-3.5625 3.0625 -3.5625 3.0625 -1 1 C-0.67 0.67 -0.34 0.34 0 0 Z " fill="#DE9137" transform="translate(235,117)"/>
<path d="M0 0 C2.78104751 0.08179551 4.49644002 0.49907646 6.4921875 2.484375 C7.51569488 3.7253114 8.53108132 4.97298185 9.5390625 6.2265625 C13.71093433 11.29081334 19.91357371 15.29950495 26.43115234 16.41674805 C28.95883132 16.61101443 31.46536642 16.70717209 34 16.75 C35.30517578 16.79447266 35.30517578 16.79447266 36.63671875 16.83984375 C38.75733216 16.90975408 40.87866563 16.95723116 43 17 C43 17.33 43 17.66 43 18 C39.04 18 35.08 18 31 18 C31 18.66 31 19.32 31 20 C34.63 20.33 38.26 20.66 42 21 C42 21.33 42 21.66 42 22 C30.23578433 22.96252674 21.95905267 21.73049704 12 15 C10.30600678 13.36111547 8.63355896 11.69912939 7 10 C6.29875 9.649375 5.5975 9.29875 4.875 8.9375 C2.41404241 7.70702121 1.38711081 6.35808838 0 4 C0 2.68 0 1.36 0 0 Z " fill="#331804" transform="translate(232,124)"/>
<path d="M0 0 C1.77708563 2.20020126 3.12832664 4.26248631 4.375 6.8125 C6.26848573 10.52664508 8.52179391 13.65107286 11 17 C7.63279613 15.60667426 6.0140476 14.0210714 4 11 C3.071875 11.2475 3.071875 11.2475 2.125 11.5 C0 12 0 12 -2 12 C-2.33 13.32 -2.66 14.64 -3 16 C-3.66 16 -4.32 16 -5 16 C-4.98839844 17.14339844 -4.97679687 18.28679687 -4.96484375 19.46484375 C-4.95546712 20.95572754 -4.94636679 22.44661309 -4.9375 23.9375 C-4.92912109 24.69224609 -4.92074219 25.44699219 -4.91210938 26.22460938 C-4.90347559 28.14994313 -4.94775667 30.07535581 -5 32 C-5.495 32.495 -5.495 32.495 -6 33 C-6.13641839 35.18572573 -6.23262695 37.3739783 -6.3125 39.5625 C-6.7423042 48.0647897 -8.74164801 55.81027826 -11 64 C-11.33525106 65.44907646 -11.66989026 66.89829461 -12.00390625 68.34765625 C-13 72 -13 72 -15 74 C-14.16624109 67.83018405 -13.32965383 61.77512821 -11.5 55.8125 C-9.93288006 50.38242941 -9.33486658 44.94244944 -8.76953125 39.34179688 C-8.14215242 33.14514529 -7.3676102 26.98012404 -6.5 20.8125 C-6.38140625 19.93996582 -6.2628125 19.06743164 -6.140625 18.16845703 C-4.23966027 4.81779576 -4.23966027 4.81779576 0 0 Z " fill="#E3B822" transform="translate(358,314)"/>
<path d="M0 0 C2 0.66666667 4 1.33333333 6 2 C6.68835938 2.20625 7.37671875 2.4125 8.0859375 2.625 C14.86349172 4.7177185 24.03199356 7.78920731 28 14 C28.90146589 18.09249558 28.90426163 21.48922142 26.71875 25.140625 C25.2308303 26.93488111 23.81543712 28.53730325 22 30 C21.34 30 20.68 30 20 30 C20 30.66 20 31.32 20 32 C19.34 32 18.68 32 18 32 C18.47645208 27.71193127 19.65902484 25.73352513 23 23 C23.66 23 24.32 23 25 23 C24.34 21.35 23.68 19.7 23 18 C22.38125 18.495 21.7625 18.99 21.125 19.5 C19 21 19 21 17 21 C16.34 22.32 15.68 23.64 15 25 C13.35 25 11.7 25 10 25 C15 20 15 20 17.3125 17.8125 C19.22713951 16.16877727 19.22713951 16.16877727 19 14 C17.68 13.67 16.36 13.34 15 13 C14.67 13.99 14.34 14.98 14 16 C13.67 14.68 13.34 13.36 13 12 C15.64 12 18.28 12 21 12 C21 11.34 21 10.68 21 10 C20.175 9.731875 19.35 9.46375 18.5 9.1875 C15.27568014 8.09353433 12.10358041 6.91363658 8.9296875 5.68359375 C6.97256976 4.99028281 5.02090645 4.47154484 3 4 C3 3.34 3 2.68 3 2 C2.01 2 1.02 2 0 2 C0 1.34 0 0.68 0 0 Z " fill="#EB9332" transform="translate(292,107)"/>
<path d="M0 0 C2.475 0.495 2.475 0.495 5 1 C4.01 1.33 3.02 1.66 2 2 C1.67 2.99 1.34 3.98 1 5 C2.98 5.99 4.96 6.98 7 8 C6.360625 8.103125 5.72125 8.20625 5.0625 8.3125 C4.381875 8.539375 3.70125 8.76625 3 9 C2.67 9.99 2.34 10.98 2 12 C1.34 12.66 0.68 13.32 0 14 C-3.50500209 13.95190392 -6.7354144 13.26685411 -10 12 C-12.125 8.875 -12.125 8.875 -13 6 C-14.6396875 6.061875 -14.6396875 6.061875 -16.3125 6.125 C-20 6 -20 6 -23 4 C-20.54724859 2.7736243 -18.9494219 2.88584686 -16.2109375 2.90234375 C-15.26992188 2.90556641 -14.32890625 2.90878906 -13.359375 2.91210938 C-12.37453125 2.92048828 -11.3896875 2.92886719 -10.375 2.9375 C-9.38242187 2.94201172 -8.38984375 2.94652344 -7.3671875 2.95117188 C-4.9113984 2.96297855 -2.45572896 2.979446 0 3 C0 2.01 0 1.02 0 0 Z " fill="#D88E3A" transform="translate(281,96)"/>
<path d="M0 0 C0.33 0 0.66 0 1 0 C1.19491452 1.45736087 1.38069358 2.91594593 1.5625 4.375 C1.66691406 5.18710938 1.77132813 5.99921875 1.87890625 6.8359375 C2 9 2 9 1 11 C0.01 11 -0.98 11 -2 11 C-2.56875382 12.70626145 -3.13386752 14.41377234 -3.6875 16.125 C-5 18 -5 18 -7.9375 18.6875 C-8.948125 18.790625 -9.95875 18.89375 -11 19 C-14.11785113 19.64644661 -14.11785113 19.64644661 -15 22 C-15.99 21.67 -16.98 21.34 -18 21 C-18 20.34 -18 19.68 -18 19 C-18.66 19 -19.32 19 -20 19 C-20 18.01 -20 17.02 -20 16 C-18.68 16 -17.36 16 -16 16 C-15.731875 15.38125 -15.46375 14.7625 -15.1875 14.125 C-13.4321693 10.98388191 -11.34337135 10.11445712 -8 9 C-7.319375 8.319375 -6.63875 7.63875 -5.9375 6.9375 C-5.298125 6.298125 -4.65875 5.65875 -4 5 C-3.34 5 -2.68 5 -2 5 C-1.34 3.35 -0.68 1.7 0 0 Z M-5 7 C-4 9 -4 9 -4 9 Z " fill="#FC9329" transform="translate(315,121)"/>
<path d="M0 0 C0.66 0.33 1.32 0.66 2 1 C0.75 3 0.75 3 -1 5 C-2.32 5 -3.64 5 -5 5 C-5 5.99 -5 6.98 -5 8 C-4.34 8 -3.68 8 -3 8 C-1.375 9.5 -1.375 9.5 0 11 C0.33 10.01 0.66 9.02 1 8 C3.95664519 6.5216774 6.74229737 6.93967217 10 7 C8.2906168 10.41876639 4.32482694 11.201802 0.9375 12.625 C0.17888672 12.94984375 -0.57972656 13.2746875 -1.36132812 13.609375 C-3.23837799 14.41213846 -5.1188756 15.20683143 -7 16 C-7.99 14.68 -8.98 13.36 -10 12 C-9.34 11.67 -8.68 11.34 -8 11 C-7.01 11.33 -6.02 11.66 -5 12 C-5.66 11.01 -6.32 10.02 -7 9 C-7.33 9.33 -7.66 9.66 -8 10 C-9.51928038 10.07179964 -11.04167482 10.08392007 -12.5625 10.0625 C-13.38878906 10.05347656 -14.21507812 10.04445312 -15.06640625 10.03515625 C-15.70449219 10.02355469 -16.34257812 10.01195312 -17 10 C-13.09447748 7.39631832 -8.93384575 5.48307673 -4.71484375 3.4375 C-1.94542394 2.14143905 -1.94542394 2.14143905 0 0 Z " fill="#E69333" transform="translate(300,132)"/>
<path d="M0 0 C0 0.66 0 1.32 0 2 C1.98 2 3.96 2 6 2 C6.66 3.65 7.32 5.3 8 7 C3.44573816 9.66590937 0.26053037 10.31563182 -5 10 C-5.33 9.01 -5.66 8.02 -6 7 C-5.67 6.34 -5.34 5.68 -5 5 C-5.66 4.67 -6.32 4.34 -7 4 C-5.53303752 1.06607504 -3.25996861 0 0 0 Z " fill="#E29739" transform="translate(258,101)"/>
<path d="M0 0 C2.91517292 1.07401108 4.77810176 1.77810176 7 4 C9.31648799 5.03842565 11.64903024 6.0421975 14 7 C14 7.66 14 8.32 14 9 C16.93774463 9.05390357 19.87450232 9.0936255 22.8125 9.125 C23.64587891 9.14175781 24.47925781 9.15851563 25.33789062 9.17578125 C26.54155273 9.18544922 26.54155273 9.18544922 27.76953125 9.1953125 C28.87711792 9.21102295 28.87711792 9.21102295 30.00708008 9.22705078 C32.31890676 9.11741479 32.31890676 9.11741479 35 7 C39.53681987 5.22435327 44.18444316 3.77670272 49 3 C42.91129153 9.6018798 35.63465466 11.1684 26.89355469 11.52758789 C18.84024303 11.63922259 12.43132546 11.34495292 6 6 C5.38640625 5.53464844 4.7728125 5.06929687 4.140625 4.58984375 C2.70493698 3.46039193 1.34227121 2.23901958 0 1 C0 0.67 0 0.34 0 0 Z " fill="#E49741" transform="translate(241,130)"/>
<path d="M0 0 C0.66 0.33 1.32 0.66 2 1 C2 1.99 2 2.98 2 4 C2.66 4 3.32 4 4 4 C5.21875 5.71484375 5.21875 5.71484375 6.5 7.9375 C8.18454879 11.05432026 8.18454879 11.05432026 11 13 C12.04644066 14.63790712 13.0398183 16.31008021 14 18 C14.556875 18.928125 15.11375 19.85625 15.6875 20.8125 C16.3371875 21.8953125 16.3371875 21.8953125 17 23 C16.01 23 15.02 23 14 23 C13.71125 22.360625 13.4225 21.72125 13.125 21.0625 C12.17176549 18.84793921 12.17176549 18.84793921 10 18 C10 17.01 10 16.02 10 15 C8.68 15.33 7.36 15.66 6 16 C6 15.01 6 14.02 6 13 C4.35 13 2.7 13 1 13 C1.33 12.01 1.66 11.02 2 10 C2.99 10.33 3.98 10.66 5 11 C5 10.34 5 9.68 5 9 C3.02 9 1.04 9 -1 9 C-0.67 6.03 -0.34 3.06 0 0 Z " fill="#EEB913" transform="translate(203,365)"/>
<path d="M0 0 C0.66 0.33 1.32 0.66 2 1 C1.1875 2.9375 1.1875 2.9375 0 5 C-0.99 5.33 -1.98 5.66 -3 6 C-3 6.66 -3 7.32 -3 8 C-3.66 8 -4.32 8 -5 8 C-5 8.66 -5 9.32 -5 10 C-4.34 10.33 -3.68 10.66 -3 11 C-3.33 12.32 -3.66 13.64 -4 15 C-5.3921875 15.1546875 -5.3921875 15.1546875 -6.8125 15.3125 C-10.03254358 16.0070192 -11.02579865 16.47740939 -13 19 C-13.66 18.01 -14.32 17.02 -15 16 C-13.71034824 14.62437146 -12.37310707 13.29233607 -11 12 C-10.34 12 -9.68 12 -9 12 C-8.34 10.35 -7.68 8.7 -7 7 C-6.34 7 -5.68 7 -5 7 C-4.731875 6.401875 -4.46375 5.80375 -4.1875 5.1875 C-3.01506533 3.02775192 -1.80630718 1.64209744 0 0 Z " fill="#EFBB11" transform="translate(151,315)"/>
<path d="M0 0 C1.32 0.33 2.64 0.66 4 1 C-6.17437341 8.74577072 -13.57517147 13.06745607 -26.5625 13.3125 C-27.86316406 13.34988281 -29.16382813 13.38726562 -30.50390625 13.42578125 C-34 13 -34 13 -36.46484375 10.98046875 C-37.22474609 10.00013672 -37.22474609 10.00013672 -38 9 C-35.03 9.495 -35.03 9.495 -32 10 C-32 10.66 -32 11.32 -32 12 C-18.46085528 11.14836154 -18.46085528 11.14836154 -7 5 C-6.01 5 -5.02 5 -4 5 C-4 4.01 -4 3.02 -4 2 C-2.68 2 -1.36 2 0 2 C0 1.34 0 0.68 0 0 Z " fill="#E9C02A" transform="translate(387,423)"/>
<path d="M0 0 C0.57878906 0.23074219 1.15757812 0.46148437 1.75390625 0.69921875 C0.76390625 0.69921875 -0.22609375 0.69921875 -1.24609375 0.69921875 C-1.34277344 1.31796875 -1.43945312 1.93671875 -1.5390625 2.57421875 C-2.24609375 4.69921875 -2.24609375 4.69921875 -5.55859375 6.69921875 C-10.16842331 8.81974035 -14.96930796 10.34818842 -19.8046875 11.8671875 C-22.16522345 12.4712796 -22.16522345 12.4712796 -23.24609375 13.69921875 C-28.86386372 14.05032937 -33.81188241 13.07933592 -39.24609375 11.69921875 C-39.24609375 11.03921875 -39.24609375 10.37921875 -39.24609375 9.69921875 C-38.44171875 9.86421875 -37.63734375 10.02921875 -36.80859375 10.19921875 C-26.91668125 11.58755735 -17.02008269 10.68821547 -8.5546875 4.83984375 C-7.04963273 3.60009517 -5.57566236 2.32079414 -4.1484375 0.9921875 C-2.24609375 -0.30078125 -2.24609375 -0.30078125 0 0 Z " fill="#E2B625" transform="translate(411.24609375,323.30078125)"/>
<path d="M0 0 C1.58467728 0.28427417 3.1677057 0.57774818 4.75 0.875 C6.07257813 1.11863281 6.07257813 1.11863281 7.421875 1.3671875 C10 2 10 2 11.87695312 3.02734375 C14.29420583 4.13478795 15.90140466 4.2310621 18.546875 4.1953125 C19.39121094 4.18886719 20.23554688 4.18242187 21.10546875 4.17578125 C22.41451172 4.15064453 22.41451172 4.15064453 23.75 4.125 C24.63816406 4.11597656 25.52632813 4.10695312 26.44140625 4.09765625 C28.62788058 4.07414577 30.81380094 4.04128499 33 4 C33 4.66 33 5.32 33 6 C29.37503356 6.16740204 25.7500216 6.33379703 22.125 6.5 C21.09246094 6.54769531 20.05992187 6.59539062 18.99609375 6.64453125 C17.51689453 6.71220703 17.51689453 6.71220703 16.0078125 6.78125 C15.09660645 6.82314453 14.18540039 6.86503906 13.24658203 6.90820312 C10.24148924 7.03099327 7.90528956 6.77474388 5 6 C5 5.34 5 4.68 5 4 C4.360625 3.896875 3.72125 3.79375 3.0625 3.6875 C2.381875 3.460625 1.70125 3.23375 1 3 C0.67 2.01 0.34 1.02 0 0 Z " fill="#F19735" transform="translate(244,141)"/>
<path d="M0 0 C2 0.66666667 4 1.33333333 6 2 C6.68835938 2.20625 7.37671875 2.4125 8.0859375 2.625 C14.86349172 4.7177185 24.03199356 7.78920731 28 14 C28.31044656 17.03080032 28.23338516 19.96599291 28 23 C27.34 23.33 26.68 23.66 26 24 C25.96261719 23.39671875 25.92523438 22.7934375 25.88671875 22.171875 C25.52629117 15.90088325 25.52629117 15.90088325 22 11 C16.15420122 7.26558309 9.68141815 5.62122646 3 4 C3 3.34 3 2.68 3 2 C2.01 2 1.02 2 0 2 C0 1.34 0 0.68 0 0 Z " fill="#C5832E" transform="translate(292,107)"/>
<path d="M0 0 C0.33 0 0.66 0 1 0 C1.18950874 6.19061884 0.09927133 11.51413376 -1.34375 17.5 C-2.59833991 24.19114618 -2.05909677 28.01481068 1 34 C0.6875 36.375 0.6875 36.375 0 38 C-6.65488826 28.64156338 -3.94732662 18.6790898 -2.15600586 8.01831055 C-1.14082639 2.28165277 -1.14082639 2.28165277 0 0 Z " fill="#E6BE2B" transform="translate(342,388)"/>
<path d="M0 0 C0 0.99 0 1.98 0 3 C-3.06533164 4.53266582 -6.26754272 4.10276471 -9.625 4.0625 C-10.33140625 4.05798828 -11.0378125 4.05347656 -11.765625 4.04882812 C-13.51045275 4.03703875 -15.255237 4.01910324 -17 4 C-16.67 3.01 -16.34 2.02 -16 1 C-14.08351538 0.83125293 -12.16680367 0.66508357 -10.25 0.5 C-9.18265625 0.4071875 -8.1153125 0.314375 -7.015625 0.21875 C-4.6820782 0.04947717 -2.33967818 0 0 0 Z " fill="#100300" transform="translate(279,141)"/>
<path d="M0 0 C1.36865828 0.37793325 2.74446385 0.73056781 4.125 1.0625 C8 2 8 2 11 3 C11 3.66 11 4.32 11 5 C10.01902344 4.70351563 9.03804687 4.40703125 8.02734375 4.1015625 C3.91533694 2.92670341 -0.23112245 2.12930009 -4.4375 1.375 C-5.53481445 1.17390625 -5.53481445 1.17390625 -6.65429688 0.96875 C-8.43563697 0.64275312 -10.21774098 0.320935 -12 0 C-12 -0.33 -12 -0.66 -12 -1 C-7.14684456 -1.95159911 -4.46076371 -2.06718318 0 0 Z " fill="#E1B625" transform="translate(150,414)"/>
<path d="M0 0 C-0.33 1.65 -0.66 3.3 -1 5 C-4 6 -4 6 -6 6 C-7.57822166 7.11672002 -9.11530628 8.29224502 -10.625 9.5 C-11.44226563 10.1496875 -12.25953125 10.799375 -13.1015625 11.46875 C-13.72804688 11.9740625 -14.35453125 12.479375 -15 13 C-15.66 12.67 -16.32 12.34 -17 12 C-14.78938209 8.68407314 -13.38803031 7.98862648 -10 6 C-7.9012282 4.42894242 -5.83082621 2.82690167 -3.76953125 1.20703125 C-2 0 -2 0 0 0 Z " fill="#1E1301" transform="translate(423,398)"/>
<path d="M0 0 C5.44567686 1.02862785 10.11817117 2.24614784 15 5 C15 5.33 15 5.66 15 6 C6.33274336 6.44070796 6.33274336 6.44070796 2 3 C1.34 2.01 0.68 1.02 0 0 Z " fill="#100400" transform="translate(247,138)"/>
<path d="M0 0 C5.625 -0.25 5.625 -0.25 9 2 C8.67 3.32 8.34 4.64 8 6 C5.33333333 5.33333333 2.66666667 4.66666667 0 4 C0 2.68 0 1.36 0 0 Z " fill="#220B00" transform="translate(273,104)"/>
<path d="M0 0 C0.33 1.32 0.66 2.64 1 4 C-3.43076923 6.09230769 -3.43076923 6.09230769 -6.3125 5.625 C-6.869375 5.41875 -7.42625 5.2125 -8 5 C-7.625 3.0625 -7.625 3.0625 -7 1 C-4.53721199 -0.231394 -2.7204945 -0.07159196 0 0 Z " fill="#260D01" transform="translate(263,104)"/>
<path d="M0 0 C0.33 0.99 0.66 1.98 1 3 C-0.65 3.33 -2.3 3.66 -4 4 C-4 4.66 -4 5.32 -4 6 C-5.60149886 6.67305018 -7.20631029 7.33822227 -8.8125 8 C-9.70582031 8.37125 -10.59914063 8.7425 -11.51953125 9.125 C-14 10 -14 10 -17 10 C-14.76112462 7.49017792 -12.72521358 6.26971205 -9.625 5 C-6.23380855 3.561648 -3.10432576 2.00279081 0 0 Z " fill="#D8AF1F" transform="translate(133,333)"/>
<path d="M0 0 C1.31554985 0.4495045 2.62738358 0.90989716 3.9375 1.375 C5.03384766 1.75785156 5.03384766 1.75785156 6.15234375 2.1484375 C8 3 8 3 9 5 C8.34 5 7.68 5 7 5 C7.33 5.99 7.66 6.98 8 8 C4.22454612 6.90931332 1.52956528 6.0916909 -1 3 C-0.67 2.01 -0.34 1.02 0 0 Z " fill="#100503" transform="translate(282,97)"/>
<path d="M0 0 C7.40239645 -0.12886183 14.63959083 0.20274098 22 1 C22 1.33 22 1.66 22 2 C21.44538086 2.02505615 20.89076172 2.0501123 20.31933594 2.07592773 C17.79601157 2.19227927 15.27302464 2.31482754 12.75 2.4375 C11.44095703 2.49647461 11.44095703 2.49647461 10.10546875 2.55664062 C9.26113281 2.59853516 8.41679687 2.64042969 7.546875 2.68359375 C6.77182617 2.72025146 5.99677734 2.75690918 5.19824219 2.79467773 C3.0425024 2.99603015 1.08198525 3.41729297 -1 4 C-0.67 2.68 -0.34 1.36 0 0 Z " fill="#170200" transform="translate(257,97)"/>
<path d="M0 0 C2.91517292 1.07401108 4.77810176 1.77810176 7 4 C9.31648799 5.03842565 11.64903024 6.0421975 14 7 C14 7.66 14 8.32 14 9 C15.32 9.33 16.64 9.66 18 10 C15 11 15 11 12.94921875 10.1796875 C8.2374297 7.46166066 4.00351016 4.69554784 0 1 C0 0.67 0 0.34 0 0 Z " fill="#DD9138" transform="translate(241,130)"/>
<path d="M0 0 C3.65882521 3.3621637 6.14420341 6.36050852 8 11 C7.67 11.66 7.34 12.32 7 13 C4.5625 11.8125 4.5625 11.8125 2 10 C1.25 7.625 1.25 7.625 1 5 C0.814375 4.071875 0.62875 3.14375 0.4375 2.1875 C0.293125 1.465625 0.14875 0.74375 0 0 Z " fill="#E1B51E" transform="translate(184,335)"/>
<path d="M0 0 C2 0.66666667 4 1.33333333 6 2 C7.11955078 2.34417969 7.11955078 2.34417969 8.26171875 2.6953125 C12.33823901 3.975542 15.77860238 5.05872391 19 8 C15.34056353 7.31092878 11.77558041 6.43178734 8.1875 5.4375 C7.21167969 5.16808594 6.23585938 4.89867188 5.23046875 4.62109375 C4.12638672 4.31365234 4.12638672 4.31365234 3 4 C3 3.34 3 2.68 3 2 C2.01 2 1.02 2 0 2 C0 1.34 0 0.68 0 0 Z " fill="#D18C35" transform="translate(292,107)"/>
<path d="M0 0 C1.32 0.33 2.64 0.66 4 1 C2.59627198 2.20276695 1.17647903 3.38680519 -0.25 4.5625 C-1.43335938 5.55443359 -1.43335938 5.55443359 -2.640625 6.56640625 C-5 8 -5 8 -7.296875 7.71484375 C-7.85890625 7.47894531 -8.4209375 7.24304688 -9 7 C-8.34 6.34 -7.68 5.68 -7 5 C-6.01 5 -5.02 5 -4 5 C-4 4.01 -4 3.02 -4 2 C-2.68 2 -1.36 2 0 2 C0 1.34 0 0.68 0 0 Z " fill="#ECBE1C" transform="translate(387,423)"/>
<path d="M0 0 C-1.55466197 4.08332902 -4.25087844 6.08208993 -7.625 8.75 C-8.62789063 9.54921875 -9.63078125 10.3484375 -10.6640625 11.171875 C-11.43492187 11.77515625 -12.20578125 12.3784375 -13 13 C-13.66 12.67 -14.32 12.34 -15 12 C-12.88046983 9.99390948 -10.75486559 7.99506397 -8.625 6 C-8.02171875 5.42765625 -7.4184375 4.8553125 -6.796875 4.265625 C-6.21679688 3.72421875 -5.63671875 3.1828125 -5.0390625 2.625 C-4.50490723 2.12226563 -3.97075195 1.61953125 -3.42041016 1.1015625 C-2 0 -2 0 0 0 Z " fill="#312200" transform="translate(406,411)"/>
<path d="M0 0 C0.7940625 0.07863281 1.588125 0.15726562 2.40625 0.23828125 C4.5 0.6875 4.5 0.6875 6.5 2.6875 C5.80132812 2.66429687 5.10265625 2.64109375 4.3828125 2.6171875 C3.01769531 2.59011719 3.01769531 2.59011719 1.625 2.5625 C0.72007812 2.53929687 -0.18484375 2.51609375 -1.1171875 2.4921875 C-3.68806994 2.44425164 -3.68806994 2.44425164 -5.5 4.6875 C-6.49 4.6875 -7.48 4.6875 -8.5 4.6875 C-6.4048172 0.04816665 -5.00563409 -0.54444397 0 0 Z " fill="#E4BB29" transform="translate(161.5,310.3125)"/>
<path d="M0 0 C0 0.66 0 1.32 0 2 C-0.9075 2.598125 -1.815 3.19625 -2.75 3.8125 C-6.0835238 5.79755533 -6.0835238 5.79755533 -8.0625 8.75 C-10 11 -10 11 -12.75 11.3125 C-13.86375 11.1578125 -13.86375 11.1578125 -15 11 C-14.34 10.484375 -13.68 9.96875 -13 9.4375 C-9.82346429 6.85656474 -6.79578443 4.14492043 -3.76953125 1.390625 C-2 0 -2 0 0 0 Z " fill="#DB9239" transform="translate(251,106)"/>
<path d="M0 0 C0.33 0 0.66 0 1 0 C1 2.64 1 5.28 1 8 C1.94875 7.505 2.8975 7.01 3.875 6.5 C7 5 7 5 9 5 C8.67 5.99 8.34 6.98 8 8 C7.34 8 6.68 8 6 8 C5.67 8.99 5.34 9.98 5 11 C1.125 10.125 1.125 10.125 0 9 C-0.07179964 7.48071962 -0.08392007 5.95832518 -0.0625 4.4375 C-0.05347656 3.61121094 -0.04445312 2.78492187 -0.03515625 1.93359375 C-0.02355469 1.29550781 -0.01195312 0.65742187 0 0 Z " fill="#3D3E3E" transform="translate(251,90)"/>
<path d="M0 0 C2.4375 0.6875 2.4375 0.6875 5 2 C5.8125 4.625 5.8125 4.625 6 7 C4.68 7 3.36 7 2 7 C0 4 0 4 0 0 Z " fill="#EE962F" transform="translate(231,130)"/>
<path d="M0 0 C3.96 0.33 7.92 0.66 12 1 C8 4 8 4 5.640625 4.07421875 C4.85171875 3.94660156 4.0628125 3.81898438 3.25 3.6875 C2.45078125 3.56761719 1.6515625 3.44773437 0.828125 3.32421875 C0.22484375 3.21722656 -0.3784375 3.11023438 -1 3 C-0.67 2.01 -0.34 1.02 0 0 Z " fill="#E7B20F" transform="translate(208,426)"/>
<path d="M0 0 C3.465 1.485 3.465 1.485 7 3 C6.0409375 3.1546875 6.0409375 3.1546875 5.0625 3.3125 C4.381875 3.539375 3.70125 3.76625 3 4 C2.67 4.99 2.34 5.98 2 7 C0.68 5.68 -0.64 4.36 -2 3 C-1.34 2.01 -0.68 1.02 0 0 Z " fill="#D78E30" transform="translate(281,101)"/>
<path d="M0 0 C0.66 0.66 1.32 1.32 2 2 C3.31747324 2.69748583 4.64914193 3.36959957 6 4 C4.02 5.32 2.04 6.64 0 8 C-0.33 7.01 -0.66 6.02 -1 5 C-1.66 4.67 -2.32 4.34 -3 4 C-2.01 2.68 -1.02 1.36 0 0 Z " fill="#50433B" transform="translate(240,106)"/>
<path d="M0 0 C0.66 0.33 1.32 0.66 2 1 C1.1875 2.9375 1.1875 2.9375 0 5 C-0.99 5.33 -1.98 5.66 -3 6 C-3 6.66 -3 7.32 -3 8 C-4.32 7.67 -5.64 7.34 -7 7 C-6.34 7 -5.68 7 -5 7 C-4.731875 6.401875 -4.46375 5.80375 -4.1875 5.1875 C-3.01506533 3.02775192 -1.80630718 1.64209744 0 0 Z " fill="#E0B31A" transform="translate(151,315)"/>
<path d="M0 0 C0.66 0 1.32 0 2 0 C2.33 1.65 2.66 3.3 3 5 C2.34 5 1.68 5 1 5 C1.33 6.65 1.66 8.3 2 10 C0.68 8.35 -0.64 6.7 -2 5 C-1.34 3.35 -0.68 1.7 0 0 Z " fill="#F39531" transform="translate(236,117)"/>
<path d="M0 0 C0.66 0 1.32 0 2 0 C3.4375 2.1875 3.4375 2.1875 5 5 C5.556875 5.928125 6.11375 6.85625 6.6875 7.8125 C7.3371875 8.8953125 7.3371875 8.8953125 8 10 C7.01 10 6.02 10 5 10 C4.71125 9.360625 4.4225 8.72125 4.125 8.0625 C3.17176549 5.84793921 3.17176549 5.84793921 1 5 C0.375 2.4375 0.375 2.4375 0 0 Z " fill="#E2B923" transform="translate(212,378)"/>
<path d="M0 0 C0.5775 0.37125 1.155 0.7425 1.75 1.125 C-0.25 3.125 -0.25 3.125 -2.4140625 3.3203125 C-3.63222656 3.28550781 -3.63222656 3.28550781 -4.875 3.25 C-5.69226563 3.23195312 -6.50953125 3.21390625 -7.3515625 3.1953125 C-7.97804688 3.17210937 -8.60453125 3.14890625 -9.25 3.125 C-2.88157895 -1.12061404 -2.88157895 -1.12061404 0 0 Z " fill="#DB8F2A" transform="translate(292.25,138.875)"/>
<path d="M0 0 C1.04449911 3.13349732 0.93423645 3.98968256 0 7 C-1.65 6.67 -3.3 6.34 -5 6 C-3.86695008 2.60085025 -2.87481525 1.94745549 0 0 Z " fill="#D58B30" transform="translate(235,117)"/>
<path d="M0 0 C1.65 0 3.3 0 5 0 C5 0.99 5 1.98 5 3 C7.475 3.99 7.475 3.99 10 5 C9.01 5.495 9.01 5.495 8 6 C6.0546875 5.0390625 6.0546875 5.0390625 3.875 3.625 C3.15054688 3.16351563 2.42609375 2.70203125 1.6796875 2.2265625 C1.12539062 1.82179687 0.57109375 1.41703125 0 1 C0 0.67 0 0.34 0 0 Z " fill="#E09339" transform="translate(252,150)"/>
<path d="M0 0 C-0.60183749 2.02045442 -1.27306096 4.02111039 -2 6 C-2.99 6.495 -2.99 6.495 -4 7 C-4 6.01 -4 5.02 -4 4 C-4.66 3.67 -5.32 3.34 -6 3 C-2.25 0 -2.25 0 0 0 Z " fill="#301603" transform="translate(292,133)"/>
<path d="M0 0 C0.66 0 1.32 0 2 0 C2 1.65 2 3.3 2 5 C4.97 5.495 4.97 5.495 8 6 C8 6.33 8 6.66 8 7 C5.69 7 3.38 7 1 7 C0.67 6.01 0.34 5.02 0 4 C0.33 3.34 0.66 2.68 1 2 C0.34 1.67 -0.32 1.34 -1 1 C-0.67 0.67 -0.34 0.34 0 0 Z " fill="#ED9B37" transform="translate(252,104)"/>
<path d="M0 0 C0 1.32 0 2.64 0 4 C-0.99 4.495 -0.99 4.495 -2 5 C-2.99 6.485 -2.99 6.485 -4 8 C-4 6.35 -4 4.7 -4 3 C-4.66 2.67 -5.32 2.34 -6 2 C-2.25 0 -2.25 0 0 0 Z " fill="#CD8934" transform="translate(258,101)"/>
<path d="M0 0 C1.9375 0.5625 1.9375 0.5625 4 2 C4.75 5.625 4.75 5.625 5 9 C1.96130589 7.48065294 1.35589694 5.01995228 0 2 C0 1.34 0 0.68 0 0 Z " fill="#DDB621" transform="translate(338,417)"/>
<path d="M0 0 C-1 2 -1 2 -3.875 3.125 C-7 4 -7 4 -10 4 C-6.66064924 0.50886057 -4.84725717 -0.1275594 0 0 Z " fill="#E3BA20" transform="translate(126,339)"/>
<path d="M0 0 C1.32 0.66 2.64 1.32 4 2 C3.01 2.99 2.02 3.98 1 5 C0.01 4.67 -0.98 4.34 -2 4 C-1.34 2.68 -0.68 1.36 0 0 Z " fill="#E58C2A" transform="translate(252,143)"/>
<path d="M0 0 C0.66 1.32 1.32 2.64 2 4 C0.68 4.33 -0.64 4.66 -2 5 C-1.67 5.66 -1.34 6.32 -1 7 C-1.99 6.67 -2.98 6.34 -4 6 C-3.6875 4.125 -3.6875 4.125 -3 2 C-2.01 1.34 -1.02 0.68 0 0 Z " fill="#FD9026" transform="translate(293,140)"/>
<path d="M0 0 C-0.33 1.32 -0.66 2.64 -1 4 C-1.99 4 -2.98 4 -4 4 C-4 3.34 -4 2.68 -4 2 C-5.32 1.67 -6.64 1.34 -8 1 C-2.25 -1.125 -2.25 -1.125 0 0 Z " fill="#331702" transform="translate(283,139)"/>
<path d="M0 0 C2.475 0.495 2.475 0.495 5 1 C4.67 2.32 4.34 3.64 4 5 C2.68 4.34 1.36 3.68 0 3 C0 2.01 0 1.02 0 0 Z " fill="#0A0200" transform="translate(303,108)"/>
<path d="M0 0 C3.48832306 2.20927127 4.73058503 4.08597051 6 8 C2.97984943 6.99328314 1.90683422 6.451644 0 4 C0 2.68 0 1.36 0 0 Z " fill="#E3B721" transform="translate(197,357)"/>
</svg>
